G04 EAGLE Gerber X2 export*
%TF.Part,Single*%
%TF.FileFunction,Copper,L1,Top,Mixed*%
%TF.FilePolarity,Positive*%
%TF.GenerationSoftware,Autodesk,EAGLE,9.1.0*%
%TF.CreationDate,2023-04-28T19:49:15Z*%
G75*
%MOMM*%
%FSLAX34Y34*%
%LPD*%
%AMOC8*
5,1,8,0,0,1.08239X$1,22.5*%
G01*
%ADD10C,1.879600*%
%ADD11P,1.649562X8X112.500000*%
%ADD12R,1.200000X1.200000*%
%ADD13R,1.500000X1.300000*%
%ADD14C,2.184400*%
%ADD15C,1.524000*%
%ADD16P,1.732040X8X112.500000*%
%ADD17C,1.600200*%
%ADD18C,1.800000*%
%ADD19R,0.508000X1.320800*%
%ADD20R,2.000000X1.200000*%
%ADD21R,1.200000X2.000000*%
%ADD22R,1.270000X0.558800*%
%ADD23R,1.300000X1.500000*%
%ADD24P,1.429621X8X292.500000*%
%ADD25C,0.304800*%
%ADD26C,0.756400*%
%ADD27C,0.406400*%
%ADD28C,0.508000*%
%ADD29C,2.540000*%
%ADD30C,0.812800*%

G36*
X240558Y10164D02*
X240558Y10164D01*
X240577Y10162D01*
X240679Y10184D01*
X240781Y10200D01*
X240798Y10210D01*
X240818Y10214D01*
X240907Y10267D01*
X240998Y10316D01*
X241012Y10330D01*
X241029Y10340D01*
X241096Y10419D01*
X241168Y10494D01*
X241176Y10512D01*
X241189Y10527D01*
X241228Y10623D01*
X241271Y10717D01*
X241273Y10737D01*
X241281Y10755D01*
X241299Y10922D01*
X241299Y69850D01*
X241300Y69851D01*
X391389Y69851D01*
X391460Y69862D01*
X391532Y69864D01*
X391581Y69882D01*
X391632Y69890D01*
X391695Y69924D01*
X391763Y69949D01*
X391803Y69981D01*
X391850Y70006D01*
X391899Y70058D01*
X391955Y70102D01*
X391983Y70146D01*
X392019Y70184D01*
X392049Y70249D01*
X392088Y70309D01*
X392101Y70360D01*
X392123Y70407D01*
X392130Y70478D01*
X392148Y70548D01*
X392144Y70600D01*
X392150Y70651D01*
X392134Y70722D01*
X392129Y70793D01*
X392108Y70841D01*
X392097Y70892D01*
X392061Y70953D01*
X392032Y71019D01*
X391988Y71075D01*
X391971Y71103D01*
X391953Y71118D01*
X391928Y71150D01*
X345050Y118028D01*
X344976Y118081D01*
X344906Y118141D01*
X344876Y118153D01*
X344850Y118172D01*
X344763Y118199D01*
X344678Y118233D01*
X344637Y118237D01*
X344615Y118244D01*
X344583Y118243D01*
X344511Y118251D01*
X256686Y118251D01*
X256666Y118248D01*
X256647Y118250D01*
X256545Y118228D01*
X256443Y118212D01*
X256426Y118202D01*
X256406Y118198D01*
X256317Y118145D01*
X256226Y118096D01*
X256212Y118082D01*
X256195Y118072D01*
X256128Y117993D01*
X256056Y117918D01*
X256048Y117900D01*
X256035Y117885D01*
X255996Y117789D01*
X255953Y117695D01*
X255951Y117675D01*
X255943Y117657D01*
X255925Y117490D01*
X255925Y114668D01*
X255032Y113775D01*
X233768Y113775D01*
X232875Y114668D01*
X232875Y125126D01*
X232873Y125139D01*
X232874Y125149D01*
X232864Y125198D01*
X232862Y125268D01*
X232844Y125317D01*
X232836Y125369D01*
X232802Y125432D01*
X232777Y125499D01*
X232745Y125540D01*
X232720Y125586D01*
X232669Y125635D01*
X232624Y125691D01*
X232580Y125720D01*
X232542Y125755D01*
X232477Y125786D01*
X232417Y125824D01*
X232366Y125837D01*
X232319Y125859D01*
X232248Y125867D01*
X232178Y125884D01*
X232126Y125880D01*
X232075Y125886D01*
X232004Y125871D01*
X231933Y125865D01*
X231885Y125845D01*
X231834Y125834D01*
X231773Y125797D01*
X231707Y125769D01*
X231651Y125724D01*
X231623Y125708D01*
X231608Y125690D01*
X231576Y125664D01*
X161711Y55800D01*
X161655Y55721D01*
X161592Y55646D01*
X161583Y55621D01*
X161568Y55600D01*
X161539Y55507D01*
X161504Y55416D01*
X161503Y55390D01*
X161495Y55365D01*
X161498Y55268D01*
X161494Y55170D01*
X161501Y55145D01*
X161502Y55119D01*
X161535Y55028D01*
X161562Y54934D01*
X161577Y54913D01*
X161586Y54888D01*
X161647Y54812D01*
X161703Y54732D01*
X161724Y54716D01*
X161740Y54696D01*
X161822Y54643D01*
X161900Y54585D01*
X161925Y54577D01*
X161947Y54563D01*
X162041Y54539D01*
X162134Y54509D01*
X162160Y54509D01*
X162185Y54503D01*
X162282Y54510D01*
X162380Y54511D01*
X162411Y54521D01*
X162431Y54522D01*
X162461Y54535D01*
X162541Y54558D01*
X163281Y54865D01*
X166919Y54865D01*
X170280Y53473D01*
X172682Y51070D01*
X172698Y51059D01*
X172711Y51043D01*
X172798Y50987D01*
X172882Y50927D01*
X172901Y50921D01*
X172918Y50910D01*
X173018Y50885D01*
X173117Y50854D01*
X173137Y50855D01*
X173156Y50850D01*
X173259Y50858D01*
X173363Y50861D01*
X173382Y50868D01*
X173402Y50869D01*
X173496Y50910D01*
X173594Y50945D01*
X173610Y50958D01*
X173628Y50966D01*
X173759Y51070D01*
X225028Y102340D01*
X227037Y104349D01*
X232114Y104349D01*
X232134Y104352D01*
X232153Y104350D01*
X232255Y104372D01*
X232357Y104388D01*
X232374Y104398D01*
X232394Y104402D01*
X232483Y104455D01*
X232574Y104504D01*
X232588Y104518D01*
X232605Y104528D01*
X232672Y104607D01*
X232744Y104682D01*
X232752Y104700D01*
X232765Y104715D01*
X232804Y104811D01*
X232847Y104905D01*
X232849Y104925D01*
X232857Y104943D01*
X232875Y105110D01*
X232875Y107932D01*
X233768Y108825D01*
X255032Y108825D01*
X255925Y107932D01*
X255925Y94668D01*
X255032Y93775D01*
X233768Y93775D01*
X232875Y94668D01*
X232875Y97490D01*
X232872Y97510D01*
X232874Y97529D01*
X232852Y97631D01*
X232836Y97733D01*
X232826Y97750D01*
X232822Y97770D01*
X232769Y97859D01*
X232720Y97950D01*
X232706Y97964D01*
X232696Y97981D01*
X232617Y98048D01*
X232542Y98120D01*
X232524Y98128D01*
X232509Y98141D01*
X232413Y98180D01*
X232319Y98223D01*
X232299Y98225D01*
X232281Y98233D01*
X232114Y98251D01*
X229878Y98251D01*
X229788Y98237D01*
X229697Y98229D01*
X229667Y98217D01*
X229635Y98212D01*
X229555Y98169D01*
X229471Y98133D01*
X229439Y98107D01*
X229418Y98096D01*
X229396Y98073D01*
X229340Y98028D01*
X187111Y55800D01*
X187055Y55721D01*
X186992Y55646D01*
X186983Y55621D01*
X186968Y55600D01*
X186939Y55507D01*
X186904Y55416D01*
X186903Y55390D01*
X186895Y55365D01*
X186898Y55268D01*
X186894Y55170D01*
X186901Y55145D01*
X186902Y55119D01*
X186935Y55028D01*
X186962Y54934D01*
X186977Y54913D01*
X186986Y54888D01*
X187047Y54812D01*
X187103Y54732D01*
X187124Y54716D01*
X187140Y54696D01*
X187222Y54643D01*
X187300Y54585D01*
X187325Y54577D01*
X187347Y54563D01*
X187441Y54539D01*
X187534Y54509D01*
X187560Y54509D01*
X187585Y54503D01*
X187682Y54510D01*
X187780Y54511D01*
X187811Y54521D01*
X187831Y54522D01*
X187861Y54535D01*
X187941Y54558D01*
X188681Y54865D01*
X192319Y54865D01*
X195680Y53473D01*
X198082Y51070D01*
X198098Y51059D01*
X198111Y51043D01*
X198198Y50987D01*
X198282Y50927D01*
X198301Y50921D01*
X198318Y50910D01*
X198418Y50885D01*
X198517Y50854D01*
X198537Y50855D01*
X198556Y50850D01*
X198659Y50858D01*
X198763Y50861D01*
X198782Y50868D01*
X198802Y50869D01*
X198896Y50910D01*
X198994Y50945D01*
X199010Y50958D01*
X199028Y50966D01*
X199159Y51070D01*
X230428Y82340D01*
X232652Y84564D01*
X232705Y84638D01*
X232765Y84707D01*
X232777Y84737D01*
X232796Y84764D01*
X232823Y84851D01*
X232857Y84935D01*
X232861Y84976D01*
X232868Y84999D01*
X232867Y85031D01*
X232875Y85102D01*
X232875Y87932D01*
X233768Y88825D01*
X255032Y88825D01*
X255925Y87932D01*
X255925Y74668D01*
X255032Y73775D01*
X233768Y73775D01*
X232666Y74878D01*
X232650Y74889D01*
X232637Y74905D01*
X232550Y74961D01*
X232466Y75021D01*
X232447Y75027D01*
X232430Y75038D01*
X232330Y75063D01*
X232231Y75094D01*
X232211Y75093D01*
X232192Y75098D01*
X232089Y75090D01*
X231985Y75087D01*
X231966Y75080D01*
X231947Y75079D01*
X231852Y75039D01*
X231754Y75003D01*
X231739Y74990D01*
X231720Y74983D01*
X231589Y74878D01*
X199868Y43156D01*
X199815Y43082D01*
X199755Y43013D01*
X199743Y42983D01*
X199724Y42956D01*
X199697Y42869D01*
X199663Y42785D01*
X199659Y42744D01*
X199652Y42721D01*
X199653Y42689D01*
X199645Y42618D01*
X199645Y28661D01*
X198253Y25300D01*
X195680Y22727D01*
X192319Y21335D01*
X188681Y21335D01*
X185320Y22727D01*
X182747Y25300D01*
X181355Y28661D01*
X181355Y47539D01*
X181662Y48279D01*
X181684Y48374D01*
X181713Y48467D01*
X181712Y48493D01*
X181718Y48519D01*
X181709Y48615D01*
X181706Y48713D01*
X181697Y48737D01*
X181695Y48763D01*
X181655Y48852D01*
X181622Y48944D01*
X181606Y48964D01*
X181595Y48988D01*
X181529Y49060D01*
X181468Y49136D01*
X181446Y49150D01*
X181429Y49169D01*
X181343Y49216D01*
X181261Y49269D01*
X181236Y49275D01*
X181213Y49288D01*
X181117Y49305D01*
X181023Y49329D01*
X180997Y49327D01*
X180971Y49332D01*
X180874Y49317D01*
X180778Y49310D01*
X180754Y49300D01*
X180728Y49296D01*
X180641Y49252D01*
X180551Y49213D01*
X180526Y49193D01*
X180508Y49184D01*
X180485Y49161D01*
X180420Y49109D01*
X174468Y43156D01*
X174415Y43082D01*
X174355Y43013D01*
X174343Y42983D01*
X174324Y42956D01*
X174297Y42869D01*
X174263Y42785D01*
X174259Y42744D01*
X174252Y42721D01*
X174253Y42689D01*
X174245Y42618D01*
X174245Y28661D01*
X172853Y25300D01*
X170280Y22727D01*
X166919Y21335D01*
X163281Y21335D01*
X159920Y22727D01*
X157347Y25300D01*
X155955Y28661D01*
X155955Y47539D01*
X156262Y48279D01*
X156284Y48374D01*
X156313Y48467D01*
X156312Y48493D01*
X156318Y48519D01*
X156309Y48615D01*
X156306Y48713D01*
X156297Y48737D01*
X156295Y48763D01*
X156255Y48852D01*
X156222Y48944D01*
X156206Y48964D01*
X156195Y48988D01*
X156129Y49060D01*
X156068Y49136D01*
X156046Y49150D01*
X156029Y49169D01*
X155943Y49216D01*
X155861Y49269D01*
X155836Y49275D01*
X155813Y49288D01*
X155717Y49305D01*
X155623Y49329D01*
X155597Y49327D01*
X155571Y49332D01*
X155474Y49317D01*
X155378Y49310D01*
X155354Y49300D01*
X155328Y49296D01*
X155241Y49252D01*
X155151Y49214D01*
X155126Y49193D01*
X155108Y49184D01*
X155085Y49161D01*
X155020Y49109D01*
X149068Y43156D01*
X149015Y43082D01*
X148955Y43013D01*
X148943Y42983D01*
X148924Y42956D01*
X148897Y42869D01*
X148863Y42785D01*
X148859Y42744D01*
X148852Y42721D01*
X148853Y42689D01*
X148845Y42618D01*
X148845Y28661D01*
X147453Y25300D01*
X144880Y22727D01*
X141519Y21335D01*
X137881Y21335D01*
X134520Y22727D01*
X131947Y25300D01*
X130555Y28661D01*
X130555Y47539D01*
X130862Y48279D01*
X130884Y48374D01*
X130913Y48467D01*
X130912Y48493D01*
X130918Y48519D01*
X130909Y48615D01*
X130906Y48713D01*
X130897Y48737D01*
X130895Y48763D01*
X130855Y48852D01*
X130822Y48944D01*
X130806Y48964D01*
X130795Y48988D01*
X130729Y49060D01*
X130668Y49136D01*
X130646Y49150D01*
X130628Y49169D01*
X130543Y49216D01*
X130461Y49269D01*
X130436Y49275D01*
X130413Y49288D01*
X130317Y49305D01*
X130223Y49329D01*
X130197Y49327D01*
X130171Y49332D01*
X130074Y49317D01*
X129978Y49310D01*
X129954Y49300D01*
X129928Y49296D01*
X129841Y49252D01*
X129751Y49213D01*
X129726Y49193D01*
X129708Y49184D01*
X129685Y49161D01*
X129620Y49109D01*
X123668Y43156D01*
X123615Y43082D01*
X123555Y43013D01*
X123543Y42983D01*
X123524Y42956D01*
X123497Y42869D01*
X123463Y42785D01*
X123459Y42744D01*
X123452Y42721D01*
X123453Y42689D01*
X123445Y42618D01*
X123445Y28661D01*
X122053Y25300D01*
X119480Y22727D01*
X116119Y21335D01*
X112481Y21335D01*
X109120Y22727D01*
X106547Y25300D01*
X105155Y28661D01*
X105155Y47539D01*
X106547Y50900D01*
X109120Y53473D01*
X112481Y54865D01*
X116119Y54865D01*
X119480Y53473D01*
X121882Y51070D01*
X121898Y51059D01*
X121911Y51043D01*
X121998Y50987D01*
X122082Y50927D01*
X122101Y50921D01*
X122118Y50910D01*
X122218Y50885D01*
X122317Y50854D01*
X122337Y50855D01*
X122356Y50850D01*
X122459Y50858D01*
X122563Y50861D01*
X122582Y50868D01*
X122602Y50869D01*
X122696Y50910D01*
X122794Y50945D01*
X122810Y50958D01*
X122828Y50966D01*
X122959Y51070D01*
X196728Y124840D01*
X196781Y124914D01*
X196841Y124983D01*
X196853Y125013D01*
X196872Y125040D01*
X196899Y125127D01*
X196933Y125211D01*
X196937Y125252D01*
X196944Y125275D01*
X196943Y125307D01*
X196951Y125378D01*
X196951Y129914D01*
X196948Y129934D01*
X196950Y129953D01*
X196928Y130055D01*
X196912Y130157D01*
X196902Y130174D01*
X196898Y130194D01*
X196845Y130283D01*
X196796Y130374D01*
X196782Y130388D01*
X196772Y130405D01*
X196693Y130472D01*
X196618Y130544D01*
X196600Y130552D01*
X196585Y130565D01*
X196489Y130604D01*
X196395Y130647D01*
X196375Y130649D01*
X196357Y130657D01*
X196190Y130675D01*
X192868Y130675D01*
X191975Y131568D01*
X191975Y144526D01*
X191964Y144597D01*
X191962Y144668D01*
X191944Y144717D01*
X191936Y144769D01*
X191902Y144832D01*
X191877Y144899D01*
X191845Y144940D01*
X191820Y144986D01*
X191768Y145035D01*
X191724Y145091D01*
X191680Y145120D01*
X191642Y145155D01*
X191577Y145186D01*
X191517Y145224D01*
X191466Y145237D01*
X191419Y145259D01*
X191348Y145267D01*
X191278Y145284D01*
X191226Y145280D01*
X191175Y145286D01*
X191104Y145271D01*
X191033Y145265D01*
X190985Y145245D01*
X190934Y145234D01*
X190873Y145197D01*
X190807Y145169D01*
X190751Y145124D01*
X190723Y145108D01*
X190708Y145090D01*
X190676Y145064D01*
X189248Y143636D01*
X189195Y143562D01*
X189135Y143493D01*
X189123Y143463D01*
X189104Y143436D01*
X189077Y143349D01*
X189043Y143265D01*
X189039Y143224D01*
X189032Y143201D01*
X189033Y143169D01*
X189025Y143098D01*
X189025Y131568D01*
X188132Y130675D01*
X173868Y130675D01*
X172975Y131568D01*
X172975Y147832D01*
X173868Y148725D01*
X185398Y148725D01*
X185488Y148739D01*
X185579Y148747D01*
X185609Y148759D01*
X185641Y148764D01*
X185721Y148807D01*
X185805Y148843D01*
X185837Y148869D01*
X185858Y148880D01*
X185880Y148903D01*
X185936Y148948D01*
X204464Y167476D01*
X204506Y167534D01*
X204555Y167586D01*
X204577Y167633D01*
X204608Y167675D01*
X204629Y167744D01*
X204659Y167809D01*
X204665Y167861D01*
X204680Y167911D01*
X204678Y167982D01*
X204686Y168053D01*
X204675Y168104D01*
X204674Y168156D01*
X204649Y168224D01*
X204634Y168294D01*
X204607Y168339D01*
X204589Y168387D01*
X204544Y168443D01*
X204508Y168505D01*
X204468Y168539D01*
X204436Y168579D01*
X204375Y168618D01*
X204321Y168665D01*
X204272Y168684D01*
X204229Y168712D01*
X204159Y168730D01*
X204093Y168757D01*
X204021Y168765D01*
X203990Y168773D01*
X203967Y168771D01*
X203926Y168775D01*
X192868Y168775D01*
X191975Y169668D01*
X191975Y185932D01*
X192868Y186825D01*
X204398Y186825D01*
X204488Y186839D01*
X204579Y186847D01*
X204609Y186859D01*
X204641Y186864D01*
X204721Y186907D01*
X204805Y186943D01*
X204837Y186969D01*
X204858Y186980D01*
X204880Y187003D01*
X204936Y187048D01*
X222237Y204349D01*
X232114Y204349D01*
X232134Y204352D01*
X232153Y204350D01*
X232255Y204372D01*
X232357Y204388D01*
X232374Y204398D01*
X232394Y204402D01*
X232483Y204455D01*
X232574Y204504D01*
X232588Y204518D01*
X232605Y204528D01*
X232672Y204607D01*
X232744Y204682D01*
X232752Y204700D01*
X232765Y204715D01*
X232804Y204811D01*
X232847Y204905D01*
X232849Y204925D01*
X232857Y204943D01*
X232875Y205110D01*
X232875Y207932D01*
X233768Y208825D01*
X255032Y208825D01*
X255925Y207932D01*
X255925Y194668D01*
X255032Y193775D01*
X233768Y193775D01*
X232875Y194668D01*
X232875Y197490D01*
X232872Y197510D01*
X232874Y197529D01*
X232852Y197631D01*
X232836Y197733D01*
X232826Y197750D01*
X232822Y197770D01*
X232769Y197859D01*
X232720Y197950D01*
X232706Y197964D01*
X232696Y197981D01*
X232617Y198048D01*
X232542Y198120D01*
X232524Y198128D01*
X232509Y198141D01*
X232413Y198180D01*
X232319Y198223D01*
X232299Y198225D01*
X232281Y198233D01*
X232114Y198251D01*
X225078Y198251D01*
X224988Y198237D01*
X224897Y198229D01*
X224867Y198217D01*
X224835Y198212D01*
X224755Y198169D01*
X224671Y198133D01*
X224639Y198107D01*
X224618Y198096D01*
X224596Y198073D01*
X224540Y198028D01*
X208248Y181736D01*
X208195Y181662D01*
X208135Y181593D01*
X208123Y181563D01*
X208104Y181536D01*
X208077Y181449D01*
X208043Y181365D01*
X208039Y181324D01*
X208032Y181301D01*
X208033Y181269D01*
X208025Y181198D01*
X208025Y172874D01*
X208036Y172803D01*
X208038Y172732D01*
X208056Y172683D01*
X208064Y172631D01*
X208098Y172568D01*
X208123Y172501D01*
X208155Y172460D01*
X208180Y172414D01*
X208232Y172365D01*
X208276Y172309D01*
X208320Y172280D01*
X208358Y172245D01*
X208423Y172214D01*
X208483Y172176D01*
X208534Y172163D01*
X208581Y172141D01*
X208652Y172133D01*
X208722Y172116D01*
X208774Y172120D01*
X208825Y172114D01*
X208896Y172129D01*
X208967Y172135D01*
X209015Y172155D01*
X209066Y172166D01*
X209127Y172203D01*
X209193Y172231D01*
X209249Y172276D01*
X209277Y172292D01*
X209292Y172310D01*
X209324Y172336D01*
X210385Y173397D01*
X232309Y173397D01*
X232380Y173408D01*
X232452Y173410D01*
X232501Y173428D01*
X232552Y173436D01*
X232615Y173470D01*
X232683Y173495D01*
X232723Y173527D01*
X232769Y173552D01*
X232819Y173603D01*
X232875Y173648D01*
X232903Y173692D01*
X232939Y173730D01*
X232969Y173795D01*
X233008Y173855D01*
X233020Y173906D01*
X233042Y173953D01*
X233050Y174024D01*
X233068Y174094D01*
X233064Y174146D01*
X233069Y174197D01*
X233054Y174268D01*
X233049Y174339D01*
X233028Y174387D01*
X233017Y174438D01*
X232980Y174499D01*
X232952Y174565D01*
X232907Y174621D01*
X232891Y174649D01*
X232875Y174662D01*
X232875Y187932D01*
X233768Y188825D01*
X255032Y188825D01*
X255925Y187932D01*
X255925Y174658D01*
X255911Y174638D01*
X255861Y174586D01*
X255839Y174539D01*
X255809Y174497D01*
X255788Y174428D01*
X255758Y174363D01*
X255752Y174311D01*
X255737Y174262D01*
X255739Y174190D01*
X255731Y174119D01*
X255742Y174068D01*
X255743Y174016D01*
X255768Y173948D01*
X255783Y173878D01*
X255810Y173833D01*
X255827Y173785D01*
X255872Y173729D01*
X255909Y173667D01*
X255949Y173633D01*
X255981Y173593D01*
X256041Y173554D01*
X256096Y173507D01*
X256144Y173488D01*
X256188Y173460D01*
X256258Y173442D01*
X256324Y173415D01*
X256395Y173407D01*
X256427Y173399D01*
X256450Y173401D01*
X256491Y173397D01*
X333870Y173397D01*
X333960Y173411D01*
X334051Y173419D01*
X334081Y173431D01*
X334113Y173436D01*
X334193Y173479D01*
X334277Y173515D01*
X334309Y173541D01*
X334330Y173552D01*
X334352Y173575D01*
X334408Y173620D01*
X385137Y224349D01*
X394114Y224349D01*
X394134Y224352D01*
X394153Y224350D01*
X394255Y224372D01*
X394357Y224388D01*
X394374Y224398D01*
X394394Y224402D01*
X394483Y224455D01*
X394574Y224504D01*
X394588Y224518D01*
X394605Y224528D01*
X394672Y224607D01*
X394744Y224682D01*
X394752Y224700D01*
X394765Y224715D01*
X394804Y224811D01*
X394847Y224905D01*
X394849Y224925D01*
X394857Y224943D01*
X394875Y225110D01*
X394875Y227932D01*
X395768Y228825D01*
X417032Y228825D01*
X417925Y227932D01*
X417925Y219238D01*
X417928Y219218D01*
X417926Y219199D01*
X417948Y219097D01*
X417964Y218995D01*
X417974Y218978D01*
X417978Y218958D01*
X418031Y218869D01*
X418080Y218778D01*
X418094Y218764D01*
X418104Y218747D01*
X418183Y218680D01*
X418258Y218608D01*
X418276Y218600D01*
X418291Y218587D01*
X418387Y218548D01*
X418481Y218505D01*
X418501Y218503D01*
X418519Y218495D01*
X418686Y218477D01*
X419826Y218477D01*
X421880Y217626D01*
X423559Y215947D01*
X423560Y215947D01*
X432573Y206934D01*
X434252Y205254D01*
X435103Y203200D01*
X435103Y172988D01*
X435114Y172917D01*
X435116Y172845D01*
X435134Y172796D01*
X435142Y172745D01*
X435176Y172682D01*
X435201Y172614D01*
X435233Y172574D01*
X435258Y172527D01*
X435310Y172478D01*
X435354Y172422D01*
X435398Y172394D01*
X435436Y172358D01*
X435501Y172328D01*
X435561Y172289D01*
X435612Y172276D01*
X435659Y172254D01*
X435730Y172247D01*
X435800Y172229D01*
X435852Y172233D01*
X435903Y172227D01*
X435974Y172243D01*
X436045Y172248D01*
X436093Y172269D01*
X436144Y172280D01*
X436205Y172316D01*
X436271Y172345D01*
X436327Y172389D01*
X436355Y172406D01*
X436370Y172424D01*
X436402Y172449D01*
X438313Y174360D01*
X442327Y176023D01*
X446673Y176023D01*
X450687Y174360D01*
X453760Y171287D01*
X455423Y167273D01*
X455423Y162927D01*
X453760Y158913D01*
X451849Y157002D01*
X451807Y156944D01*
X451758Y156892D01*
X451736Y156845D01*
X451706Y156803D01*
X451685Y156734D01*
X451654Y156669D01*
X451649Y156617D01*
X451633Y156567D01*
X451635Y156496D01*
X451627Y156425D01*
X451638Y156374D01*
X451640Y156322D01*
X451664Y156254D01*
X451680Y156184D01*
X451706Y156139D01*
X451724Y156091D01*
X451769Y156035D01*
X451806Y155973D01*
X451845Y155939D01*
X451878Y155899D01*
X451938Y155860D01*
X451993Y155813D01*
X452041Y155794D01*
X452085Y155766D01*
X452154Y155748D01*
X452221Y155721D01*
X452292Y155713D01*
X452323Y155705D01*
X452347Y155707D01*
X452388Y155703D01*
X462012Y155703D01*
X462083Y155714D01*
X462155Y155716D01*
X462204Y155734D01*
X462255Y155742D01*
X462318Y155776D01*
X462386Y155801D01*
X462426Y155833D01*
X462473Y155858D01*
X462522Y155910D01*
X462578Y155954D01*
X462606Y155998D01*
X462642Y156036D01*
X462672Y156101D01*
X462711Y156161D01*
X462724Y156212D01*
X462746Y156259D01*
X462753Y156330D01*
X462771Y156400D01*
X462767Y156452D01*
X462773Y156503D01*
X462757Y156574D01*
X462752Y156645D01*
X462731Y156693D01*
X462720Y156744D01*
X462684Y156805D01*
X462655Y156871D01*
X462611Y156927D01*
X462594Y156955D01*
X462576Y156970D01*
X462551Y157002D01*
X460640Y158913D01*
X458977Y162927D01*
X458977Y167273D01*
X460640Y171287D01*
X463713Y174360D01*
X467727Y176023D01*
X472073Y176023D01*
X476087Y174360D01*
X479160Y171287D01*
X480823Y167273D01*
X480823Y162927D01*
X479160Y158913D01*
X477249Y157002D01*
X477207Y156944D01*
X477158Y156892D01*
X477136Y156845D01*
X477106Y156803D01*
X477085Y156734D01*
X477054Y156669D01*
X477049Y156617D01*
X477033Y156567D01*
X477035Y156496D01*
X477027Y156425D01*
X477038Y156374D01*
X477040Y156322D01*
X477064Y156254D01*
X477080Y156184D01*
X477106Y156139D01*
X477124Y156091D01*
X477169Y156035D01*
X477206Y155973D01*
X477245Y155939D01*
X477278Y155899D01*
X477338Y155860D01*
X477393Y155813D01*
X477441Y155794D01*
X477485Y155766D01*
X477554Y155748D01*
X477621Y155721D01*
X477692Y155713D01*
X477723Y155705D01*
X477747Y155707D01*
X477788Y155703D01*
X478698Y155703D01*
X480752Y154852D01*
X502792Y132812D01*
X502866Y132759D01*
X502935Y132699D01*
X502966Y132687D01*
X502992Y132668D01*
X503079Y132641D01*
X503164Y132607D01*
X503204Y132603D01*
X503227Y132596D01*
X503259Y132597D01*
X503330Y132589D01*
X509112Y132589D01*
X509653Y132365D01*
X509716Y132350D01*
X509777Y132325D01*
X509860Y132316D01*
X509892Y132309D01*
X509911Y132310D01*
X509944Y132307D01*
X510198Y132307D01*
X510378Y132127D01*
X510431Y132089D01*
X510478Y132043D01*
X510551Y132003D01*
X510578Y131983D01*
X510596Y131978D01*
X510625Y131962D01*
X511166Y131738D01*
X512632Y130272D01*
X512706Y130219D01*
X512775Y130159D01*
X512806Y130147D01*
X512832Y130128D01*
X512919Y130101D01*
X513004Y130067D01*
X513044Y130063D01*
X513067Y130056D01*
X513099Y130057D01*
X513170Y130049D01*
X561714Y130049D01*
X561734Y130052D01*
X561753Y130050D01*
X561855Y130072D01*
X561957Y130088D01*
X561974Y130098D01*
X561994Y130102D01*
X562083Y130155D01*
X562174Y130204D01*
X562188Y130218D01*
X562205Y130228D01*
X562272Y130307D01*
X562344Y130382D01*
X562352Y130400D01*
X562365Y130415D01*
X562404Y130511D01*
X562447Y130605D01*
X562449Y130625D01*
X562457Y130643D01*
X562475Y130810D01*
X562475Y130932D01*
X563368Y131825D01*
X579632Y131825D01*
X580525Y130932D01*
X580525Y127610D01*
X580528Y127590D01*
X580526Y127571D01*
X580548Y127469D01*
X580564Y127367D01*
X580574Y127350D01*
X580578Y127330D01*
X580631Y127241D01*
X580680Y127150D01*
X580694Y127136D01*
X580704Y127119D01*
X580783Y127052D01*
X580858Y126980D01*
X580876Y126972D01*
X580891Y126959D01*
X580987Y126920D01*
X581081Y126877D01*
X581101Y126875D01*
X581119Y126867D01*
X581286Y126849D01*
X603294Y126849D01*
X603384Y126863D01*
X603475Y126871D01*
X603505Y126883D01*
X603537Y126888D01*
X603618Y126931D01*
X603701Y126967D01*
X603734Y126993D01*
X603754Y127004D01*
X603776Y127027D01*
X603832Y127072D01*
X604904Y128144D01*
X618048Y128144D01*
X618118Y128155D01*
X618190Y128157D01*
X618239Y128175D01*
X618291Y128183D01*
X618354Y128217D01*
X618421Y128242D01*
X618462Y128274D01*
X618508Y128299D01*
X618557Y128351D01*
X618613Y128395D01*
X618641Y128439D01*
X618677Y128477D01*
X618707Y128542D01*
X618746Y128602D01*
X618759Y128653D01*
X618781Y128700D01*
X618789Y128771D01*
X618806Y128841D01*
X618802Y128893D01*
X618808Y128944D01*
X618793Y129015D01*
X618787Y129086D01*
X618767Y129134D01*
X618756Y129185D01*
X618719Y129246D01*
X618691Y129312D01*
X618646Y129368D01*
X618630Y129396D01*
X618621Y129404D01*
X618619Y129407D01*
X618608Y129416D01*
X618586Y129443D01*
X608814Y139215D01*
X606805Y141224D01*
X606805Y157720D01*
X606794Y157791D01*
X606792Y157863D01*
X606774Y157912D01*
X606766Y157963D01*
X606732Y158026D01*
X606707Y158094D01*
X606675Y158134D01*
X606650Y158181D01*
X606598Y158230D01*
X606554Y158286D01*
X606510Y158314D01*
X606472Y158350D01*
X606407Y158380D01*
X606347Y158419D01*
X606296Y158432D01*
X606249Y158454D01*
X606178Y158461D01*
X606108Y158479D01*
X606056Y158475D01*
X606005Y158481D01*
X605934Y158465D01*
X605863Y158460D01*
X605815Y158439D01*
X605764Y158428D01*
X605703Y158392D01*
X605637Y158363D01*
X605581Y158319D01*
X605553Y158302D01*
X605538Y158284D01*
X605506Y158259D01*
X603087Y155840D01*
X599073Y154177D01*
X594727Y154177D01*
X590713Y155840D01*
X587640Y158913D01*
X585977Y162927D01*
X585977Y167273D01*
X587640Y171287D01*
X590713Y174360D01*
X594727Y176023D01*
X599073Y176023D01*
X603087Y174360D01*
X605252Y172195D01*
X605310Y172153D01*
X605362Y172104D01*
X605409Y172082D01*
X605451Y172052D01*
X605520Y172031D01*
X605585Y172000D01*
X605637Y171995D01*
X605687Y171979D01*
X605758Y171981D01*
X605829Y171973D01*
X605880Y171984D01*
X605932Y171986D01*
X606000Y172010D01*
X606070Y172026D01*
X606115Y172052D01*
X606163Y172070D01*
X606219Y172115D01*
X606281Y172152D01*
X606315Y172191D01*
X606355Y172224D01*
X606394Y172284D01*
X606441Y172339D01*
X606460Y172387D01*
X606488Y172431D01*
X606506Y172500D01*
X606533Y172567D01*
X606541Y172638D01*
X606549Y172669D01*
X606547Y172693D01*
X606551Y172734D01*
X606551Y303222D01*
X606537Y303312D01*
X606529Y303403D01*
X606517Y303433D01*
X606512Y303465D01*
X606469Y303545D01*
X606433Y303629D01*
X606407Y303661D01*
X606396Y303682D01*
X606373Y303704D01*
X606356Y303725D01*
X606352Y303733D01*
X606347Y303737D01*
X606328Y303760D01*
X602571Y307518D01*
X602476Y307585D01*
X602382Y307656D01*
X602376Y307658D01*
X602371Y307661D01*
X602260Y307695D01*
X602148Y307732D01*
X602142Y307732D01*
X602136Y307734D01*
X602019Y307730D01*
X601902Y307729D01*
X601895Y307727D01*
X601890Y307727D01*
X601873Y307721D01*
X601741Y307683D01*
X599073Y306577D01*
X594727Y306577D01*
X590713Y308240D01*
X587640Y311313D01*
X585977Y315327D01*
X585977Y319673D01*
X587640Y323687D01*
X590713Y326760D01*
X594727Y328423D01*
X599073Y328423D01*
X603087Y326760D01*
X606160Y323687D01*
X607823Y319673D01*
X607823Y315327D01*
X606717Y312659D01*
X606707Y312616D01*
X606691Y312582D01*
X606685Y312522D01*
X606662Y312432D01*
X606663Y312425D01*
X606661Y312419D01*
X606667Y312360D01*
X606664Y312338D01*
X606672Y312301D01*
X606681Y312186D01*
X606684Y312181D01*
X606684Y312174D01*
X606715Y312106D01*
X606717Y312097D01*
X606725Y312084D01*
X606732Y312067D01*
X606778Y311960D01*
X606782Y311954D01*
X606784Y311950D01*
X606797Y311936D01*
X606882Y311829D01*
X612649Y306063D01*
X612649Y172734D01*
X612660Y172663D01*
X612662Y172591D01*
X612680Y172542D01*
X612688Y172491D01*
X612722Y172428D01*
X612747Y172360D01*
X612779Y172320D01*
X612804Y172273D01*
X612856Y172224D01*
X612900Y172168D01*
X612944Y172140D01*
X612982Y172104D01*
X613047Y172074D01*
X613107Y172035D01*
X613158Y172022D01*
X613205Y172000D01*
X613276Y171993D01*
X613346Y171975D01*
X613398Y171979D01*
X613449Y171973D01*
X613520Y171989D01*
X613591Y171994D01*
X613639Y172015D01*
X613690Y172026D01*
X613751Y172062D01*
X613817Y172091D01*
X613873Y172135D01*
X613901Y172152D01*
X613916Y172170D01*
X613948Y172195D01*
X616113Y174360D01*
X620127Y176023D01*
X624473Y176023D01*
X628487Y174360D01*
X631560Y171287D01*
X633223Y167273D01*
X633223Y162927D01*
X631560Y158913D01*
X628487Y155840D01*
X624473Y154177D01*
X620127Y154177D01*
X616113Y155840D01*
X614202Y157751D01*
X614144Y157793D01*
X614092Y157842D01*
X614045Y157864D01*
X614003Y157894D01*
X613934Y157915D01*
X613869Y157946D01*
X613817Y157951D01*
X613767Y157967D01*
X613696Y157965D01*
X613625Y157973D01*
X613574Y157962D01*
X613522Y157960D01*
X613454Y157936D01*
X613384Y157920D01*
X613339Y157894D01*
X613291Y157876D01*
X613235Y157831D01*
X613173Y157794D01*
X613139Y157755D01*
X613099Y157722D01*
X613060Y157662D01*
X613013Y157607D01*
X612994Y157559D01*
X612966Y157515D01*
X612948Y157446D01*
X612921Y157379D01*
X612913Y157308D01*
X612905Y157277D01*
X612907Y157253D01*
X612903Y157212D01*
X612903Y144065D01*
X612917Y143975D01*
X612925Y143884D01*
X612937Y143854D01*
X612942Y143822D01*
X612985Y143742D01*
X613021Y143658D01*
X613047Y143626D01*
X613058Y143605D01*
X613081Y143583D01*
X613126Y143527D01*
X615694Y140959D01*
X615752Y140917D01*
X615804Y140867D01*
X615851Y140846D01*
X615893Y140815D01*
X615962Y140794D01*
X616027Y140764D01*
X616079Y140758D01*
X616129Y140743D01*
X616200Y140745D01*
X616271Y140737D01*
X616322Y140748D01*
X616374Y140749D01*
X616442Y140774D01*
X616512Y140789D01*
X616557Y140816D01*
X616605Y140834D01*
X616661Y140878D01*
X616723Y140915D01*
X616757Y140955D01*
X616797Y140987D01*
X616836Y141048D01*
X616883Y141102D01*
X616902Y141150D01*
X616930Y141194D01*
X616948Y141264D01*
X616975Y141330D01*
X616983Y141402D01*
X616991Y141433D01*
X616989Y141456D01*
X616993Y141497D01*
X616993Y141898D01*
X620102Y145007D01*
X622261Y145007D01*
X622352Y145021D01*
X622442Y145029D01*
X622472Y145041D01*
X622504Y145046D01*
X622585Y145089D01*
X622669Y145125D01*
X622701Y145151D01*
X622722Y145162D01*
X622744Y145185D01*
X622800Y145230D01*
X637507Y159937D01*
X637575Y160031D01*
X637645Y160126D01*
X637647Y160132D01*
X637651Y160137D01*
X637685Y160248D01*
X637721Y160360D01*
X637721Y160366D01*
X637723Y160372D01*
X637720Y160489D01*
X637719Y160606D01*
X637717Y160613D01*
X637717Y160618D01*
X637710Y160635D01*
X637672Y160767D01*
X636777Y162927D01*
X636777Y167273D01*
X638440Y171287D01*
X641513Y174360D01*
X645527Y176023D01*
X649873Y176023D01*
X653887Y174360D01*
X656960Y171287D01*
X658623Y167273D01*
X658623Y162927D01*
X656960Y158913D01*
X653887Y155840D01*
X651219Y154735D01*
X651119Y154673D01*
X651063Y154643D01*
X651055Y154635D01*
X651019Y154613D01*
X651015Y154608D01*
X651010Y154605D01*
X650935Y154516D01*
X650859Y154426D01*
X650857Y154420D01*
X650853Y154416D01*
X650811Y154307D01*
X650767Y154198D01*
X650766Y154191D01*
X650765Y154186D01*
X650764Y154168D01*
X650749Y154031D01*
X650749Y150778D01*
X650763Y150688D01*
X650771Y150597D01*
X650783Y150567D01*
X650788Y150535D01*
X650831Y150455D01*
X650867Y150371D01*
X650893Y150339D01*
X650904Y150318D01*
X650927Y150296D01*
X650972Y150240D01*
X669164Y132048D01*
X669238Y131995D01*
X669307Y131935D01*
X669337Y131923D01*
X669364Y131904D01*
X669451Y131877D01*
X669535Y131843D01*
X669576Y131839D01*
X669599Y131832D01*
X669631Y131833D01*
X669702Y131825D01*
X681232Y131825D01*
X682125Y130932D01*
X682125Y129210D01*
X682128Y129190D01*
X682126Y129171D01*
X682148Y129069D01*
X682164Y128967D01*
X682174Y128950D01*
X682178Y128930D01*
X682231Y128841D01*
X682280Y128750D01*
X682294Y128736D01*
X682304Y128719D01*
X682383Y128652D01*
X682458Y128580D01*
X682476Y128572D01*
X682491Y128559D01*
X682587Y128520D01*
X682681Y128477D01*
X682701Y128475D01*
X682719Y128467D01*
X682886Y128449D01*
X714114Y128449D01*
X714134Y128452D01*
X714153Y128450D01*
X714255Y128472D01*
X714357Y128488D01*
X714374Y128498D01*
X714394Y128502D01*
X714483Y128555D01*
X714574Y128604D01*
X714588Y128618D01*
X714605Y128628D01*
X714672Y128707D01*
X714744Y128782D01*
X714752Y128800D01*
X714765Y128815D01*
X714804Y128911D01*
X714847Y129005D01*
X714849Y129025D01*
X714857Y129043D01*
X714875Y129210D01*
X714875Y130932D01*
X715768Y131825D01*
X732032Y131825D01*
X732925Y130932D01*
X732925Y122602D01*
X732939Y122512D01*
X732947Y122421D01*
X732959Y122391D01*
X732964Y122359D01*
X733007Y122279D01*
X733043Y122195D01*
X733069Y122163D01*
X733080Y122142D01*
X733103Y122120D01*
X733148Y122064D01*
X737640Y117572D01*
X739649Y115563D01*
X739649Y74937D01*
X727172Y62460D01*
X727129Y62401D01*
X727084Y62354D01*
X727077Y62337D01*
X727059Y62317D01*
X727047Y62287D01*
X727028Y62260D01*
X727003Y62179D01*
X726981Y62131D01*
X726979Y62119D01*
X726967Y62089D01*
X726963Y62048D01*
X726956Y62025D01*
X726957Y61993D01*
X726949Y61922D01*
X726949Y56386D01*
X726952Y56366D01*
X726950Y56347D01*
X726972Y56245D01*
X726988Y56143D01*
X726998Y56126D01*
X727002Y56106D01*
X727055Y56017D01*
X727104Y55926D01*
X727118Y55912D01*
X727128Y55895D01*
X727207Y55828D01*
X727282Y55756D01*
X727300Y55748D01*
X727315Y55735D01*
X727411Y55696D01*
X727505Y55653D01*
X727525Y55651D01*
X727543Y55643D01*
X727710Y55625D01*
X732032Y55625D01*
X732925Y54732D01*
X732925Y40468D01*
X732032Y39575D01*
X715768Y39575D01*
X714875Y40468D01*
X714875Y43790D01*
X714872Y43810D01*
X714874Y43829D01*
X714852Y43931D01*
X714836Y44033D01*
X714826Y44050D01*
X714822Y44070D01*
X714769Y44159D01*
X714720Y44250D01*
X714706Y44264D01*
X714696Y44281D01*
X714617Y44348D01*
X714542Y44420D01*
X714524Y44428D01*
X714509Y44441D01*
X714413Y44480D01*
X714319Y44523D01*
X714299Y44525D01*
X714281Y44533D01*
X714114Y44551D01*
X682886Y44551D01*
X682866Y44548D01*
X682847Y44550D01*
X682745Y44528D01*
X682643Y44512D01*
X682626Y44502D01*
X682606Y44498D01*
X682517Y44445D01*
X682426Y44396D01*
X682412Y44382D01*
X682395Y44372D01*
X682328Y44293D01*
X682256Y44218D01*
X682248Y44200D01*
X682235Y44185D01*
X682196Y44089D01*
X682153Y43995D01*
X682151Y43975D01*
X682143Y43957D01*
X682125Y43790D01*
X682125Y40468D01*
X681232Y39575D01*
X664968Y39575D01*
X664075Y40468D01*
X664075Y54732D01*
X664968Y55625D01*
X681232Y55625D01*
X682125Y54732D01*
X682125Y51410D01*
X682128Y51390D01*
X682126Y51371D01*
X682148Y51269D01*
X682164Y51167D01*
X682174Y51150D01*
X682178Y51130D01*
X682231Y51041D01*
X682280Y50950D01*
X682294Y50936D01*
X682304Y50919D01*
X682383Y50852D01*
X682458Y50780D01*
X682476Y50772D01*
X682491Y50759D01*
X682587Y50720D01*
X682681Y50677D01*
X682701Y50675D01*
X682719Y50667D01*
X682886Y50649D01*
X714114Y50649D01*
X714134Y50652D01*
X714153Y50650D01*
X714255Y50672D01*
X714357Y50688D01*
X714374Y50698D01*
X714394Y50702D01*
X714483Y50755D01*
X714574Y50804D01*
X714588Y50818D01*
X714605Y50828D01*
X714672Y50907D01*
X714744Y50982D01*
X714752Y51000D01*
X714765Y51015D01*
X714804Y51111D01*
X714847Y51205D01*
X714849Y51225D01*
X714857Y51243D01*
X714875Y51410D01*
X714875Y54732D01*
X715768Y55625D01*
X720090Y55625D01*
X720110Y55628D01*
X720129Y55626D01*
X720231Y55648D01*
X720333Y55664D01*
X720350Y55674D01*
X720370Y55678D01*
X720459Y55731D01*
X720550Y55780D01*
X720564Y55794D01*
X720581Y55804D01*
X720648Y55883D01*
X720720Y55958D01*
X720728Y55976D01*
X720741Y55991D01*
X720780Y56087D01*
X720823Y56181D01*
X720825Y56201D01*
X720833Y56219D01*
X720851Y56386D01*
X720851Y64763D01*
X733328Y77240D01*
X733381Y77314D01*
X733441Y77383D01*
X733453Y77413D01*
X733472Y77440D01*
X733499Y77527D01*
X733533Y77611D01*
X733537Y77652D01*
X733544Y77675D01*
X733543Y77707D01*
X733551Y77778D01*
X733551Y96457D01*
X733540Y96528D01*
X733538Y96600D01*
X733520Y96649D01*
X733512Y96700D01*
X733478Y96763D01*
X733453Y96831D01*
X733421Y96871D01*
X733396Y96917D01*
X733345Y96967D01*
X733300Y97023D01*
X733256Y97051D01*
X733218Y97087D01*
X733153Y97117D01*
X733093Y97156D01*
X733042Y97168D01*
X732995Y97190D01*
X732924Y97198D01*
X732854Y97216D01*
X732802Y97212D01*
X732751Y97217D01*
X732680Y97202D01*
X732609Y97197D01*
X732561Y97176D01*
X732510Y97165D01*
X732449Y97128D01*
X732383Y97100D01*
X732327Y97055D01*
X732299Y97039D01*
X732284Y97021D01*
X732252Y96995D01*
X732032Y96775D01*
X715768Y96775D01*
X714875Y97668D01*
X714875Y100990D01*
X714872Y101010D01*
X714874Y101029D01*
X714852Y101131D01*
X714836Y101233D01*
X714826Y101250D01*
X714822Y101270D01*
X714769Y101359D01*
X714720Y101450D01*
X714706Y101464D01*
X714696Y101481D01*
X714617Y101548D01*
X714542Y101620D01*
X714524Y101628D01*
X714509Y101641D01*
X714413Y101680D01*
X714319Y101723D01*
X714299Y101725D01*
X714281Y101733D01*
X714114Y101751D01*
X682886Y101751D01*
X682866Y101748D01*
X682847Y101750D01*
X682745Y101728D01*
X682643Y101712D01*
X682626Y101702D01*
X682606Y101698D01*
X682517Y101645D01*
X682426Y101596D01*
X682412Y101582D01*
X682395Y101572D01*
X682328Y101493D01*
X682256Y101418D01*
X682248Y101400D01*
X682235Y101385D01*
X682196Y101289D01*
X682153Y101195D01*
X682151Y101175D01*
X682143Y101157D01*
X682125Y100990D01*
X682125Y97668D01*
X681232Y96775D01*
X664968Y96775D01*
X664075Y97668D01*
X664075Y100990D01*
X664072Y101010D01*
X664074Y101029D01*
X664052Y101131D01*
X664036Y101233D01*
X664026Y101250D01*
X664022Y101270D01*
X663969Y101359D01*
X663920Y101450D01*
X663906Y101464D01*
X663896Y101481D01*
X663817Y101548D01*
X663742Y101620D01*
X663724Y101628D01*
X663709Y101641D01*
X663613Y101680D01*
X663519Y101723D01*
X663499Y101725D01*
X663481Y101733D01*
X663314Y101751D01*
X640951Y101751D01*
X632944Y109758D01*
X632870Y109811D01*
X632801Y109871D01*
X632771Y109883D01*
X632744Y109902D01*
X632657Y109929D01*
X632573Y109963D01*
X632532Y109967D01*
X632509Y109974D01*
X632477Y109973D01*
X632406Y109981D01*
X629728Y109981D01*
X629657Y109970D01*
X629585Y109968D01*
X629536Y109950D01*
X629485Y109942D01*
X629422Y109908D01*
X629354Y109883D01*
X629314Y109851D01*
X629267Y109826D01*
X629218Y109774D01*
X629162Y109730D01*
X629134Y109686D01*
X629098Y109648D01*
X629068Y109583D01*
X629029Y109523D01*
X629016Y109472D01*
X628994Y109425D01*
X628987Y109354D01*
X628969Y109284D01*
X628973Y109232D01*
X628967Y109181D01*
X628983Y109110D01*
X628988Y109039D01*
X629009Y108991D01*
X629020Y108940D01*
X629056Y108879D01*
X629085Y108813D01*
X629129Y108757D01*
X629146Y108729D01*
X629164Y108714D01*
X629189Y108682D01*
X635763Y102108D01*
X635763Y43180D01*
X635766Y43160D01*
X635764Y43141D01*
X635786Y43039D01*
X635802Y42937D01*
X635812Y42920D01*
X635816Y42900D01*
X635869Y42811D01*
X635918Y42720D01*
X635932Y42706D01*
X635942Y42689D01*
X636021Y42622D01*
X636096Y42550D01*
X636114Y42542D01*
X636129Y42529D01*
X636225Y42490D01*
X636319Y42447D01*
X636339Y42445D01*
X636357Y42437D01*
X636524Y42419D01*
X639696Y42419D01*
X640589Y41526D01*
X640589Y34852D01*
X640603Y34762D01*
X640611Y34671D01*
X640623Y34641D01*
X640628Y34609D01*
X640671Y34529D01*
X640707Y34445D01*
X640733Y34413D01*
X640744Y34392D01*
X640767Y34370D01*
X640812Y34314D01*
X643254Y31872D01*
X643328Y31819D01*
X643397Y31759D01*
X643427Y31747D01*
X643454Y31728D01*
X643541Y31701D01*
X643625Y31667D01*
X643666Y31663D01*
X643689Y31656D01*
X643721Y31657D01*
X643792Y31649D01*
X663314Y31649D01*
X663334Y31652D01*
X663353Y31650D01*
X663455Y31672D01*
X663557Y31688D01*
X663574Y31698D01*
X663594Y31702D01*
X663683Y31755D01*
X663774Y31804D01*
X663788Y31818D01*
X663805Y31828D01*
X663872Y31907D01*
X663944Y31982D01*
X663952Y32000D01*
X663965Y32015D01*
X664004Y32111D01*
X664047Y32205D01*
X664049Y32225D01*
X664057Y32243D01*
X664075Y32410D01*
X664075Y35732D01*
X664968Y36625D01*
X681232Y36625D01*
X682125Y35732D01*
X682125Y32410D01*
X682128Y32390D01*
X682126Y32371D01*
X682148Y32269D01*
X682164Y32167D01*
X682174Y32150D01*
X682178Y32130D01*
X682231Y32041D01*
X682280Y31950D01*
X682294Y31936D01*
X682304Y31919D01*
X682383Y31852D01*
X682458Y31780D01*
X682476Y31772D01*
X682491Y31759D01*
X682587Y31720D01*
X682681Y31677D01*
X682701Y31675D01*
X682719Y31667D01*
X682886Y31649D01*
X714114Y31649D01*
X714134Y31652D01*
X714153Y31650D01*
X714255Y31672D01*
X714357Y31688D01*
X714374Y31698D01*
X714394Y31702D01*
X714483Y31755D01*
X714574Y31804D01*
X714588Y31818D01*
X714605Y31828D01*
X714672Y31907D01*
X714744Y31982D01*
X714752Y32000D01*
X714765Y32015D01*
X714804Y32111D01*
X714847Y32205D01*
X714849Y32225D01*
X714857Y32243D01*
X714875Y32410D01*
X714875Y35732D01*
X715768Y36625D01*
X732032Y36625D01*
X732925Y35732D01*
X732925Y21468D01*
X732032Y20575D01*
X715768Y20575D01*
X714875Y21468D01*
X714875Y24790D01*
X714872Y24810D01*
X714874Y24829D01*
X714852Y24931D01*
X714836Y25033D01*
X714826Y25050D01*
X714822Y25070D01*
X714769Y25159D01*
X714720Y25250D01*
X714706Y25264D01*
X714696Y25281D01*
X714617Y25348D01*
X714542Y25420D01*
X714524Y25428D01*
X714509Y25441D01*
X714413Y25480D01*
X714319Y25523D01*
X714299Y25525D01*
X714281Y25533D01*
X714114Y25551D01*
X682886Y25551D01*
X682866Y25548D01*
X682847Y25550D01*
X682745Y25528D01*
X682643Y25512D01*
X682626Y25502D01*
X682606Y25498D01*
X682517Y25445D01*
X682426Y25396D01*
X682412Y25382D01*
X682395Y25372D01*
X682328Y25293D01*
X682256Y25218D01*
X682248Y25200D01*
X682235Y25185D01*
X682196Y25089D01*
X682153Y24995D01*
X682151Y24975D01*
X682143Y24957D01*
X682125Y24790D01*
X682125Y21468D01*
X681232Y20575D01*
X664968Y20575D01*
X664075Y21468D01*
X664075Y24790D01*
X664072Y24810D01*
X664074Y24829D01*
X664052Y24931D01*
X664036Y25033D01*
X664026Y25050D01*
X664022Y25070D01*
X663969Y25159D01*
X663920Y25250D01*
X663906Y25264D01*
X663896Y25281D01*
X663817Y25348D01*
X663742Y25420D01*
X663724Y25428D01*
X663709Y25441D01*
X663613Y25480D01*
X663519Y25523D01*
X663499Y25525D01*
X663481Y25533D01*
X663314Y25551D01*
X640951Y25551D01*
X638942Y27560D01*
X632944Y33558D01*
X632870Y33611D01*
X632801Y33671D01*
X632771Y33683D01*
X632744Y33702D01*
X632657Y33729D01*
X632573Y33763D01*
X632532Y33767D01*
X632509Y33774D01*
X632477Y33773D01*
X632406Y33781D01*
X625732Y33781D01*
X624839Y34674D01*
X624839Y41526D01*
X625732Y42419D01*
X628904Y42419D01*
X628924Y42422D01*
X628943Y42420D01*
X629045Y42442D01*
X629147Y42458D01*
X629164Y42468D01*
X629184Y42472D01*
X629273Y42525D01*
X629364Y42574D01*
X629378Y42588D01*
X629395Y42598D01*
X629462Y42677D01*
X629534Y42752D01*
X629542Y42770D01*
X629555Y42785D01*
X629594Y42881D01*
X629637Y42975D01*
X629639Y42995D01*
X629647Y43013D01*
X629665Y43180D01*
X629665Y99267D01*
X629651Y99357D01*
X629643Y99448D01*
X629631Y99478D01*
X629626Y99510D01*
X629583Y99591D01*
X629547Y99675D01*
X629521Y99707D01*
X629510Y99727D01*
X629487Y99750D01*
X629442Y99806D01*
X622276Y106972D01*
X621060Y108188D01*
X621002Y108230D01*
X620950Y108279D01*
X620903Y108301D01*
X620861Y108331D01*
X620792Y108352D01*
X620727Y108383D01*
X620675Y108388D01*
X620625Y108404D01*
X620554Y108402D01*
X620483Y108410D01*
X620432Y108399D01*
X620380Y108397D01*
X620312Y108373D01*
X620242Y108357D01*
X620197Y108331D01*
X620149Y108313D01*
X620093Y108268D01*
X620031Y108231D01*
X619997Y108192D01*
X619957Y108159D01*
X619918Y108099D01*
X619871Y108044D01*
X619852Y107996D01*
X619824Y107952D01*
X619806Y107883D01*
X619779Y107816D01*
X619771Y107745D01*
X619763Y107714D01*
X619765Y107690D01*
X619761Y107649D01*
X619761Y101349D01*
X618868Y100456D01*
X604904Y100456D01*
X603832Y101528D01*
X603758Y101581D01*
X603689Y101641D01*
X603659Y101653D01*
X603633Y101672D01*
X603546Y101699D01*
X603461Y101733D01*
X603420Y101737D01*
X603398Y101744D01*
X603365Y101743D01*
X603294Y101751D01*
X581286Y101751D01*
X581266Y101748D01*
X581247Y101750D01*
X581145Y101728D01*
X581043Y101712D01*
X581026Y101702D01*
X581006Y101698D01*
X580917Y101645D01*
X580826Y101596D01*
X580812Y101582D01*
X580795Y101572D01*
X580728Y101493D01*
X580656Y101418D01*
X580648Y101400D01*
X580635Y101385D01*
X580596Y101289D01*
X580553Y101195D01*
X580551Y101175D01*
X580543Y101157D01*
X580525Y100990D01*
X580525Y97668D01*
X579632Y96775D01*
X563368Y96775D01*
X562475Y97668D01*
X562475Y108442D01*
X562472Y108462D01*
X562474Y108481D01*
X562452Y108583D01*
X562436Y108685D01*
X562426Y108702D01*
X562422Y108722D01*
X562369Y108811D01*
X562320Y108902D01*
X562306Y108916D01*
X562296Y108933D01*
X562217Y109000D01*
X562142Y109072D01*
X562124Y109080D01*
X562109Y109093D01*
X562013Y109132D01*
X561919Y109175D01*
X561899Y109177D01*
X561881Y109185D01*
X561714Y109203D01*
X418491Y109203D01*
X418420Y109192D01*
X418348Y109190D01*
X418299Y109172D01*
X418248Y109164D01*
X418185Y109130D01*
X418117Y109105D01*
X418077Y109073D01*
X418031Y109048D01*
X417981Y108997D01*
X417925Y108952D01*
X417897Y108908D01*
X417861Y108870D01*
X417831Y108805D01*
X417792Y108745D01*
X417780Y108694D01*
X417758Y108647D01*
X417750Y108576D01*
X417732Y108506D01*
X417736Y108454D01*
X417731Y108403D01*
X417746Y108332D01*
X417751Y108261D01*
X417772Y108213D01*
X417783Y108162D01*
X417820Y108101D01*
X417848Y108035D01*
X417893Y107979D01*
X417909Y107951D01*
X417925Y107938D01*
X417925Y94668D01*
X417032Y93775D01*
X395768Y93775D01*
X394875Y94668D01*
X394875Y107942D01*
X394889Y107962D01*
X394939Y108014D01*
X394961Y108061D01*
X394991Y108103D01*
X395012Y108172D01*
X395042Y108237D01*
X395048Y108289D01*
X395063Y108338D01*
X395061Y108410D01*
X395069Y108481D01*
X395058Y108532D01*
X395057Y108584D01*
X395032Y108652D01*
X395017Y108722D01*
X394990Y108767D01*
X394973Y108815D01*
X394928Y108871D01*
X394891Y108933D01*
X394851Y108967D01*
X394819Y109007D01*
X394759Y109046D01*
X394704Y109093D01*
X394656Y109112D01*
X394612Y109140D01*
X394542Y109158D01*
X394476Y109185D01*
X394405Y109193D01*
X394373Y109201D01*
X394350Y109199D01*
X394309Y109203D01*
X370801Y109203D01*
X370731Y109192D01*
X370659Y109190D01*
X370610Y109172D01*
X370559Y109164D01*
X370495Y109130D01*
X370428Y109105D01*
X370387Y109073D01*
X370341Y109048D01*
X370292Y108997D01*
X370236Y108952D01*
X370208Y108908D01*
X370172Y108870D01*
X370142Y108805D01*
X370103Y108745D01*
X370090Y108694D01*
X370068Y108647D01*
X370060Y108576D01*
X370043Y108506D01*
X370047Y108454D01*
X370041Y108403D01*
X370056Y108332D01*
X370062Y108261D01*
X370082Y108213D01*
X370093Y108162D01*
X370130Y108101D01*
X370158Y108035D01*
X370203Y107979D01*
X370220Y107951D01*
X370237Y107936D01*
X370263Y107904D01*
X393576Y84591D01*
X393634Y84549D01*
X393686Y84500D01*
X393733Y84478D01*
X393775Y84448D01*
X393844Y84427D01*
X393909Y84396D01*
X393961Y84391D01*
X394011Y84375D01*
X394082Y84377D01*
X394153Y84369D01*
X394204Y84380D01*
X394256Y84382D01*
X394324Y84406D01*
X394394Y84421D01*
X394438Y84448D01*
X394487Y84466D01*
X394543Y84511D01*
X394605Y84548D01*
X394639Y84587D01*
X394679Y84620D01*
X394718Y84680D01*
X394765Y84735D01*
X394784Y84783D01*
X394812Y84827D01*
X394830Y84896D01*
X394857Y84963D01*
X394865Y85034D01*
X394873Y85065D01*
X394871Y85088D01*
X394875Y85129D01*
X394875Y87932D01*
X395768Y88825D01*
X417032Y88825D01*
X417925Y87932D01*
X417925Y85110D01*
X417928Y85090D01*
X417926Y85071D01*
X417948Y84969D01*
X417964Y84867D01*
X417974Y84850D01*
X417978Y84830D01*
X418031Y84741D01*
X418080Y84650D01*
X418094Y84636D01*
X418104Y84619D01*
X418183Y84552D01*
X418258Y84480D01*
X418276Y84472D01*
X418291Y84459D01*
X418387Y84420D01*
X418481Y84377D01*
X418501Y84375D01*
X418519Y84367D01*
X418686Y84349D01*
X451222Y84349D01*
X451312Y84363D01*
X451403Y84371D01*
X451433Y84383D01*
X451465Y84388D01*
X451545Y84431D01*
X451629Y84467D01*
X451661Y84493D01*
X451682Y84504D01*
X451704Y84527D01*
X451760Y84572D01*
X452152Y84964D01*
X452205Y85038D01*
X452265Y85107D01*
X452277Y85137D01*
X452296Y85164D01*
X452323Y85251D01*
X452357Y85335D01*
X452361Y85376D01*
X452368Y85399D01*
X452367Y85431D01*
X452375Y85502D01*
X452375Y97032D01*
X453268Y97925D01*
X467532Y97925D01*
X468425Y97032D01*
X468425Y80768D01*
X467532Y79875D01*
X456002Y79875D01*
X455912Y79861D01*
X455821Y79853D01*
X455791Y79841D01*
X455759Y79836D01*
X455679Y79793D01*
X455595Y79757D01*
X455563Y79731D01*
X455542Y79720D01*
X455520Y79697D01*
X455464Y79652D01*
X454063Y78251D01*
X418686Y78251D01*
X418666Y78248D01*
X418647Y78250D01*
X418545Y78228D01*
X418443Y78212D01*
X418426Y78202D01*
X418406Y78198D01*
X418317Y78145D01*
X418226Y78096D01*
X418212Y78082D01*
X418195Y78072D01*
X418128Y77993D01*
X418056Y77918D01*
X418048Y77900D01*
X418035Y77885D01*
X417996Y77789D01*
X417953Y77695D01*
X417951Y77675D01*
X417943Y77657D01*
X417925Y77490D01*
X417925Y74668D01*
X417032Y73775D01*
X414974Y73775D01*
X414903Y73764D01*
X414832Y73762D01*
X414783Y73744D01*
X414731Y73736D01*
X414668Y73702D01*
X414601Y73677D01*
X414560Y73645D01*
X414514Y73620D01*
X414465Y73568D01*
X414409Y73524D01*
X414380Y73480D01*
X414345Y73442D01*
X414314Y73377D01*
X414276Y73317D01*
X414263Y73266D01*
X414241Y73219D01*
X414233Y73148D01*
X414216Y73078D01*
X414220Y73026D01*
X414214Y72975D01*
X414229Y72904D01*
X414235Y72833D01*
X414255Y72785D01*
X414266Y72734D01*
X414303Y72673D01*
X414331Y72607D01*
X414376Y72551D01*
X414392Y72523D01*
X414410Y72508D01*
X414436Y72476D01*
X424301Y62611D01*
X424301Y56386D01*
X424304Y56366D01*
X424302Y56347D01*
X424324Y56245D01*
X424340Y56143D01*
X424350Y56126D01*
X424354Y56106D01*
X424407Y56017D01*
X424456Y55926D01*
X424470Y55912D01*
X424480Y55895D01*
X424559Y55828D01*
X424634Y55756D01*
X424652Y55748D01*
X424667Y55735D01*
X424763Y55696D01*
X424857Y55653D01*
X424877Y55651D01*
X424895Y55643D01*
X425062Y55625D01*
X431606Y55625D01*
X431696Y55639D01*
X431787Y55647D01*
X431817Y55659D01*
X431848Y55664D01*
X431929Y55707D01*
X432013Y55743D01*
X432045Y55769D01*
X432066Y55780D01*
X432088Y55803D01*
X432144Y55848D01*
X444788Y68492D01*
X446842Y69343D01*
X468274Y69343D01*
X468294Y69346D01*
X468313Y69344D01*
X468415Y69366D01*
X468517Y69382D01*
X468534Y69392D01*
X468554Y69396D01*
X468643Y69449D01*
X468734Y69498D01*
X468748Y69512D01*
X468765Y69522D01*
X468832Y69601D01*
X468904Y69676D01*
X468912Y69694D01*
X468925Y69709D01*
X468964Y69805D01*
X469007Y69899D01*
X469009Y69919D01*
X469017Y69937D01*
X469035Y70104D01*
X469035Y70990D01*
X469928Y71883D01*
X473010Y71883D01*
X473100Y71897D01*
X473191Y71905D01*
X473221Y71917D01*
X473252Y71922D01*
X473333Y71965D01*
X473417Y72001D01*
X473449Y72027D01*
X473470Y72038D01*
X473492Y72061D01*
X473548Y72106D01*
X473588Y72146D01*
X473636Y72213D01*
X473639Y72216D01*
X473640Y72219D01*
X473641Y72220D01*
X473701Y72289D01*
X473713Y72320D01*
X473732Y72346D01*
X473759Y72433D01*
X473793Y72518D01*
X473797Y72558D01*
X473804Y72581D01*
X473803Y72613D01*
X473811Y72684D01*
X473811Y79114D01*
X473808Y79134D01*
X473810Y79153D01*
X473788Y79255D01*
X473772Y79357D01*
X473762Y79374D01*
X473758Y79394D01*
X473705Y79483D01*
X473656Y79574D01*
X473642Y79588D01*
X473632Y79605D01*
X473553Y79672D01*
X473478Y79744D01*
X473460Y79752D01*
X473445Y79765D01*
X473349Y79804D01*
X473255Y79847D01*
X473235Y79849D01*
X473217Y79857D01*
X473050Y79875D01*
X472268Y79875D01*
X471375Y80768D01*
X471375Y97032D01*
X472268Y97925D01*
X486532Y97925D01*
X487425Y97032D01*
X487425Y95250D01*
X487428Y95230D01*
X487426Y95211D01*
X487448Y95109D01*
X487464Y95007D01*
X487474Y94990D01*
X487478Y94970D01*
X487531Y94881D01*
X487580Y94790D01*
X487594Y94776D01*
X487604Y94759D01*
X487683Y94692D01*
X487758Y94620D01*
X487776Y94612D01*
X487791Y94599D01*
X487887Y94560D01*
X487981Y94517D01*
X488001Y94515D01*
X488019Y94507D01*
X488186Y94489D01*
X509112Y94489D01*
X509653Y94265D01*
X509716Y94250D01*
X509777Y94225D01*
X509860Y94216D01*
X509892Y94209D01*
X509911Y94210D01*
X509944Y94207D01*
X510198Y94207D01*
X510378Y94027D01*
X510431Y93989D01*
X510478Y93943D01*
X510551Y93903D01*
X510578Y93883D01*
X510596Y93878D01*
X510625Y93862D01*
X511166Y93638D01*
X512632Y92172D01*
X512706Y92119D01*
X512775Y92059D01*
X512806Y92047D01*
X512832Y92028D01*
X512919Y92001D01*
X513004Y91967D01*
X513044Y91963D01*
X513067Y91956D01*
X513099Y91957D01*
X513170Y91949D01*
X534663Y91949D01*
X536672Y89940D01*
X570764Y55848D01*
X570838Y55795D01*
X570907Y55735D01*
X570937Y55723D01*
X570964Y55704D01*
X571051Y55677D01*
X571135Y55643D01*
X571176Y55639D01*
X571199Y55632D01*
X571231Y55633D01*
X571302Y55625D01*
X579632Y55625D01*
X580525Y54732D01*
X580525Y51410D01*
X580528Y51390D01*
X580526Y51371D01*
X580548Y51269D01*
X580564Y51167D01*
X580574Y51150D01*
X580578Y51130D01*
X580631Y51041D01*
X580680Y50950D01*
X580694Y50936D01*
X580704Y50919D01*
X580783Y50852D01*
X580858Y50780D01*
X580876Y50772D01*
X580891Y50759D01*
X580987Y50720D01*
X581081Y50677D01*
X581101Y50675D01*
X581119Y50667D01*
X581286Y50649D01*
X603294Y50649D01*
X603384Y50663D01*
X603475Y50671D01*
X603505Y50683D01*
X603537Y50688D01*
X603618Y50731D01*
X603701Y50767D01*
X603734Y50793D01*
X603754Y50804D01*
X603776Y50827D01*
X603832Y50872D01*
X604904Y51944D01*
X618868Y51944D01*
X619761Y51051D01*
X619761Y44199D01*
X618868Y43306D01*
X604904Y43306D01*
X603882Y44328D01*
X603808Y44381D01*
X603739Y44441D01*
X603709Y44453D01*
X603683Y44472D01*
X603596Y44499D01*
X603511Y44533D01*
X603470Y44537D01*
X603448Y44544D01*
X603415Y44543D01*
X603344Y44551D01*
X581286Y44551D01*
X581266Y44548D01*
X581247Y44550D01*
X581145Y44528D01*
X581043Y44512D01*
X581026Y44502D01*
X581006Y44498D01*
X580917Y44445D01*
X580826Y44396D01*
X580812Y44382D01*
X580795Y44372D01*
X580728Y44293D01*
X580656Y44218D01*
X580648Y44200D01*
X580635Y44185D01*
X580596Y44089D01*
X580553Y43995D01*
X580551Y43975D01*
X580543Y43957D01*
X580525Y43790D01*
X580525Y40468D01*
X579632Y39575D01*
X563368Y39575D01*
X562475Y40468D01*
X562475Y54797D01*
X562477Y54803D01*
X562488Y54820D01*
X562513Y54920D01*
X562544Y55019D01*
X562543Y55039D01*
X562548Y55058D01*
X562540Y55161D01*
X562537Y55265D01*
X562530Y55283D01*
X562529Y55303D01*
X562489Y55398D01*
X562453Y55496D01*
X562440Y55511D01*
X562433Y55530D01*
X562328Y55661D01*
X532360Y85628D01*
X532286Y85681D01*
X532217Y85741D01*
X532187Y85753D01*
X532160Y85772D01*
X532073Y85799D01*
X531989Y85833D01*
X531948Y85837D01*
X531925Y85844D01*
X531893Y85843D01*
X531822Y85851D01*
X513170Y85851D01*
X513080Y85837D01*
X512989Y85829D01*
X512959Y85817D01*
X512928Y85812D01*
X512847Y85769D01*
X512763Y85733D01*
X512731Y85707D01*
X512710Y85696D01*
X512688Y85673D01*
X512632Y85628D01*
X511166Y84162D01*
X510625Y83938D01*
X510569Y83903D01*
X510509Y83878D01*
X510471Y83847D01*
X510470Y83847D01*
X510444Y83826D01*
X510416Y83808D01*
X510403Y83793D01*
X510378Y83773D01*
X510198Y83593D01*
X509944Y83593D01*
X509879Y83583D01*
X509814Y83582D01*
X509734Y83559D01*
X509701Y83554D01*
X509684Y83544D01*
X509653Y83535D01*
X509112Y83311D01*
X488186Y83311D01*
X488166Y83308D01*
X488147Y83310D01*
X488045Y83288D01*
X487943Y83272D01*
X487926Y83262D01*
X487906Y83258D01*
X487817Y83205D01*
X487726Y83156D01*
X487712Y83142D01*
X487695Y83132D01*
X487628Y83053D01*
X487556Y82978D01*
X487548Y82960D01*
X487535Y82945D01*
X487496Y82849D01*
X487453Y82755D01*
X487451Y82735D01*
X487443Y82717D01*
X487425Y82550D01*
X487425Y80768D01*
X486532Y79875D01*
X485750Y79875D01*
X485730Y79872D01*
X485711Y79874D01*
X485609Y79852D01*
X485507Y79836D01*
X485490Y79826D01*
X485470Y79822D01*
X485381Y79769D01*
X485290Y79720D01*
X485276Y79706D01*
X485259Y79696D01*
X485192Y79617D01*
X485120Y79542D01*
X485112Y79524D01*
X485099Y79509D01*
X485060Y79413D01*
X485017Y79319D01*
X485015Y79299D01*
X485007Y79281D01*
X484989Y79114D01*
X484989Y68942D01*
X484138Y66888D01*
X477388Y60138D01*
X477339Y60071D01*
X477339Y60070D01*
X477338Y60070D01*
X477335Y60064D01*
X477275Y59995D01*
X477263Y59964D01*
X477244Y59938D01*
X477217Y59851D01*
X477183Y59766D01*
X477179Y59726D01*
X477172Y59703D01*
X477173Y59671D01*
X477165Y59600D01*
X477165Y56518D01*
X476272Y55625D01*
X469928Y55625D01*
X469035Y56518D01*
X469035Y57404D01*
X469032Y57424D01*
X469034Y57443D01*
X469012Y57545D01*
X468996Y57647D01*
X468986Y57664D01*
X468982Y57684D01*
X468929Y57773D01*
X468880Y57864D01*
X468866Y57878D01*
X468856Y57895D01*
X468777Y57962D01*
X468702Y58034D01*
X468684Y58042D01*
X468669Y58055D01*
X468573Y58094D01*
X468479Y58137D01*
X468459Y58139D01*
X468441Y58147D01*
X468274Y58165D01*
X450584Y58165D01*
X450494Y58151D01*
X450403Y58143D01*
X450373Y58131D01*
X450342Y58126D01*
X450261Y58083D01*
X450177Y58047D01*
X450145Y58021D01*
X450124Y58010D01*
X450102Y57987D01*
X450046Y57942D01*
X441048Y48944D01*
X440995Y48870D01*
X440935Y48801D01*
X440923Y48770D01*
X440904Y48744D01*
X440877Y48657D01*
X440843Y48572D01*
X440839Y48532D01*
X440832Y48509D01*
X440833Y48477D01*
X440825Y48406D01*
X440825Y40468D01*
X439932Y39575D01*
X425062Y39575D01*
X425042Y39572D01*
X425023Y39574D01*
X424921Y39552D01*
X424819Y39536D01*
X424802Y39526D01*
X424782Y39522D01*
X424693Y39469D01*
X424602Y39420D01*
X424588Y39406D01*
X424571Y39396D01*
X424504Y39317D01*
X424432Y39242D01*
X424424Y39224D01*
X424411Y39209D01*
X424372Y39113D01*
X424329Y39019D01*
X424327Y38999D01*
X424319Y38981D01*
X424301Y38814D01*
X424301Y38402D01*
X424304Y38382D01*
X424302Y38363D01*
X424324Y38261D01*
X424340Y38159D01*
X424350Y38142D01*
X424354Y38122D01*
X424407Y38033D01*
X424456Y37942D01*
X424470Y37928D01*
X424480Y37911D01*
X424559Y37844D01*
X424634Y37772D01*
X424652Y37764D01*
X424667Y37751D01*
X424763Y37712D01*
X424857Y37669D01*
X424877Y37667D01*
X424895Y37659D01*
X425062Y37641D01*
X430277Y37641D01*
X430277Y29362D01*
X430280Y29342D01*
X430278Y29323D01*
X430300Y29221D01*
X430317Y29119D01*
X430326Y29102D01*
X430330Y29082D01*
X430383Y28993D01*
X430432Y28902D01*
X430446Y28888D01*
X430456Y28871D01*
X430535Y28804D01*
X430610Y28733D01*
X430628Y28724D01*
X430643Y28711D01*
X430739Y28672D01*
X430833Y28629D01*
X430853Y28627D01*
X430871Y28619D01*
X431038Y28601D01*
X431801Y28601D01*
X431801Y28599D01*
X431038Y28599D01*
X431018Y28596D01*
X430999Y28598D01*
X430897Y28576D01*
X430795Y28559D01*
X430778Y28550D01*
X430758Y28546D01*
X430669Y28493D01*
X430578Y28444D01*
X430564Y28430D01*
X430547Y28420D01*
X430480Y28341D01*
X430409Y28266D01*
X430400Y28248D01*
X430387Y28233D01*
X430348Y28137D01*
X430305Y28043D01*
X430303Y28023D01*
X430295Y28005D01*
X430277Y27838D01*
X430277Y19559D01*
X428680Y19559D01*
X428609Y19548D01*
X428537Y19546D01*
X428488Y19528D01*
X428437Y19520D01*
X428374Y19486D01*
X428306Y19461D01*
X428266Y19429D01*
X428219Y19404D01*
X428170Y19352D01*
X428114Y19308D01*
X428086Y19264D01*
X428050Y19226D01*
X428020Y19161D01*
X427981Y19101D01*
X427968Y19050D01*
X427946Y19003D01*
X427939Y18932D01*
X427921Y18862D01*
X427925Y18810D01*
X427919Y18759D01*
X427935Y18688D01*
X427940Y18617D01*
X427961Y18569D01*
X427972Y18518D01*
X428008Y18457D01*
X428037Y18391D01*
X428081Y18335D01*
X428098Y18307D01*
X428116Y18292D01*
X428141Y18260D01*
X431445Y14956D01*
X431519Y14903D01*
X431589Y14843D01*
X431619Y14831D01*
X431645Y14812D01*
X431732Y14785D01*
X431817Y14751D01*
X431858Y14747D01*
X431880Y14740D01*
X431912Y14741D01*
X431984Y14733D01*
X557135Y14733D01*
X557240Y14750D01*
X557345Y14762D01*
X557361Y14770D01*
X557378Y14772D01*
X557471Y14822D01*
X557567Y14867D01*
X557583Y14881D01*
X557595Y14888D01*
X557617Y14910D01*
X557694Y14977D01*
X562616Y20293D01*
X562619Y20297D01*
X562623Y20300D01*
X562687Y20400D01*
X562752Y20498D01*
X562753Y20503D01*
X562756Y20507D01*
X562785Y20621D01*
X562815Y20735D01*
X562815Y20741D01*
X562816Y20746D01*
X562808Y20847D01*
X562809Y20858D01*
X562806Y20871D01*
X562799Y20981D01*
X562797Y20986D01*
X562797Y20991D01*
X562763Y21071D01*
X562757Y21098D01*
X562739Y21128D01*
X562706Y21208D01*
X562702Y21212D01*
X562700Y21217D01*
X562642Y21290D01*
X562631Y21309D01*
X562618Y21320D01*
X562596Y21348D01*
X562475Y21468D01*
X562475Y35732D01*
X563368Y36625D01*
X579632Y36625D01*
X580525Y35732D01*
X580525Y32385D01*
X580528Y32365D01*
X580526Y32346D01*
X580548Y32244D01*
X580564Y32142D01*
X580574Y32125D01*
X580578Y32105D01*
X580631Y32016D01*
X580680Y31925D01*
X580694Y31911D01*
X580704Y31894D01*
X580783Y31827D01*
X580858Y31755D01*
X580876Y31747D01*
X580891Y31734D01*
X580987Y31695D01*
X581081Y31652D01*
X581101Y31650D01*
X581119Y31642D01*
X581286Y31624D01*
X603319Y31624D01*
X603409Y31638D01*
X603500Y31646D01*
X603530Y31658D01*
X603562Y31663D01*
X603643Y31706D01*
X603726Y31742D01*
X603759Y31768D01*
X603779Y31779D01*
X603801Y31802D01*
X603857Y31847D01*
X604904Y32894D01*
X618868Y32894D01*
X619761Y32001D01*
X619761Y25149D01*
X618868Y24256D01*
X604904Y24256D01*
X603857Y25303D01*
X603783Y25356D01*
X603714Y25416D01*
X603684Y25428D01*
X603658Y25447D01*
X603571Y25474D01*
X603486Y25508D01*
X603445Y25512D01*
X603423Y25519D01*
X603390Y25518D01*
X603319Y25526D01*
X581286Y25526D01*
X581266Y25523D01*
X581247Y25525D01*
X581145Y25503D01*
X581043Y25487D01*
X581026Y25477D01*
X581006Y25473D01*
X580917Y25420D01*
X580826Y25371D01*
X580812Y25357D01*
X580795Y25347D01*
X580728Y25268D01*
X580656Y25193D01*
X580648Y25175D01*
X580635Y25160D01*
X580596Y25064D01*
X580553Y24970D01*
X580551Y24950D01*
X580543Y24932D01*
X580525Y24765D01*
X580525Y21468D01*
X579632Y20575D01*
X571520Y20575D01*
X571416Y20558D01*
X571311Y20546D01*
X571295Y20538D01*
X571277Y20536D01*
X571184Y20486D01*
X571088Y20441D01*
X571072Y20427D01*
X571060Y20420D01*
X571039Y20398D01*
X570962Y20331D01*
X562728Y11439D01*
X562697Y11392D01*
X562657Y11350D01*
X562629Y11290D01*
X562592Y11234D01*
X562578Y11179D01*
X562554Y11127D01*
X562546Y11061D01*
X562529Y10996D01*
X562533Y10939D01*
X562527Y10883D01*
X562541Y10817D01*
X562545Y10751D01*
X562567Y10698D01*
X562579Y10642D01*
X562613Y10585D01*
X562638Y10523D01*
X562676Y10480D01*
X562705Y10431D01*
X562756Y10388D01*
X562799Y10337D01*
X562848Y10308D01*
X562892Y10271D01*
X562954Y10246D01*
X563011Y10212D01*
X563067Y10201D01*
X563120Y10179D01*
X563221Y10168D01*
X563252Y10162D01*
X563265Y10163D01*
X563287Y10161D01*
X760478Y10161D01*
X760498Y10164D01*
X760517Y10162D01*
X760619Y10184D01*
X760721Y10200D01*
X760738Y10210D01*
X760758Y10214D01*
X760847Y10267D01*
X760938Y10316D01*
X760952Y10330D01*
X760969Y10340D01*
X761036Y10419D01*
X761108Y10494D01*
X761116Y10512D01*
X761129Y10527D01*
X761168Y10623D01*
X761211Y10717D01*
X761213Y10737D01*
X761221Y10755D01*
X761239Y10922D01*
X761239Y446178D01*
X761236Y446198D01*
X761238Y446217D01*
X761216Y446319D01*
X761200Y446421D01*
X761190Y446438D01*
X761186Y446458D01*
X761133Y446547D01*
X761084Y446638D01*
X761070Y446652D01*
X761060Y446669D01*
X760981Y446736D01*
X760906Y446808D01*
X760888Y446816D01*
X760873Y446829D01*
X760777Y446868D01*
X760683Y446911D01*
X760663Y446913D01*
X760645Y446921D01*
X760478Y446939D01*
X61722Y446939D01*
X61702Y446936D01*
X61683Y446938D01*
X61581Y446916D01*
X61479Y446900D01*
X61462Y446890D01*
X61442Y446886D01*
X61353Y446833D01*
X61262Y446784D01*
X61248Y446770D01*
X61231Y446760D01*
X61164Y446681D01*
X61092Y446606D01*
X61084Y446588D01*
X61071Y446573D01*
X61032Y446477D01*
X60989Y446383D01*
X60987Y446363D01*
X60979Y446345D01*
X60961Y446178D01*
X60961Y10922D01*
X60964Y10902D01*
X60962Y10883D01*
X60984Y10781D01*
X61000Y10679D01*
X61010Y10662D01*
X61014Y10642D01*
X61067Y10553D01*
X61116Y10462D01*
X61130Y10448D01*
X61140Y10431D01*
X61219Y10364D01*
X61294Y10292D01*
X61312Y10284D01*
X61327Y10271D01*
X61423Y10232D01*
X61517Y10189D01*
X61537Y10187D01*
X61555Y10179D01*
X61722Y10161D01*
X240538Y10161D01*
X240558Y10164D01*
G37*
%LPC*%
G36*
X196568Y231575D02*
X196568Y231575D01*
X195675Y232468D01*
X195675Y245732D01*
X196568Y246625D01*
X204589Y246625D01*
X204708Y246644D01*
X204828Y246663D01*
X204830Y246664D01*
X204832Y246664D01*
X204937Y246720D01*
X205046Y246777D01*
X205048Y246779D01*
X205049Y246780D01*
X205054Y246785D01*
X205168Y246892D01*
X212161Y255097D01*
X212193Y255149D01*
X212233Y255196D01*
X212256Y255254D01*
X212289Y255307D01*
X212302Y255367D01*
X212325Y255424D01*
X212329Y255459D01*
X213264Y256394D01*
X213277Y256412D01*
X213305Y256438D01*
X214160Y257442D01*
X214210Y257463D01*
X214271Y257478D01*
X214322Y257511D01*
X214379Y257535D01*
X214451Y257592D01*
X214478Y257610D01*
X214489Y257623D01*
X214510Y257640D01*
X230164Y273294D01*
X232052Y275182D01*
X232105Y275256D01*
X232165Y275326D01*
X232177Y275356D01*
X232196Y275382D01*
X232223Y275469D01*
X232257Y275554D01*
X232261Y275595D01*
X232268Y275617D01*
X232267Y275649D01*
X232275Y275721D01*
X232275Y289732D01*
X233168Y290625D01*
X249432Y290625D01*
X250325Y289732D01*
X250325Y286426D01*
X250328Y286406D01*
X250326Y286387D01*
X250348Y286285D01*
X250364Y286183D01*
X250374Y286166D01*
X250378Y286146D01*
X250431Y286057D01*
X250480Y285966D01*
X250494Y285952D01*
X250504Y285935D01*
X250583Y285868D01*
X250658Y285796D01*
X250676Y285788D01*
X250691Y285775D01*
X250787Y285736D01*
X250881Y285693D01*
X250901Y285691D01*
X250919Y285683D01*
X251086Y285665D01*
X258414Y285665D01*
X258434Y285668D01*
X258453Y285666D01*
X258555Y285688D01*
X258657Y285704D01*
X258674Y285714D01*
X258694Y285718D01*
X258783Y285771D01*
X258874Y285820D01*
X258888Y285834D01*
X258905Y285844D01*
X258972Y285923D01*
X259044Y285998D01*
X259052Y286016D01*
X259065Y286031D01*
X259104Y286127D01*
X259147Y286221D01*
X259149Y286241D01*
X259157Y286259D01*
X259175Y286426D01*
X259175Y288232D01*
X260068Y289125D01*
X273332Y289125D01*
X274225Y288232D01*
X274225Y276362D01*
X274228Y276342D01*
X274226Y276323D01*
X274248Y276221D01*
X274264Y276119D01*
X274274Y276102D01*
X274278Y276082D01*
X274331Y275993D01*
X274380Y275902D01*
X274394Y275888D01*
X274404Y275871D01*
X274483Y275804D01*
X274558Y275732D01*
X274576Y275724D01*
X274591Y275711D01*
X274687Y275672D01*
X274781Y275629D01*
X274801Y275627D01*
X274819Y275619D01*
X274986Y275601D01*
X282955Y275601D01*
X283046Y275615D01*
X283136Y275623D01*
X283166Y275635D01*
X283198Y275640D01*
X283279Y275683D01*
X283363Y275719D01*
X283395Y275745D01*
X283416Y275756D01*
X283438Y275779D01*
X283494Y275824D01*
X290883Y283213D01*
X379891Y283213D01*
X379961Y283224D01*
X380033Y283226D01*
X380082Y283244D01*
X380133Y283252D01*
X380197Y283286D01*
X380264Y283311D01*
X380305Y283343D01*
X380351Y283368D01*
X380400Y283420D01*
X380456Y283464D01*
X380484Y283508D01*
X380520Y283546D01*
X380550Y283611D01*
X380589Y283671D01*
X380602Y283722D01*
X380624Y283769D01*
X380632Y283840D01*
X380649Y283910D01*
X380645Y283962D01*
X380651Y284013D01*
X380636Y284084D01*
X380630Y284155D01*
X380610Y284203D01*
X380599Y284254D01*
X380562Y284315D01*
X380534Y284381D01*
X380489Y284437D01*
X380472Y284465D01*
X380455Y284480D01*
X380429Y284512D01*
X366121Y298820D01*
X366047Y298873D01*
X365977Y298933D01*
X365947Y298945D01*
X365921Y298964D01*
X365834Y298991D01*
X365749Y299025D01*
X365708Y299029D01*
X365686Y299036D01*
X365654Y299035D01*
X365582Y299043D01*
X274986Y299043D01*
X274966Y299040D01*
X274947Y299042D01*
X274845Y299020D01*
X274743Y299004D01*
X274726Y298994D01*
X274706Y298990D01*
X274617Y298937D01*
X274526Y298888D01*
X274512Y298874D01*
X274495Y298864D01*
X274428Y298785D01*
X274356Y298710D01*
X274348Y298692D01*
X274335Y298677D01*
X274296Y298581D01*
X274253Y298487D01*
X274251Y298467D01*
X274243Y298449D01*
X274225Y298282D01*
X274225Y295968D01*
X273332Y295075D01*
X260068Y295075D01*
X259175Y295968D01*
X259175Y309232D01*
X260068Y310125D01*
X273332Y310125D01*
X274225Y309232D01*
X274225Y306918D01*
X274228Y306898D01*
X274226Y306879D01*
X274248Y306777D01*
X274264Y306675D01*
X274274Y306658D01*
X274278Y306638D01*
X274331Y306549D01*
X274380Y306458D01*
X274394Y306444D01*
X274404Y306427D01*
X274483Y306360D01*
X274558Y306288D01*
X274576Y306280D01*
X274591Y306267D01*
X274687Y306228D01*
X274781Y306185D01*
X274801Y306183D01*
X274819Y306175D01*
X274986Y306157D01*
X368844Y306157D01*
X383376Y291625D01*
X383434Y291583D01*
X383486Y291534D01*
X383533Y291512D01*
X383575Y291482D01*
X383644Y291461D01*
X383709Y291430D01*
X383761Y291425D01*
X383811Y291409D01*
X383882Y291411D01*
X383953Y291403D01*
X384004Y291414D01*
X384056Y291416D01*
X384124Y291440D01*
X384194Y291456D01*
X384239Y291482D01*
X384287Y291500D01*
X384343Y291545D01*
X384405Y291582D01*
X384439Y291621D01*
X384479Y291654D01*
X384518Y291714D01*
X384565Y291769D01*
X384584Y291817D01*
X384612Y291861D01*
X384630Y291930D01*
X384657Y291997D01*
X384665Y292068D01*
X384673Y292099D01*
X384671Y292123D01*
X384675Y292164D01*
X384675Y298118D01*
X384657Y298233D01*
X384640Y298348D01*
X384637Y298355D01*
X384636Y298361D01*
X384581Y298463D01*
X384528Y298568D01*
X384523Y298574D01*
X384520Y298578D01*
X384506Y298592D01*
X384415Y298691D01*
X367180Y313755D01*
X367124Y313790D01*
X367074Y313833D01*
X367020Y313854D01*
X366971Y313885D01*
X366907Y313900D01*
X366846Y313925D01*
X366764Y313934D01*
X366732Y313941D01*
X366712Y313940D01*
X366679Y313943D01*
X127428Y313943D01*
X127404Y313939D01*
X127278Y313928D01*
X126253Y313723D01*
X126115Y313815D01*
X126100Y313822D01*
X126088Y313833D01*
X125988Y313873D01*
X125891Y313917D01*
X125875Y313919D01*
X125859Y313925D01*
X125693Y313943D01*
X125527Y313943D01*
X124787Y314683D01*
X124768Y314696D01*
X124671Y314778D01*
X96397Y333627D01*
X96382Y333634D01*
X96369Y333645D01*
X96270Y333685D01*
X96173Y333729D01*
X96157Y333731D01*
X96141Y333737D01*
X95975Y333755D01*
X79461Y333755D01*
X76100Y335147D01*
X73527Y337720D01*
X72135Y341081D01*
X72135Y344719D01*
X73527Y348080D01*
X76100Y350653D01*
X79461Y352045D01*
X98339Y352045D01*
X101700Y350653D01*
X104273Y348080D01*
X105665Y344719D01*
X105665Y341081D01*
X104254Y337676D01*
X104238Y337609D01*
X104213Y337544D01*
X104211Y337490D01*
X104198Y337436D01*
X104205Y337368D01*
X104201Y337299D01*
X104216Y337246D01*
X104221Y337191D01*
X104249Y337128D01*
X104268Y337062D01*
X104299Y337017D01*
X104321Y336967D01*
X104368Y336916D01*
X104407Y336859D01*
X104465Y336810D01*
X104488Y336786D01*
X104507Y336775D01*
X104535Y336751D01*
X127885Y321185D01*
X127900Y321178D01*
X127913Y321167D01*
X128012Y321127D01*
X128109Y321083D01*
X128125Y321081D01*
X128141Y321075D01*
X128307Y321057D01*
X368155Y321057D01*
X368174Y321060D01*
X368206Y321058D01*
X369569Y321150D01*
X369580Y321145D01*
X369629Y321115D01*
X369693Y321100D01*
X369754Y321075D01*
X369755Y321075D01*
X370712Y320118D01*
X370728Y320106D01*
X370750Y320083D01*
X383413Y309015D01*
X383452Y308990D01*
X383486Y308958D01*
X383556Y308926D01*
X383622Y308885D01*
X383667Y308874D01*
X383709Y308855D01*
X383786Y308846D01*
X383861Y308828D01*
X383908Y308833D01*
X383953Y308828D01*
X384029Y308844D01*
X384106Y308851D01*
X384149Y308870D01*
X384194Y308880D01*
X384260Y308920D01*
X384331Y308951D01*
X384365Y308982D01*
X384405Y309006D01*
X384455Y309065D01*
X384512Y309117D01*
X384535Y309158D01*
X384565Y309193D01*
X384594Y309265D01*
X384631Y309333D01*
X384639Y309378D01*
X384657Y309421D01*
X384672Y309556D01*
X384675Y309575D01*
X384674Y309580D01*
X384675Y309588D01*
X384675Y321432D01*
X385568Y322325D01*
X401832Y322325D01*
X402725Y321432D01*
X402725Y321219D01*
X402743Y321107D01*
X402758Y320995D01*
X402763Y320986D01*
X402764Y320976D01*
X402817Y320876D01*
X402868Y320774D01*
X402875Y320767D01*
X402880Y320759D01*
X402961Y320681D01*
X403042Y320600D01*
X403051Y320596D01*
X403058Y320589D01*
X403160Y320542D01*
X403262Y320491D01*
X403272Y320490D01*
X403281Y320486D01*
X403393Y320473D01*
X403506Y320458D01*
X403518Y320459D01*
X403525Y320458D01*
X403549Y320464D01*
X403672Y320481D01*
X404375Y320658D01*
X404486Y320706D01*
X404597Y320753D01*
X404599Y320755D01*
X404601Y320756D01*
X404608Y320762D01*
X404728Y320858D01*
X404927Y321057D01*
X405864Y321057D01*
X405874Y321058D01*
X405884Y321057D01*
X406050Y321080D01*
X406960Y321309D01*
X407201Y321164D01*
X407312Y321121D01*
X407425Y321075D01*
X407428Y321075D01*
X407430Y321074D01*
X407439Y321074D01*
X407592Y321057D01*
X433642Y321057D01*
X433757Y321076D01*
X433873Y321093D01*
X433878Y321095D01*
X433885Y321096D01*
X433987Y321151D01*
X434092Y321204D01*
X434097Y321209D01*
X434102Y321212D01*
X434182Y321296D01*
X434264Y321380D01*
X434268Y321386D01*
X434271Y321390D01*
X434279Y321407D01*
X434345Y321527D01*
X435240Y323687D01*
X438313Y326760D01*
X440628Y327719D01*
X440711Y327770D01*
X440797Y327816D01*
X440815Y327835D01*
X440837Y327848D01*
X440899Y327923D01*
X440966Y327994D01*
X440977Y328018D01*
X440994Y328038D01*
X441028Y328129D01*
X441070Y328217D01*
X441072Y328243D01*
X441082Y328267D01*
X441086Y328365D01*
X441097Y328461D01*
X441091Y328487D01*
X441092Y328513D01*
X441065Y328607D01*
X441044Y328702D01*
X441031Y328724D01*
X441024Y328749D01*
X440968Y328829D01*
X440918Y328913D01*
X440898Y328930D01*
X440883Y328951D01*
X440805Y329010D01*
X440731Y329073D01*
X440707Y329083D01*
X440686Y329098D01*
X440594Y329128D01*
X440503Y329165D01*
X440471Y329168D01*
X440452Y329174D01*
X440419Y329174D01*
X440336Y329183D01*
X244213Y329183D01*
X212024Y361372D01*
X211966Y361414D01*
X211914Y361463D01*
X211867Y361485D01*
X211825Y361516D01*
X211756Y361537D01*
X211691Y361567D01*
X211639Y361573D01*
X211589Y361588D01*
X211518Y361586D01*
X211447Y361594D01*
X211396Y361583D01*
X211344Y361582D01*
X211276Y361557D01*
X211206Y361542D01*
X211161Y361515D01*
X211113Y361497D01*
X211057Y361452D01*
X210995Y361416D01*
X210961Y361376D01*
X210921Y361343D01*
X210882Y361283D01*
X210835Y361229D01*
X210816Y361180D01*
X210788Y361136D01*
X210770Y361067D01*
X210743Y361000D01*
X210735Y360929D01*
X210727Y360898D01*
X210729Y360875D01*
X210725Y360834D01*
X210725Y359468D01*
X209832Y358575D01*
X196568Y358575D01*
X195675Y359468D01*
X195675Y371338D01*
X195672Y371358D01*
X195674Y371377D01*
X195652Y371479D01*
X195636Y371581D01*
X195626Y371598D01*
X195622Y371618D01*
X195569Y371707D01*
X195520Y371798D01*
X195506Y371812D01*
X195496Y371829D01*
X195417Y371896D01*
X195342Y371968D01*
X195324Y371976D01*
X195309Y371989D01*
X195213Y372028D01*
X195119Y372071D01*
X195099Y372073D01*
X195081Y372081D01*
X194914Y372099D01*
X188602Y372099D01*
X188582Y372096D01*
X188563Y372098D01*
X188461Y372076D01*
X188359Y372060D01*
X188342Y372050D01*
X188322Y372046D01*
X188233Y371993D01*
X188142Y371944D01*
X188128Y371930D01*
X188111Y371920D01*
X188044Y371841D01*
X187972Y371766D01*
X187964Y371748D01*
X187951Y371733D01*
X187912Y371637D01*
X187869Y371543D01*
X187867Y371523D01*
X187859Y371505D01*
X187841Y371338D01*
X187841Y366623D01*
X178562Y366623D01*
X178542Y366620D01*
X178523Y366622D01*
X178421Y366600D01*
X178319Y366583D01*
X178302Y366574D01*
X178282Y366570D01*
X178193Y366517D01*
X178102Y366468D01*
X178088Y366454D01*
X178071Y366444D01*
X178004Y366365D01*
X177933Y366290D01*
X177924Y366272D01*
X177911Y366257D01*
X177872Y366161D01*
X177829Y366067D01*
X177827Y366047D01*
X177819Y366029D01*
X177801Y365862D01*
X177801Y365099D01*
X177799Y365099D01*
X177799Y365862D01*
X177796Y365882D01*
X177798Y365901D01*
X177776Y366003D01*
X177759Y366105D01*
X177750Y366122D01*
X177746Y366142D01*
X177693Y366231D01*
X177644Y366322D01*
X177630Y366336D01*
X177620Y366353D01*
X177541Y366420D01*
X177466Y366491D01*
X177448Y366500D01*
X177433Y366513D01*
X177337Y366552D01*
X177243Y366595D01*
X177223Y366597D01*
X177205Y366605D01*
X177038Y366623D01*
X167759Y366623D01*
X167759Y367220D01*
X167748Y367291D01*
X167746Y367363D01*
X167728Y367412D01*
X167720Y367463D01*
X167686Y367526D01*
X167661Y367594D01*
X167629Y367634D01*
X167604Y367681D01*
X167552Y367730D01*
X167508Y367786D01*
X167464Y367814D01*
X167426Y367850D01*
X167361Y367880D01*
X167301Y367919D01*
X167250Y367932D01*
X167203Y367954D01*
X167132Y367961D01*
X167062Y367979D01*
X167010Y367975D01*
X166959Y367981D01*
X166888Y367965D01*
X166817Y367960D01*
X166769Y367939D01*
X166718Y367928D01*
X166657Y367892D01*
X166591Y367863D01*
X166535Y367819D01*
X166507Y367802D01*
X166492Y367784D01*
X166460Y367759D01*
X154942Y356241D01*
X149714Y354075D01*
X86071Y354075D01*
X80842Y356241D01*
X76951Y360132D01*
X76898Y360171D01*
X76851Y360216D01*
X76778Y360257D01*
X76751Y360276D01*
X76733Y360282D01*
X76704Y360297D01*
X76100Y360547D01*
X73527Y363120D01*
X72135Y366481D01*
X72135Y370119D01*
X73527Y373480D01*
X76100Y376053D01*
X76704Y376303D01*
X76760Y376337D01*
X76820Y376363D01*
X76885Y376415D01*
X76913Y376432D01*
X76925Y376447D01*
X76951Y376468D01*
X80842Y380359D01*
X84984Y382075D01*
X85067Y382126D01*
X85153Y382172D01*
X85171Y382191D01*
X85193Y382204D01*
X85255Y382279D01*
X85322Y382350D01*
X85333Y382374D01*
X85350Y382394D01*
X85385Y382485D01*
X85426Y382573D01*
X85429Y382599D01*
X85438Y382623D01*
X85442Y382721D01*
X85453Y382817D01*
X85447Y382843D01*
X85449Y382869D01*
X85421Y382963D01*
X85401Y383058D01*
X85387Y383080D01*
X85380Y383105D01*
X85325Y383185D01*
X85275Y383269D01*
X85255Y383286D01*
X85240Y383307D01*
X85162Y383366D01*
X85088Y383429D01*
X85063Y383439D01*
X85042Y383454D01*
X84950Y383484D01*
X84860Y383521D01*
X84827Y383524D01*
X84809Y383530D01*
X84776Y383530D01*
X84693Y383539D01*
X80480Y383539D01*
X78901Y383789D01*
X77380Y384284D01*
X75955Y385010D01*
X74661Y385950D01*
X73530Y387081D01*
X72590Y388375D01*
X71864Y389800D01*
X71369Y391321D01*
X71234Y392177D01*
X88138Y392177D01*
X88158Y392180D01*
X88177Y392178D01*
X88279Y392200D01*
X88381Y392217D01*
X88398Y392226D01*
X88418Y392230D01*
X88507Y392283D01*
X88598Y392332D01*
X88612Y392346D01*
X88629Y392356D01*
X88696Y392435D01*
X88767Y392510D01*
X88776Y392528D01*
X88789Y392543D01*
X88827Y392639D01*
X88871Y392733D01*
X88873Y392753D01*
X88881Y392771D01*
X88899Y392938D01*
X88899Y393701D01*
X88901Y393701D01*
X88901Y392938D01*
X88904Y392918D01*
X88902Y392899D01*
X88924Y392797D01*
X88941Y392695D01*
X88950Y392678D01*
X88954Y392658D01*
X89007Y392569D01*
X89056Y392478D01*
X89070Y392464D01*
X89080Y392447D01*
X89159Y392380D01*
X89234Y392309D01*
X89252Y392300D01*
X89267Y392287D01*
X89363Y392248D01*
X89457Y392205D01*
X89477Y392203D01*
X89495Y392195D01*
X89662Y392177D01*
X106566Y392177D01*
X106431Y391321D01*
X105936Y389800D01*
X105210Y388375D01*
X104270Y387081D01*
X103139Y385950D01*
X101845Y385010D01*
X100420Y384284D01*
X99578Y384010D01*
X99574Y384008D01*
X99570Y384007D01*
X99466Y383952D01*
X99359Y383897D01*
X99357Y383894D01*
X99353Y383892D01*
X99271Y383806D01*
X99188Y383721D01*
X99186Y383717D01*
X99184Y383714D01*
X99134Y383606D01*
X99082Y383499D01*
X99082Y383495D01*
X99080Y383491D01*
X99067Y383374D01*
X99053Y383254D01*
X99053Y383250D01*
X99053Y383247D01*
X99078Y383131D01*
X99102Y383014D01*
X99104Y383010D01*
X99105Y383006D01*
X99166Y382904D01*
X99226Y382801D01*
X99229Y382798D01*
X99231Y382795D01*
X99322Y382717D01*
X99412Y382639D01*
X99415Y382638D01*
X99418Y382635D01*
X99530Y382590D01*
X99639Y382545D01*
X99643Y382545D01*
X99646Y382543D01*
X99813Y382525D01*
X140677Y382525D01*
X140767Y382539D01*
X140858Y382547D01*
X140888Y382559D01*
X140920Y382564D01*
X141000Y382607D01*
X141084Y382643D01*
X141116Y382669D01*
X141137Y382680D01*
X141159Y382703D01*
X141215Y382748D01*
X156851Y398383D01*
X161993Y400513D01*
X162032Y400538D01*
X162075Y400553D01*
X162136Y400602D01*
X162202Y400643D01*
X162232Y400678D01*
X162267Y400707D01*
X162310Y400772D01*
X162359Y400832D01*
X162376Y400875D01*
X162400Y400914D01*
X162419Y400989D01*
X162447Y401062D01*
X162449Y401108D01*
X162461Y401152D01*
X162454Y401230D01*
X162458Y401308D01*
X162445Y401352D01*
X162441Y401398D01*
X162411Y401469D01*
X162389Y401544D01*
X162363Y401582D01*
X162345Y401624D01*
X162260Y401731D01*
X162249Y401746D01*
X162245Y401749D01*
X162240Y401755D01*
X159793Y404202D01*
X159793Y408598D01*
X161828Y410633D01*
X161881Y410707D01*
X161941Y410777D01*
X161953Y410807D01*
X161972Y410833D01*
X161999Y410920D01*
X162033Y411005D01*
X162037Y411046D01*
X162044Y411068D01*
X162043Y411100D01*
X162051Y411171D01*
X162051Y417322D01*
X188722Y443993D01*
X385819Y443993D01*
X387828Y441984D01*
X402360Y427452D01*
X402434Y427399D01*
X402503Y427339D01*
X402533Y427327D01*
X402560Y427308D01*
X402647Y427281D01*
X402731Y427247D01*
X402772Y427243D01*
X402795Y427236D01*
X402827Y427237D01*
X402898Y427229D01*
X409767Y427229D01*
X414529Y422467D01*
X414529Y415733D01*
X409767Y410971D01*
X403033Y410971D01*
X398271Y415733D01*
X398271Y422602D01*
X398257Y422692D01*
X398249Y422783D01*
X398237Y422813D01*
X398232Y422845D01*
X398189Y422925D01*
X398153Y423009D01*
X398127Y423041D01*
X398116Y423062D01*
X398093Y423084D01*
X398048Y423140D01*
X383516Y437672D01*
X383442Y437725D01*
X383373Y437785D01*
X383343Y437797D01*
X383316Y437816D01*
X383229Y437843D01*
X383145Y437877D01*
X383104Y437881D01*
X383081Y437888D01*
X383049Y437887D01*
X382978Y437895D01*
X342954Y437895D01*
X342883Y437884D01*
X342812Y437882D01*
X342763Y437864D01*
X342711Y437856D01*
X342648Y437822D01*
X342581Y437797D01*
X342540Y437765D01*
X342494Y437740D01*
X342445Y437689D01*
X342389Y437644D01*
X342360Y437600D01*
X342325Y437562D01*
X342294Y437497D01*
X342256Y437437D01*
X342243Y437386D01*
X342221Y437339D01*
X342213Y437268D01*
X342196Y437198D01*
X342200Y437146D01*
X342194Y437095D01*
X342209Y437024D01*
X342215Y436953D01*
X342235Y436905D01*
X342246Y436854D01*
X342283Y436793D01*
X342311Y436727D01*
X342356Y436671D01*
X342372Y436643D01*
X342390Y436628D01*
X342416Y436596D01*
X351560Y427452D01*
X351634Y427399D01*
X351703Y427339D01*
X351733Y427327D01*
X351760Y427308D01*
X351847Y427281D01*
X351931Y427247D01*
X351972Y427243D01*
X351995Y427236D01*
X352027Y427237D01*
X352098Y427229D01*
X358967Y427229D01*
X363729Y422467D01*
X363729Y415733D01*
X358967Y410971D01*
X352233Y410971D01*
X347471Y415733D01*
X347471Y422602D01*
X347457Y422692D01*
X347449Y422783D01*
X347437Y422813D01*
X347432Y422845D01*
X347389Y422925D01*
X347353Y423009D01*
X347327Y423041D01*
X347316Y423062D01*
X347293Y423084D01*
X347248Y423140D01*
X337288Y433100D01*
X337214Y433153D01*
X337145Y433213D01*
X337115Y433225D01*
X337088Y433244D01*
X337001Y433271D01*
X336917Y433305D01*
X336876Y433309D01*
X336853Y433316D01*
X336821Y433315D01*
X336750Y433323D01*
X296726Y433323D01*
X296655Y433312D01*
X296584Y433310D01*
X296535Y433292D01*
X296483Y433284D01*
X296420Y433250D01*
X296353Y433225D01*
X296312Y433193D01*
X296266Y433168D01*
X296217Y433116D01*
X296161Y433072D01*
X296132Y433028D01*
X296097Y432990D01*
X296066Y432925D01*
X296028Y432865D01*
X296015Y432814D01*
X295993Y432767D01*
X295985Y432696D01*
X295968Y432626D01*
X295972Y432574D01*
X295966Y432523D01*
X295981Y432452D01*
X295987Y432381D01*
X296007Y432333D01*
X296018Y432282D01*
X296055Y432221D01*
X296083Y432155D01*
X296128Y432099D01*
X296144Y432071D01*
X296162Y432056D01*
X296188Y432024D01*
X300760Y427452D01*
X300834Y427399D01*
X300903Y427339D01*
X300933Y427327D01*
X300960Y427308D01*
X301047Y427281D01*
X301131Y427247D01*
X301172Y427243D01*
X301195Y427236D01*
X301227Y427237D01*
X301298Y427229D01*
X308167Y427229D01*
X312929Y422467D01*
X312929Y415733D01*
X308167Y410971D01*
X301433Y410971D01*
X296671Y415733D01*
X296671Y422602D01*
X296657Y422692D01*
X296649Y422783D01*
X296637Y422813D01*
X296632Y422845D01*
X296589Y422925D01*
X296553Y423009D01*
X296527Y423041D01*
X296516Y423062D01*
X296493Y423084D01*
X296448Y423140D01*
X291060Y428528D01*
X290986Y428581D01*
X290917Y428641D01*
X290887Y428653D01*
X290860Y428672D01*
X290773Y428699D01*
X290689Y428733D01*
X290648Y428737D01*
X290625Y428744D01*
X290593Y428743D01*
X290522Y428751D01*
X204778Y428751D01*
X204688Y428737D01*
X204597Y428729D01*
X204567Y428717D01*
X204535Y428712D01*
X204455Y428669D01*
X204371Y428633D01*
X204339Y428607D01*
X204318Y428596D01*
X204296Y428573D01*
X204240Y428528D01*
X201418Y425706D01*
X201376Y425648D01*
X201327Y425596D01*
X201305Y425549D01*
X201274Y425507D01*
X201253Y425438D01*
X201223Y425373D01*
X201217Y425321D01*
X201202Y425271D01*
X201204Y425200D01*
X201196Y425129D01*
X201207Y425078D01*
X201208Y425026D01*
X201233Y424958D01*
X201248Y424888D01*
X201275Y424843D01*
X201293Y424795D01*
X201338Y424739D01*
X201374Y424677D01*
X201414Y424643D01*
X201446Y424603D01*
X201507Y424564D01*
X201561Y424517D01*
X201610Y424498D01*
X201653Y424470D01*
X201723Y424452D01*
X201789Y424425D01*
X201861Y424417D01*
X201892Y424409D01*
X201915Y424411D01*
X201956Y424407D01*
X205398Y424407D01*
X207433Y422372D01*
X207507Y422319D01*
X207577Y422259D01*
X207607Y422247D01*
X207633Y422228D01*
X207720Y422201D01*
X207805Y422167D01*
X207846Y422163D01*
X207868Y422156D01*
X207900Y422157D01*
X207971Y422149D01*
X245238Y422149D01*
X245328Y422163D01*
X245419Y422171D01*
X245448Y422183D01*
X245480Y422188D01*
X245561Y422231D01*
X245645Y422267D01*
X245677Y422293D01*
X245698Y422304D01*
X245720Y422327D01*
X245776Y422372D01*
X250633Y427229D01*
X257367Y427229D01*
X262129Y422467D01*
X262129Y415733D01*
X257367Y410971D01*
X250633Y410971D01*
X245776Y415828D01*
X245702Y415881D01*
X245633Y415941D01*
X245602Y415953D01*
X245576Y415972D01*
X245489Y415999D01*
X245404Y416033D01*
X245363Y416037D01*
X245341Y416044D01*
X245309Y416043D01*
X245238Y416051D01*
X207971Y416051D01*
X207881Y416037D01*
X207790Y416029D01*
X207761Y416017D01*
X207729Y416012D01*
X207648Y415969D01*
X207564Y415933D01*
X207532Y415907D01*
X207511Y415896D01*
X207489Y415873D01*
X207433Y415828D01*
X205398Y413793D01*
X201002Y413793D01*
X197893Y416902D01*
X197893Y420344D01*
X197882Y420415D01*
X197880Y420486D01*
X197862Y420535D01*
X197854Y420587D01*
X197820Y420650D01*
X197795Y420717D01*
X197763Y420758D01*
X197738Y420804D01*
X197686Y420853D01*
X197642Y420909D01*
X197598Y420938D01*
X197560Y420973D01*
X197495Y421004D01*
X197435Y421042D01*
X197384Y421055D01*
X197337Y421077D01*
X197266Y421085D01*
X197196Y421102D01*
X197144Y421098D01*
X197093Y421104D01*
X197022Y421089D01*
X196951Y421083D01*
X196903Y421063D01*
X196852Y421052D01*
X196791Y421015D01*
X196725Y420987D01*
X196669Y420942D01*
X196641Y420926D01*
X196626Y420908D01*
X196594Y420882D01*
X193772Y418060D01*
X193719Y417986D01*
X193659Y417917D01*
X193647Y417887D01*
X193628Y417860D01*
X193601Y417773D01*
X193567Y417689D01*
X193563Y417648D01*
X193556Y417625D01*
X193557Y417593D01*
X193549Y417522D01*
X193549Y411171D01*
X193563Y411081D01*
X193571Y410990D01*
X193583Y410961D01*
X193588Y410929D01*
X193631Y410848D01*
X193667Y410764D01*
X193693Y410732D01*
X193704Y410711D01*
X193727Y410689D01*
X193772Y410633D01*
X195807Y408598D01*
X195807Y404202D01*
X193453Y401848D01*
X193411Y401790D01*
X193362Y401738D01*
X193340Y401691D01*
X193310Y401649D01*
X193288Y401580D01*
X193258Y401515D01*
X193253Y401463D01*
X193237Y401413D01*
X193239Y401342D01*
X193231Y401271D01*
X193242Y401220D01*
X193244Y401168D01*
X193268Y401100D01*
X193283Y401030D01*
X193310Y400985D01*
X193328Y400937D01*
X193373Y400881D01*
X193410Y400819D01*
X193449Y400785D01*
X193482Y400745D01*
X193542Y400706D01*
X193597Y400659D01*
X193645Y400640D01*
X193689Y400612D01*
X193758Y400594D01*
X193825Y400567D01*
X193896Y400559D01*
X193927Y400551D01*
X193950Y400553D01*
X193991Y400549D01*
X217921Y400549D01*
X223149Y398383D01*
X238785Y382748D01*
X238859Y382695D01*
X238928Y382635D01*
X238958Y382623D01*
X238985Y382604D01*
X239072Y382577D01*
X239156Y382543D01*
X239197Y382539D01*
X239220Y382532D01*
X239252Y382533D01*
X239323Y382525D01*
X473853Y382525D01*
X473943Y382539D01*
X474034Y382547D01*
X474063Y382559D01*
X474095Y382564D01*
X474176Y382607D01*
X474260Y382643D01*
X474292Y382669D01*
X474313Y382680D01*
X474335Y382703D01*
X474391Y382748D01*
X484702Y393059D01*
X489931Y395225D01*
X565676Y395225D01*
X565747Y395236D01*
X565819Y395238D01*
X565868Y395256D01*
X565919Y395264D01*
X565983Y395298D01*
X566050Y395323D01*
X566091Y395355D01*
X566137Y395380D01*
X566186Y395432D01*
X566242Y395476D01*
X566270Y395520D01*
X566306Y395558D01*
X566336Y395623D01*
X566375Y395683D01*
X566388Y395734D01*
X566410Y395781D01*
X566417Y395852D01*
X566435Y395922D01*
X566431Y395974D01*
X566437Y396025D01*
X566421Y396096D01*
X566416Y396167D01*
X566395Y396215D01*
X566384Y396266D01*
X566348Y396327D01*
X566320Y396393D01*
X566275Y396449D01*
X566258Y396477D01*
X566240Y396492D01*
X566215Y396524D01*
X565237Y397502D01*
X564169Y398971D01*
X563345Y400590D01*
X562783Y402318D01*
X562499Y404112D01*
X562499Y412497D01*
X573278Y412497D01*
X573298Y412500D01*
X573317Y412498D01*
X573419Y412520D01*
X573521Y412537D01*
X573538Y412546D01*
X573558Y412550D01*
X573647Y412603D01*
X573738Y412652D01*
X573752Y412666D01*
X573769Y412676D01*
X573836Y412755D01*
X573907Y412830D01*
X573916Y412848D01*
X573929Y412863D01*
X573967Y412959D01*
X574011Y413053D01*
X574013Y413073D01*
X574021Y413091D01*
X574039Y413258D01*
X574039Y414021D01*
X574802Y414021D01*
X574822Y414024D01*
X574841Y414022D01*
X574943Y414044D01*
X575045Y414061D01*
X575062Y414070D01*
X575082Y414074D01*
X575171Y414127D01*
X575262Y414176D01*
X575276Y414190D01*
X575293Y414200D01*
X575360Y414279D01*
X575431Y414354D01*
X575440Y414372D01*
X575453Y414387D01*
X575492Y414483D01*
X575535Y414577D01*
X575537Y414597D01*
X575545Y414615D01*
X575563Y414782D01*
X575563Y434463D01*
X576742Y434277D01*
X578470Y433715D01*
X580089Y432891D01*
X581558Y431823D01*
X582843Y430538D01*
X583911Y429069D01*
X584735Y427450D01*
X585297Y425722D01*
X585581Y423928D01*
X585581Y422115D01*
X585592Y422045D01*
X585594Y421973D01*
X585612Y421924D01*
X585620Y421873D01*
X585654Y421809D01*
X585679Y421742D01*
X585711Y421701D01*
X585736Y421655D01*
X585787Y421606D01*
X585832Y421550D01*
X585876Y421522D01*
X585914Y421486D01*
X585979Y421456D01*
X586039Y421417D01*
X586090Y421404D01*
X586137Y421382D01*
X586208Y421374D01*
X586278Y421357D01*
X586330Y421361D01*
X586381Y421355D01*
X586452Y421370D01*
X586523Y421376D01*
X586571Y421396D01*
X586622Y421407D01*
X586683Y421444D01*
X586749Y421472D01*
X586805Y421517D01*
X586833Y421534D01*
X586848Y421551D01*
X586880Y421577D01*
X587274Y421971D01*
X588692Y423389D01*
X588745Y423463D01*
X588805Y423533D01*
X588817Y423563D01*
X588836Y423589D01*
X588863Y423676D01*
X588897Y423761D01*
X588901Y423802D01*
X588908Y423824D01*
X588907Y423856D01*
X588915Y423927D01*
X588915Y425113D01*
X590518Y428982D01*
X593478Y431942D01*
X597347Y433545D01*
X601533Y433545D01*
X605402Y431942D01*
X608362Y428982D01*
X609965Y425113D01*
X609965Y423927D01*
X609979Y423837D01*
X609987Y423746D01*
X609999Y423717D01*
X610004Y423685D01*
X610047Y423604D01*
X610083Y423520D01*
X610109Y423488D01*
X610120Y423467D01*
X610143Y423445D01*
X610188Y423389D01*
X611499Y422078D01*
X612898Y418701D01*
X612932Y418645D01*
X612958Y418585D01*
X613010Y418520D01*
X613027Y418492D01*
X613042Y418479D01*
X613063Y418454D01*
X627016Y404501D01*
X627110Y404433D01*
X627204Y404363D01*
X627210Y404361D01*
X627215Y404358D01*
X627327Y404323D01*
X627438Y404287D01*
X627445Y404287D01*
X627451Y404285D01*
X627567Y404288D01*
X627684Y404289D01*
X627691Y404291D01*
X627696Y404292D01*
X627714Y404298D01*
X627845Y404336D01*
X627924Y404369D01*
X632876Y404369D01*
X637451Y402474D01*
X640952Y398973D01*
X642847Y394398D01*
X642847Y388273D01*
X642857Y388209D01*
X642858Y388143D01*
X642881Y388063D01*
X642886Y388031D01*
X642896Y388014D01*
X642905Y387982D01*
X644625Y383829D01*
X644625Y378171D01*
X642905Y374018D01*
X642890Y373954D01*
X642865Y373893D01*
X642856Y373810D01*
X642849Y373778D01*
X642850Y373759D01*
X642847Y373727D01*
X642847Y367602D01*
X640952Y363027D01*
X637451Y359526D01*
X632876Y357631D01*
X627924Y357631D01*
X623349Y359526D01*
X619848Y363027D01*
X617953Y367602D01*
X617953Y373015D01*
X617939Y373105D01*
X617931Y373196D01*
X617919Y373225D01*
X617914Y373257D01*
X617871Y373338D01*
X617835Y373422D01*
X617809Y373454D01*
X617798Y373475D01*
X617775Y373497D01*
X617730Y373553D01*
X607170Y384113D01*
X607154Y384125D01*
X607142Y384140D01*
X607054Y384196D01*
X606970Y384257D01*
X606951Y384262D01*
X606935Y384273D01*
X606834Y384299D01*
X606735Y384329D01*
X606715Y384328D01*
X606696Y384333D01*
X606593Y384325D01*
X606489Y384323D01*
X606471Y384316D01*
X606451Y384314D01*
X606356Y384274D01*
X606258Y384238D01*
X606243Y384226D01*
X606225Y384218D01*
X606094Y384113D01*
X595030Y373049D01*
X590921Y368941D01*
X585693Y366775D01*
X498967Y366775D01*
X498877Y366761D01*
X498786Y366753D01*
X498757Y366741D01*
X498725Y366736D01*
X498644Y366693D01*
X498560Y366657D01*
X498528Y366631D01*
X498507Y366620D01*
X498485Y366597D01*
X498429Y366552D01*
X488118Y356241D01*
X482889Y354075D01*
X231219Y354075D01*
X231148Y354064D01*
X231076Y354062D01*
X231027Y354044D01*
X230976Y354036D01*
X230913Y354002D01*
X230845Y353977D01*
X230805Y353945D01*
X230759Y353920D01*
X230709Y353869D01*
X230653Y353824D01*
X230625Y353780D01*
X230589Y353742D01*
X230559Y353677D01*
X230520Y353617D01*
X230508Y353566D01*
X230486Y353519D01*
X230478Y353448D01*
X230460Y353378D01*
X230464Y353326D01*
X230459Y353275D01*
X230474Y353204D01*
X230479Y353133D01*
X230500Y353085D01*
X230511Y353034D01*
X230548Y352973D01*
X230576Y352907D01*
X230620Y352851D01*
X230637Y352823D01*
X230655Y352808D01*
X230680Y352776D01*
X243556Y339900D01*
X243614Y339859D01*
X243666Y339809D01*
X243713Y339787D01*
X243755Y339757D01*
X243824Y339736D01*
X243889Y339706D01*
X243941Y339700D01*
X243991Y339685D01*
X244062Y339686D01*
X244133Y339679D01*
X244184Y339690D01*
X244236Y339691D01*
X244304Y339716D01*
X244374Y339731D01*
X244418Y339757D01*
X244467Y339775D01*
X244523Y339820D01*
X244585Y339857D01*
X244619Y339897D01*
X244659Y339929D01*
X244698Y339989D01*
X244745Y340044D01*
X244764Y340092D01*
X244792Y340136D01*
X244810Y340205D01*
X244837Y340272D01*
X244845Y340343D01*
X244853Y340375D01*
X244851Y340398D01*
X244855Y340439D01*
X244855Y341377D01*
X253238Y341377D01*
X253258Y341380D01*
X253277Y341378D01*
X253379Y341400D01*
X253481Y341417D01*
X253498Y341426D01*
X253518Y341430D01*
X253607Y341483D01*
X253698Y341532D01*
X253712Y341546D01*
X253729Y341556D01*
X253796Y341635D01*
X253867Y341710D01*
X253876Y341728D01*
X253889Y341743D01*
X253927Y341839D01*
X253971Y341933D01*
X253973Y341953D01*
X253981Y341971D01*
X253999Y342138D01*
X253999Y342901D01*
X254001Y342901D01*
X254001Y342138D01*
X254004Y342118D01*
X254002Y342099D01*
X254024Y341997D01*
X254041Y341895D01*
X254050Y341878D01*
X254054Y341858D01*
X254107Y341769D01*
X254156Y341678D01*
X254170Y341664D01*
X254180Y341647D01*
X254259Y341580D01*
X254334Y341509D01*
X254352Y341500D01*
X254367Y341487D01*
X254463Y341448D01*
X254557Y341405D01*
X254577Y341403D01*
X254595Y341395D01*
X254762Y341377D01*
X263145Y341377D01*
X263145Y339112D01*
X261629Y337596D01*
X261587Y337538D01*
X261538Y337486D01*
X261516Y337439D01*
X261485Y337397D01*
X261464Y337328D01*
X261434Y337263D01*
X261428Y337211D01*
X261413Y337161D01*
X261415Y337090D01*
X261407Y337019D01*
X261418Y336968D01*
X261419Y336916D01*
X261444Y336848D01*
X261459Y336778D01*
X261486Y336733D01*
X261504Y336685D01*
X261549Y336629D01*
X261585Y336567D01*
X261625Y336533D01*
X261657Y336493D01*
X261718Y336454D01*
X261772Y336407D01*
X261821Y336388D01*
X261864Y336360D01*
X261934Y336342D01*
X262000Y336315D01*
X262072Y336307D01*
X262103Y336299D01*
X262126Y336301D01*
X262167Y336297D01*
X296633Y336297D01*
X296704Y336308D01*
X296775Y336310D01*
X296824Y336328D01*
X296876Y336336D01*
X296939Y336370D01*
X297006Y336395D01*
X297047Y336427D01*
X297093Y336452D01*
X297142Y336504D01*
X297198Y336548D01*
X297227Y336592D01*
X297262Y336630D01*
X297293Y336695D01*
X297331Y336755D01*
X297344Y336806D01*
X297366Y336853D01*
X297374Y336924D01*
X297391Y336994D01*
X297387Y337046D01*
X297393Y337097D01*
X297378Y337168D01*
X297372Y337239D01*
X297352Y337287D01*
X297341Y337338D01*
X297304Y337399D01*
X297276Y337465D01*
X297231Y337521D01*
X297215Y337549D01*
X297197Y337564D01*
X297171Y337596D01*
X295655Y339112D01*
X295655Y341377D01*
X304038Y341377D01*
X304058Y341380D01*
X304077Y341378D01*
X304179Y341400D01*
X304281Y341417D01*
X304298Y341426D01*
X304318Y341430D01*
X304407Y341483D01*
X304498Y341532D01*
X304512Y341546D01*
X304529Y341556D01*
X304596Y341635D01*
X304667Y341710D01*
X304676Y341728D01*
X304689Y341743D01*
X304727Y341839D01*
X304771Y341933D01*
X304773Y341953D01*
X304781Y341971D01*
X304799Y342138D01*
X304799Y342901D01*
X304801Y342901D01*
X304801Y342138D01*
X304804Y342118D01*
X304802Y342099D01*
X304824Y341997D01*
X304841Y341895D01*
X304850Y341878D01*
X304854Y341858D01*
X304907Y341769D01*
X304956Y341678D01*
X304970Y341664D01*
X304980Y341647D01*
X305059Y341580D01*
X305134Y341509D01*
X305152Y341500D01*
X305167Y341487D01*
X305263Y341448D01*
X305357Y341405D01*
X305377Y341403D01*
X305395Y341395D01*
X305562Y341377D01*
X313945Y341377D01*
X313945Y339112D01*
X312429Y337596D01*
X312387Y337538D01*
X312338Y337486D01*
X312316Y337439D01*
X312285Y337397D01*
X312264Y337328D01*
X312234Y337263D01*
X312228Y337211D01*
X312213Y337161D01*
X312215Y337090D01*
X312207Y337019D01*
X312218Y336968D01*
X312219Y336916D01*
X312244Y336848D01*
X312259Y336778D01*
X312286Y336733D01*
X312304Y336685D01*
X312349Y336629D01*
X312385Y336567D01*
X312425Y336533D01*
X312457Y336493D01*
X312518Y336454D01*
X312572Y336407D01*
X312621Y336388D01*
X312664Y336360D01*
X312734Y336342D01*
X312800Y336315D01*
X312872Y336307D01*
X312903Y336299D01*
X312926Y336301D01*
X312967Y336297D01*
X347433Y336297D01*
X347504Y336308D01*
X347575Y336310D01*
X347624Y336328D01*
X347676Y336336D01*
X347739Y336370D01*
X347806Y336395D01*
X347847Y336427D01*
X347893Y336452D01*
X347942Y336504D01*
X347998Y336548D01*
X348027Y336592D01*
X348062Y336630D01*
X348093Y336695D01*
X348131Y336755D01*
X348144Y336806D01*
X348166Y336853D01*
X348174Y336924D01*
X348191Y336994D01*
X348187Y337046D01*
X348193Y337097D01*
X348178Y337168D01*
X348172Y337239D01*
X348152Y337287D01*
X348141Y337338D01*
X348104Y337399D01*
X348076Y337465D01*
X348031Y337521D01*
X348015Y337549D01*
X347997Y337564D01*
X347971Y337596D01*
X346455Y339112D01*
X346455Y341377D01*
X354838Y341377D01*
X354858Y341380D01*
X354877Y341378D01*
X354979Y341400D01*
X355081Y341417D01*
X355098Y341426D01*
X355118Y341430D01*
X355207Y341483D01*
X355298Y341532D01*
X355312Y341546D01*
X355329Y341556D01*
X355396Y341635D01*
X355467Y341710D01*
X355476Y341728D01*
X355489Y341743D01*
X355527Y341839D01*
X355571Y341933D01*
X355573Y341953D01*
X355581Y341971D01*
X355599Y342138D01*
X355599Y342901D01*
X355601Y342901D01*
X355601Y342138D01*
X355604Y342118D01*
X355602Y342099D01*
X355624Y341997D01*
X355641Y341895D01*
X355650Y341878D01*
X355654Y341858D01*
X355707Y341769D01*
X355756Y341678D01*
X355770Y341664D01*
X355780Y341647D01*
X355859Y341580D01*
X355934Y341509D01*
X355952Y341500D01*
X355967Y341487D01*
X356063Y341448D01*
X356157Y341405D01*
X356177Y341403D01*
X356195Y341395D01*
X356362Y341377D01*
X364745Y341377D01*
X364745Y339112D01*
X363229Y337596D01*
X363187Y337538D01*
X363138Y337486D01*
X363116Y337439D01*
X363085Y337397D01*
X363064Y337328D01*
X363034Y337263D01*
X363028Y337211D01*
X363013Y337161D01*
X363015Y337090D01*
X363007Y337019D01*
X363018Y336968D01*
X363019Y336916D01*
X363044Y336848D01*
X363059Y336778D01*
X363086Y336733D01*
X363104Y336685D01*
X363149Y336629D01*
X363185Y336567D01*
X363225Y336533D01*
X363257Y336493D01*
X363318Y336454D01*
X363372Y336407D01*
X363421Y336388D01*
X363464Y336360D01*
X363534Y336342D01*
X363600Y336315D01*
X363672Y336307D01*
X363703Y336299D01*
X363726Y336301D01*
X363767Y336297D01*
X398233Y336297D01*
X398304Y336308D01*
X398375Y336310D01*
X398424Y336328D01*
X398476Y336336D01*
X398539Y336370D01*
X398606Y336395D01*
X398647Y336427D01*
X398693Y336452D01*
X398742Y336504D01*
X398798Y336548D01*
X398827Y336592D01*
X398862Y336630D01*
X398893Y336695D01*
X398931Y336755D01*
X398944Y336806D01*
X398966Y336853D01*
X398974Y336924D01*
X398991Y336994D01*
X398987Y337046D01*
X398993Y337097D01*
X398978Y337168D01*
X398972Y337239D01*
X398952Y337287D01*
X398941Y337338D01*
X398904Y337399D01*
X398876Y337465D01*
X398831Y337521D01*
X398815Y337549D01*
X398797Y337564D01*
X398771Y337596D01*
X397255Y339112D01*
X397255Y341377D01*
X405638Y341377D01*
X405658Y341380D01*
X405677Y341378D01*
X405779Y341400D01*
X405881Y341417D01*
X405898Y341426D01*
X405918Y341430D01*
X406007Y341483D01*
X406098Y341532D01*
X406112Y341546D01*
X406129Y341556D01*
X406196Y341635D01*
X406267Y341710D01*
X406276Y341728D01*
X406289Y341743D01*
X406327Y341839D01*
X406371Y341933D01*
X406373Y341953D01*
X406381Y341971D01*
X406399Y342138D01*
X406399Y342901D01*
X406401Y342901D01*
X406401Y342138D01*
X406404Y342118D01*
X406402Y342099D01*
X406424Y341997D01*
X406441Y341895D01*
X406450Y341878D01*
X406454Y341858D01*
X406507Y341769D01*
X406556Y341678D01*
X406570Y341664D01*
X406580Y341647D01*
X406659Y341580D01*
X406734Y341509D01*
X406752Y341500D01*
X406767Y341487D01*
X406863Y341448D01*
X406957Y341405D01*
X406977Y341403D01*
X406995Y341395D01*
X407162Y341377D01*
X415545Y341377D01*
X415545Y339112D01*
X414029Y337596D01*
X413987Y337538D01*
X413938Y337486D01*
X413916Y337439D01*
X413885Y337397D01*
X413864Y337328D01*
X413834Y337263D01*
X413828Y337211D01*
X413813Y337161D01*
X413815Y337090D01*
X413807Y337019D01*
X413818Y336968D01*
X413819Y336916D01*
X413844Y336848D01*
X413859Y336778D01*
X413886Y336733D01*
X413904Y336685D01*
X413949Y336629D01*
X413985Y336567D01*
X414025Y336533D01*
X414057Y336493D01*
X414118Y336454D01*
X414172Y336407D01*
X414221Y336388D01*
X414264Y336360D01*
X414334Y336342D01*
X414400Y336315D01*
X414472Y336307D01*
X414503Y336299D01*
X414526Y336301D01*
X414567Y336297D01*
X499853Y336297D01*
X502159Y333990D01*
X511413Y324737D01*
X511429Y324725D01*
X511442Y324709D01*
X511529Y324653D01*
X511613Y324593D01*
X511632Y324587D01*
X511649Y324576D01*
X511749Y324551D01*
X511848Y324521D01*
X511868Y324521D01*
X511887Y324516D01*
X511990Y324524D01*
X512094Y324527D01*
X512113Y324534D01*
X512132Y324536D01*
X512227Y324576D01*
X512325Y324612D01*
X512340Y324624D01*
X512359Y324632D01*
X512490Y324737D01*
X514513Y326760D01*
X518527Y328423D01*
X522873Y328423D01*
X526887Y326760D01*
X529960Y323687D01*
X531623Y319673D01*
X531623Y316971D01*
X531634Y316900D01*
X531636Y316828D01*
X531654Y316779D01*
X531662Y316728D01*
X531696Y316665D01*
X531721Y316597D01*
X531753Y316557D01*
X531778Y316511D01*
X531829Y316461D01*
X531874Y316405D01*
X531918Y316377D01*
X531956Y316341D01*
X532021Y316311D01*
X532081Y316272D01*
X532132Y316260D01*
X532179Y316238D01*
X532250Y316230D01*
X532320Y316212D01*
X532372Y316216D01*
X532423Y316211D01*
X532494Y316226D01*
X532565Y316231D01*
X532613Y316252D01*
X532664Y316263D01*
X532725Y316300D01*
X532791Y316328D01*
X532847Y316372D01*
X532875Y316389D01*
X532890Y316407D01*
X532922Y316432D01*
X534954Y318465D01*
X535007Y318538D01*
X535067Y318608D01*
X535079Y318638D01*
X535098Y318664D01*
X535125Y318751D01*
X535159Y318836D01*
X535163Y318877D01*
X535170Y318899D01*
X535169Y318932D01*
X535177Y319003D01*
X535177Y319673D01*
X536840Y323687D01*
X539913Y326760D01*
X543927Y328423D01*
X548273Y328423D01*
X552287Y326760D01*
X555360Y323687D01*
X557023Y319673D01*
X557023Y315327D01*
X555360Y311313D01*
X552287Y308240D01*
X548273Y306577D01*
X543927Y306577D01*
X539913Y308240D01*
X537890Y310263D01*
X537873Y310275D01*
X537861Y310291D01*
X537774Y310347D01*
X537690Y310407D01*
X537671Y310413D01*
X537654Y310424D01*
X537554Y310449D01*
X537455Y310479D01*
X537435Y310479D01*
X537416Y310484D01*
X537313Y310476D01*
X537209Y310473D01*
X537190Y310466D01*
X537170Y310464D01*
X537075Y310424D01*
X536978Y310388D01*
X536962Y310376D01*
X536944Y310368D01*
X536813Y310263D01*
X505474Y278924D01*
X505432Y278866D01*
X505383Y278814D01*
X505361Y278767D01*
X505330Y278725D01*
X505309Y278656D01*
X505279Y278591D01*
X505273Y278539D01*
X505258Y278489D01*
X505260Y278418D01*
X505252Y278347D01*
X505263Y278296D01*
X505264Y278244D01*
X505289Y278176D01*
X505304Y278106D01*
X505331Y278062D01*
X505349Y278013D01*
X505394Y277957D01*
X505430Y277895D01*
X505470Y277861D01*
X505503Y277821D01*
X505563Y277782D01*
X505617Y277735D01*
X505666Y277716D01*
X505710Y277688D01*
X505779Y277670D01*
X505846Y277643D01*
X505917Y277635D01*
X505948Y277627D01*
X505971Y277629D01*
X506012Y277625D01*
X526998Y277625D01*
X527088Y277639D01*
X527179Y277647D01*
X527209Y277659D01*
X527241Y277664D01*
X527321Y277707D01*
X527405Y277743D01*
X527437Y277769D01*
X527458Y277780D01*
X527480Y277803D01*
X527536Y277848D01*
X561518Y311829D01*
X561585Y311923D01*
X561602Y311946D01*
X561605Y311949D01*
X561606Y311951D01*
X561656Y312018D01*
X561658Y312024D01*
X561661Y312029D01*
X561695Y312140D01*
X561699Y312152D01*
X561708Y312172D01*
X561710Y312185D01*
X561732Y312252D01*
X561732Y312258D01*
X561734Y312264D01*
X561731Y312372D01*
X561736Y312416D01*
X561730Y312443D01*
X561729Y312498D01*
X561727Y312505D01*
X561727Y312510D01*
X561721Y312527D01*
X561684Y312655D01*
X561683Y312657D01*
X561683Y312659D01*
X560577Y315327D01*
X560577Y319673D01*
X562240Y323687D01*
X565313Y326760D01*
X569327Y328423D01*
X573673Y328423D01*
X577687Y326760D01*
X580760Y323687D01*
X582423Y319673D01*
X582423Y315327D01*
X580760Y311313D01*
X577687Y308240D01*
X573673Y306577D01*
X569327Y306577D01*
X566659Y307683D01*
X566545Y307709D01*
X566432Y307738D01*
X566425Y307737D01*
X566419Y307739D01*
X566303Y307728D01*
X566186Y307719D01*
X566181Y307716D01*
X566174Y307716D01*
X566067Y307668D01*
X565960Y307622D01*
X565954Y307618D01*
X565950Y307616D01*
X565936Y307603D01*
X565829Y307518D01*
X531848Y273536D01*
X529839Y271527D01*
X310868Y271527D01*
X310848Y271524D01*
X310829Y271526D01*
X310727Y271504D01*
X310625Y271488D01*
X310608Y271478D01*
X310588Y271474D01*
X310499Y271421D01*
X310408Y271372D01*
X310394Y271358D01*
X310377Y271348D01*
X310310Y271269D01*
X310238Y271194D01*
X310230Y271176D01*
X310217Y271161D01*
X310178Y271065D01*
X310135Y270971D01*
X310133Y270951D01*
X310125Y270933D01*
X310107Y270766D01*
X310107Y270120D01*
X306998Y267011D01*
X302602Y267011D01*
X299493Y270120D01*
X299493Y274516D01*
X299777Y274800D01*
X299819Y274858D01*
X299868Y274910D01*
X299890Y274957D01*
X299920Y274999D01*
X299942Y275068D01*
X299972Y275133D01*
X299977Y275185D01*
X299993Y275235D01*
X299991Y275306D01*
X299999Y275377D01*
X299988Y275428D01*
X299986Y275480D01*
X299962Y275548D01*
X299947Y275618D01*
X299920Y275663D01*
X299902Y275711D01*
X299857Y275767D01*
X299820Y275829D01*
X299781Y275863D01*
X299748Y275903D01*
X299688Y275942D01*
X299633Y275989D01*
X299585Y276008D01*
X299541Y276036D01*
X299472Y276054D01*
X299405Y276081D01*
X299334Y276089D01*
X299303Y276097D01*
X299280Y276095D01*
X299239Y276099D01*
X294145Y276099D01*
X294054Y276085D01*
X293964Y276077D01*
X293934Y276065D01*
X293902Y276060D01*
X293821Y276017D01*
X293737Y275981D01*
X293705Y275955D01*
X293684Y275944D01*
X293662Y275921D01*
X293606Y275876D01*
X286217Y268487D01*
X235733Y268487D01*
X235642Y268473D01*
X235552Y268465D01*
X235522Y268453D01*
X235490Y268448D01*
X235409Y268405D01*
X235325Y268369D01*
X235293Y268343D01*
X235272Y268332D01*
X235250Y268309D01*
X235194Y268264D01*
X218537Y251607D01*
X218524Y251588D01*
X218495Y251562D01*
X210907Y242659D01*
X210875Y242606D01*
X210835Y242560D01*
X210812Y242502D01*
X210779Y242448D01*
X210766Y242388D01*
X210743Y242332D01*
X210733Y242240D01*
X210726Y242208D01*
X210728Y242192D01*
X210725Y242165D01*
X210725Y232468D01*
X209832Y231575D01*
X196568Y231575D01*
G37*
%LPD*%
%LPC*%
G36*
X694922Y214121D02*
X694922Y214121D01*
X688009Y215973D01*
X681812Y219552D01*
X676752Y224612D01*
X673173Y230809D01*
X671321Y237722D01*
X671321Y244878D01*
X673173Y251791D01*
X676752Y257988D01*
X681812Y263048D01*
X688009Y266627D01*
X694922Y268479D01*
X702078Y268479D01*
X708991Y266627D01*
X715188Y263048D01*
X720248Y257988D01*
X723827Y251791D01*
X725679Y244878D01*
X725679Y237722D01*
X723827Y230809D01*
X720248Y224612D01*
X715188Y219552D01*
X708991Y215973D01*
X702078Y214121D01*
X694922Y214121D01*
G37*
%LPD*%
%LPC*%
G36*
X466322Y214121D02*
X466322Y214121D01*
X459409Y215973D01*
X453212Y219552D01*
X448152Y224612D01*
X444573Y230809D01*
X442721Y237722D01*
X442721Y244878D01*
X444573Y251791D01*
X448152Y257988D01*
X453212Y263048D01*
X459409Y266627D01*
X466322Y268479D01*
X473478Y268479D01*
X480391Y266627D01*
X486588Y263048D01*
X491648Y257988D01*
X495227Y251791D01*
X497079Y244878D01*
X497079Y237722D01*
X495227Y230809D01*
X491648Y224612D01*
X486588Y219552D01*
X480391Y215973D01*
X473478Y214121D01*
X466322Y214121D01*
G37*
%LPD*%
%LPC*%
G36*
X479726Y28701D02*
X479726Y28701D01*
X479079Y28874D01*
X478500Y29209D01*
X478027Y29682D01*
X477868Y29958D01*
X477793Y30049D01*
X477718Y30143D01*
X477714Y30145D01*
X477712Y30148D01*
X477612Y30211D01*
X477511Y30276D01*
X477507Y30277D01*
X477503Y30279D01*
X477388Y30307D01*
X477272Y30336D01*
X477268Y30336D01*
X477264Y30337D01*
X477146Y30326D01*
X477027Y30317D01*
X477023Y30315D01*
X477019Y30315D01*
X476911Y30267D01*
X476801Y30221D01*
X476797Y30217D01*
X476794Y30216D01*
X476784Y30207D01*
X476670Y30116D01*
X476272Y29717D01*
X469928Y29717D01*
X469035Y30610D01*
X469035Y45082D01*
X469928Y45975D01*
X473202Y45975D01*
X473222Y45978D01*
X473241Y45976D01*
X473343Y45998D01*
X473445Y46014D01*
X473462Y46024D01*
X473482Y46028D01*
X473571Y46081D01*
X473662Y46130D01*
X473676Y46144D01*
X473693Y46154D01*
X473760Y46233D01*
X473832Y46308D01*
X473840Y46326D01*
X473853Y46341D01*
X473892Y46437D01*
X473935Y46531D01*
X473937Y46551D01*
X473945Y46569D01*
X473963Y46736D01*
X473963Y46975D01*
X477535Y50547D01*
X487665Y50547D01*
X491237Y46975D01*
X491237Y46736D01*
X491240Y46716D01*
X491238Y46697D01*
X491260Y46595D01*
X491276Y46493D01*
X491286Y46476D01*
X491290Y46456D01*
X491343Y46367D01*
X491392Y46276D01*
X491406Y46262D01*
X491416Y46245D01*
X491495Y46178D01*
X491570Y46106D01*
X491588Y46098D01*
X491603Y46085D01*
X491699Y46046D01*
X491793Y46003D01*
X491813Y46001D01*
X491831Y45993D01*
X491998Y45975D01*
X495272Y45975D01*
X496165Y45082D01*
X496165Y44196D01*
X496168Y44176D01*
X496166Y44157D01*
X496188Y44055D01*
X496204Y43953D01*
X496214Y43936D01*
X496218Y43916D01*
X496271Y43827D01*
X496320Y43736D01*
X496334Y43722D01*
X496344Y43705D01*
X496423Y43638D01*
X496498Y43566D01*
X496516Y43558D01*
X496531Y43545D01*
X496627Y43506D01*
X496721Y43463D01*
X496741Y43461D01*
X496759Y43453D01*
X496926Y43435D01*
X505116Y43435D01*
X505206Y43449D01*
X505297Y43457D01*
X505327Y43469D01*
X505358Y43474D01*
X505439Y43517D01*
X505523Y43553D01*
X505555Y43579D01*
X505576Y43590D01*
X505598Y43613D01*
X505654Y43658D01*
X511452Y49456D01*
X511505Y49530D01*
X511565Y49599D01*
X511577Y49630D01*
X511596Y49656D01*
X511623Y49743D01*
X511657Y49828D01*
X511661Y49868D01*
X511668Y49891D01*
X511667Y49923D01*
X511675Y49994D01*
X511675Y54732D01*
X512568Y55625D01*
X520792Y55625D01*
X520857Y55635D01*
X520923Y55636D01*
X521003Y55659D01*
X521035Y55664D01*
X521052Y55674D01*
X521084Y55683D01*
X522788Y56389D01*
X547212Y56389D01*
X547753Y56165D01*
X547816Y56150D01*
X547877Y56125D01*
X547960Y56116D01*
X547992Y56109D01*
X548011Y56110D01*
X548044Y56107D01*
X548298Y56107D01*
X548478Y55927D01*
X548531Y55889D01*
X548578Y55843D01*
X548651Y55803D01*
X548678Y55783D01*
X548696Y55778D01*
X548725Y55762D01*
X549266Y55538D01*
X550838Y53966D01*
X551062Y53425D01*
X551097Y53369D01*
X551122Y53309D01*
X551174Y53244D01*
X551192Y53216D01*
X551207Y53203D01*
X551227Y53178D01*
X551407Y52998D01*
X551407Y52744D01*
X551417Y52679D01*
X551418Y52614D01*
X551441Y52533D01*
X551446Y52501D01*
X551456Y52484D01*
X551465Y52453D01*
X551689Y51912D01*
X551689Y49688D01*
X551465Y49147D01*
X551450Y49084D01*
X551425Y49023D01*
X551416Y48940D01*
X551409Y48908D01*
X551410Y48889D01*
X551407Y48856D01*
X551407Y48602D01*
X551227Y48422D01*
X551189Y48369D01*
X551143Y48322D01*
X551103Y48249D01*
X551083Y48222D01*
X551078Y48204D01*
X551062Y48175D01*
X550838Y47634D01*
X549266Y46062D01*
X548725Y45838D01*
X548669Y45803D01*
X548609Y45778D01*
X548544Y45726D01*
X548516Y45708D01*
X548503Y45693D01*
X548478Y45673D01*
X548298Y45493D01*
X548044Y45493D01*
X547979Y45483D01*
X547914Y45482D01*
X547834Y45459D01*
X547801Y45454D01*
X547784Y45444D01*
X547753Y45435D01*
X547212Y45211D01*
X530486Y45211D01*
X530466Y45208D01*
X530447Y45210D01*
X530345Y45188D01*
X530243Y45172D01*
X530226Y45162D01*
X530206Y45158D01*
X530117Y45105D01*
X530026Y45056D01*
X530012Y45042D01*
X529995Y45032D01*
X529928Y44953D01*
X529856Y44878D01*
X529848Y44860D01*
X529835Y44845D01*
X529796Y44749D01*
X529753Y44655D01*
X529751Y44635D01*
X529743Y44617D01*
X529725Y44450D01*
X529725Y40468D01*
X528832Y39575D01*
X517694Y39575D01*
X517604Y39561D01*
X517513Y39553D01*
X517483Y39541D01*
X517452Y39536D01*
X517371Y39493D01*
X517287Y39457D01*
X517255Y39431D01*
X517234Y39420D01*
X517212Y39397D01*
X517156Y39352D01*
X516744Y38940D01*
X516702Y38882D01*
X516653Y38830D01*
X516631Y38783D01*
X516600Y38741D01*
X516579Y38672D01*
X516549Y38607D01*
X516543Y38555D01*
X516528Y38505D01*
X516530Y38434D01*
X516522Y38363D01*
X516533Y38312D01*
X516534Y38260D01*
X516559Y38192D01*
X516574Y38122D01*
X516601Y38077D01*
X516619Y38029D01*
X516664Y37973D01*
X516700Y37911D01*
X516740Y37877D01*
X516773Y37837D01*
X516833Y37798D01*
X516887Y37751D01*
X516936Y37732D01*
X516979Y37704D01*
X517049Y37686D01*
X517115Y37659D01*
X517187Y37651D01*
X517218Y37643D01*
X517241Y37645D01*
X517282Y37641D01*
X519177Y37641D01*
X519177Y30123D01*
X510659Y30123D01*
X510659Y31864D01*
X510652Y31909D01*
X510654Y31955D01*
X510632Y32030D01*
X510620Y32107D01*
X510598Y32147D01*
X510585Y32192D01*
X510541Y32256D01*
X510504Y32324D01*
X510471Y32356D01*
X510445Y32394D01*
X510383Y32440D01*
X510326Y32494D01*
X510284Y32513D01*
X510248Y32540D01*
X510174Y32565D01*
X510103Y32597D01*
X510057Y32602D01*
X510014Y32617D01*
X509936Y32616D01*
X509859Y32624D01*
X509814Y32615D01*
X509768Y32614D01*
X509636Y32576D01*
X509618Y32572D01*
X509614Y32570D01*
X509607Y32568D01*
X508858Y32257D01*
X496926Y32257D01*
X496906Y32254D01*
X496887Y32256D01*
X496785Y32234D01*
X496683Y32218D01*
X496666Y32208D01*
X496646Y32204D01*
X496557Y32151D01*
X496466Y32102D01*
X496452Y32088D01*
X496435Y32078D01*
X496368Y31999D01*
X496296Y31924D01*
X496288Y31906D01*
X496275Y31891D01*
X496236Y31795D01*
X496193Y31701D01*
X496191Y31681D01*
X496183Y31663D01*
X496165Y31496D01*
X496165Y30610D01*
X495272Y29717D01*
X488928Y29717D01*
X488530Y30116D01*
X488433Y30185D01*
X488338Y30256D01*
X488334Y30257D01*
X488330Y30259D01*
X488217Y30294D01*
X488103Y30330D01*
X488099Y30330D01*
X488095Y30332D01*
X487977Y30329D01*
X487857Y30327D01*
X487853Y30325D01*
X487849Y30325D01*
X487738Y30285D01*
X487625Y30245D01*
X487622Y30242D01*
X487618Y30241D01*
X487526Y30167D01*
X487432Y30093D01*
X487429Y30089D01*
X487426Y30087D01*
X487419Y30075D01*
X487332Y29958D01*
X487173Y29682D01*
X486700Y29209D01*
X486121Y28874D01*
X485474Y28701D01*
X483869Y28701D01*
X483869Y37338D01*
X483866Y37357D01*
X483868Y37377D01*
X483846Y37479D01*
X483830Y37581D01*
X483820Y37598D01*
X483816Y37618D01*
X483763Y37707D01*
X483714Y37798D01*
X483700Y37812D01*
X483690Y37829D01*
X483611Y37896D01*
X483536Y37967D01*
X483518Y37976D01*
X483503Y37989D01*
X483407Y38027D01*
X483313Y38071D01*
X483293Y38073D01*
X483275Y38081D01*
X483108Y38099D01*
X482092Y38099D01*
X482072Y38096D01*
X482052Y38098D01*
X481951Y38076D01*
X481849Y38059D01*
X481832Y38050D01*
X481812Y38046D01*
X481723Y37993D01*
X481632Y37944D01*
X481618Y37930D01*
X481601Y37920D01*
X481534Y37841D01*
X481462Y37766D01*
X481454Y37748D01*
X481441Y37733D01*
X481402Y37636D01*
X481359Y37543D01*
X481357Y37523D01*
X481349Y37505D01*
X481331Y37338D01*
X481331Y28701D01*
X479726Y28701D01*
G37*
%LPD*%
%LPC*%
G36*
X647002Y416553D02*
X647002Y416553D01*
X642427Y418448D01*
X638926Y421949D01*
X637031Y426524D01*
X637031Y431476D01*
X638926Y436051D01*
X642427Y439552D01*
X647002Y441447D01*
X673798Y441447D01*
X678373Y439552D01*
X681874Y436051D01*
X683769Y431476D01*
X683769Y426524D01*
X681874Y421949D01*
X678373Y418448D01*
X673798Y416553D01*
X647002Y416553D01*
G37*
%LPD*%
%LPC*%
G36*
X133068Y295075D02*
X133068Y295075D01*
X132175Y295968D01*
X132175Y309232D01*
X133068Y310125D01*
X146332Y310125D01*
X147225Y309232D01*
X147225Y308610D01*
X147228Y308590D01*
X147226Y308571D01*
X147248Y308469D01*
X147264Y308367D01*
X147274Y308350D01*
X147278Y308330D01*
X147331Y308241D01*
X147380Y308150D01*
X147394Y308136D01*
X147404Y308119D01*
X147483Y308052D01*
X147558Y307980D01*
X147576Y307972D01*
X147591Y307959D01*
X147687Y307920D01*
X147781Y307877D01*
X147801Y307875D01*
X147819Y307867D01*
X147986Y307849D01*
X211129Y307849D01*
X211219Y307863D01*
X211310Y307871D01*
X211339Y307883D01*
X211371Y307888D01*
X211452Y307931D01*
X211536Y307967D01*
X211568Y307993D01*
X211589Y308004D01*
X211611Y308027D01*
X211667Y308072D01*
X213702Y310107D01*
X218098Y310107D01*
X221207Y306998D01*
X221207Y302602D01*
X218098Y299493D01*
X213702Y299493D01*
X211667Y301528D01*
X211593Y301581D01*
X211523Y301641D01*
X211493Y301653D01*
X211467Y301672D01*
X211380Y301699D01*
X211295Y301733D01*
X211254Y301737D01*
X211232Y301744D01*
X211200Y301743D01*
X211129Y301751D01*
X147986Y301751D01*
X147966Y301748D01*
X147947Y301750D01*
X147845Y301728D01*
X147743Y301712D01*
X147726Y301702D01*
X147706Y301698D01*
X147617Y301645D01*
X147526Y301596D01*
X147512Y301582D01*
X147495Y301572D01*
X147428Y301493D01*
X147356Y301418D01*
X147348Y301400D01*
X147335Y301385D01*
X147296Y301289D01*
X147253Y301195D01*
X147251Y301175D01*
X147243Y301157D01*
X147225Y300990D01*
X147225Y295968D01*
X146332Y295075D01*
X133068Y295075D01*
G37*
%LPD*%
%LPC*%
G36*
X196568Y210575D02*
X196568Y210575D01*
X195675Y211468D01*
X195675Y213274D01*
X195672Y213294D01*
X195674Y213313D01*
X195652Y213414D01*
X195636Y213517D01*
X195626Y213534D01*
X195622Y213554D01*
X195569Y213643D01*
X195520Y213734D01*
X195506Y213748D01*
X195496Y213765D01*
X195417Y213832D01*
X195342Y213904D01*
X195324Y213912D01*
X195309Y213925D01*
X195213Y213964D01*
X195119Y214007D01*
X195099Y214009D01*
X195081Y214017D01*
X194914Y214035D01*
X187586Y214035D01*
X187566Y214032D01*
X187547Y214034D01*
X187445Y214012D01*
X187343Y213996D01*
X187326Y213986D01*
X187306Y213982D01*
X187217Y213929D01*
X187126Y213880D01*
X187112Y213866D01*
X187095Y213856D01*
X187028Y213777D01*
X186956Y213702D01*
X186948Y213684D01*
X186935Y213669D01*
X186896Y213573D01*
X186853Y213479D01*
X186851Y213459D01*
X186843Y213441D01*
X186825Y213274D01*
X186825Y211968D01*
X185932Y211075D01*
X169668Y211075D01*
X168775Y211968D01*
X168775Y226232D01*
X169668Y227125D01*
X185932Y227125D01*
X186825Y226232D01*
X186825Y222926D01*
X186828Y222906D01*
X186826Y222887D01*
X186848Y222785D01*
X186864Y222683D01*
X186874Y222666D01*
X186878Y222646D01*
X186931Y222557D01*
X186980Y222466D01*
X186994Y222452D01*
X187004Y222435D01*
X187083Y222368D01*
X187158Y222296D01*
X187176Y222288D01*
X187191Y222275D01*
X187287Y222236D01*
X187381Y222193D01*
X187401Y222191D01*
X187419Y222183D01*
X187586Y222165D01*
X194914Y222165D01*
X194934Y222168D01*
X194953Y222166D01*
X195055Y222188D01*
X195157Y222204D01*
X195174Y222214D01*
X195194Y222218D01*
X195283Y222271D01*
X195374Y222320D01*
X195388Y222334D01*
X195405Y222344D01*
X195472Y222423D01*
X195544Y222498D01*
X195552Y222516D01*
X195565Y222531D01*
X195604Y222627D01*
X195647Y222721D01*
X195649Y222741D01*
X195657Y222759D01*
X195675Y222926D01*
X195675Y224732D01*
X196568Y225625D01*
X209832Y225625D01*
X210725Y224732D01*
X210725Y211468D01*
X209832Y210575D01*
X196568Y210575D01*
G37*
%LPD*%
%LPC*%
G36*
X133068Y274075D02*
X133068Y274075D01*
X132175Y274968D01*
X132175Y276774D01*
X132172Y276794D01*
X132174Y276813D01*
X132152Y276915D01*
X132136Y277017D01*
X132126Y277034D01*
X132122Y277054D01*
X132069Y277143D01*
X132020Y277234D01*
X132006Y277248D01*
X131996Y277265D01*
X131917Y277332D01*
X131842Y277404D01*
X131824Y277412D01*
X131809Y277425D01*
X131713Y277464D01*
X131619Y277507D01*
X131599Y277509D01*
X131581Y277517D01*
X131414Y277535D01*
X124086Y277535D01*
X124066Y277532D01*
X124047Y277534D01*
X123945Y277512D01*
X123843Y277496D01*
X123826Y277486D01*
X123806Y277482D01*
X123717Y277429D01*
X123626Y277380D01*
X123612Y277366D01*
X123595Y277356D01*
X123528Y277277D01*
X123456Y277202D01*
X123448Y277184D01*
X123435Y277169D01*
X123396Y277073D01*
X123353Y276979D01*
X123351Y276959D01*
X123343Y276941D01*
X123325Y276774D01*
X123325Y275468D01*
X122432Y274575D01*
X106168Y274575D01*
X105275Y275468D01*
X105275Y289732D01*
X106168Y290625D01*
X122432Y290625D01*
X123325Y289732D01*
X123325Y286426D01*
X123328Y286406D01*
X123326Y286387D01*
X123348Y286285D01*
X123364Y286183D01*
X123374Y286166D01*
X123378Y286146D01*
X123431Y286057D01*
X123480Y285966D01*
X123494Y285952D01*
X123504Y285935D01*
X123583Y285868D01*
X123658Y285796D01*
X123676Y285788D01*
X123691Y285775D01*
X123787Y285736D01*
X123881Y285693D01*
X123901Y285691D01*
X123919Y285683D01*
X124086Y285665D01*
X131414Y285665D01*
X131434Y285668D01*
X131453Y285666D01*
X131555Y285688D01*
X131657Y285704D01*
X131674Y285714D01*
X131694Y285718D01*
X131783Y285771D01*
X131874Y285820D01*
X131888Y285834D01*
X131905Y285844D01*
X131972Y285923D01*
X132044Y285998D01*
X132052Y286016D01*
X132065Y286031D01*
X132104Y286127D01*
X132147Y286221D01*
X132149Y286241D01*
X132157Y286259D01*
X132175Y286426D01*
X132175Y288232D01*
X133068Y289125D01*
X146332Y289125D01*
X147225Y288232D01*
X147225Y274968D01*
X146332Y274075D01*
X133068Y274075D01*
G37*
%LPD*%
%LPC*%
G36*
X196568Y337575D02*
X196568Y337575D01*
X195675Y338468D01*
X195675Y340274D01*
X195672Y340294D01*
X195674Y340313D01*
X195652Y340415D01*
X195636Y340517D01*
X195626Y340534D01*
X195622Y340554D01*
X195569Y340643D01*
X195520Y340734D01*
X195506Y340748D01*
X195496Y340765D01*
X195417Y340832D01*
X195342Y340904D01*
X195324Y340912D01*
X195309Y340925D01*
X195213Y340964D01*
X195119Y341007D01*
X195099Y341009D01*
X195081Y341017D01*
X194914Y341035D01*
X187586Y341035D01*
X187566Y341032D01*
X187547Y341034D01*
X187445Y341012D01*
X187343Y340996D01*
X187326Y340986D01*
X187306Y340982D01*
X187217Y340929D01*
X187126Y340880D01*
X187112Y340866D01*
X187095Y340856D01*
X187028Y340777D01*
X186956Y340702D01*
X186948Y340684D01*
X186935Y340669D01*
X186896Y340573D01*
X186853Y340479D01*
X186851Y340459D01*
X186843Y340441D01*
X186825Y340274D01*
X186825Y338968D01*
X185932Y338075D01*
X169668Y338075D01*
X168775Y338968D01*
X168775Y353232D01*
X169668Y354125D01*
X185932Y354125D01*
X186825Y353232D01*
X186825Y349926D01*
X186828Y349906D01*
X186826Y349887D01*
X186848Y349785D01*
X186864Y349683D01*
X186874Y349666D01*
X186878Y349646D01*
X186931Y349557D01*
X186980Y349466D01*
X186994Y349452D01*
X187004Y349435D01*
X187083Y349368D01*
X187158Y349296D01*
X187176Y349288D01*
X187191Y349275D01*
X187287Y349236D01*
X187381Y349193D01*
X187401Y349191D01*
X187419Y349183D01*
X187586Y349165D01*
X194914Y349165D01*
X194934Y349168D01*
X194953Y349166D01*
X195055Y349188D01*
X195157Y349204D01*
X195174Y349214D01*
X195194Y349218D01*
X195283Y349271D01*
X195374Y349320D01*
X195388Y349334D01*
X195405Y349344D01*
X195472Y349423D01*
X195544Y349498D01*
X195552Y349516D01*
X195565Y349531D01*
X195604Y349627D01*
X195647Y349721D01*
X195649Y349741D01*
X195657Y349759D01*
X195675Y349926D01*
X195675Y351732D01*
X196568Y352625D01*
X209832Y352625D01*
X210725Y351732D01*
X210725Y338468D01*
X209832Y337575D01*
X196568Y337575D01*
G37*
%LPD*%
%LPC*%
G36*
X721727Y306577D02*
X721727Y306577D01*
X717713Y308240D01*
X714640Y311313D01*
X712977Y315327D01*
X712977Y319673D01*
X714640Y323687D01*
X717713Y326760D01*
X721727Y328423D01*
X726073Y328423D01*
X730087Y326760D01*
X733160Y323687D01*
X734823Y319673D01*
X734823Y315327D01*
X733160Y311313D01*
X730087Y308240D01*
X726073Y306577D01*
X721727Y306577D01*
G37*
%LPD*%
%LPC*%
G36*
X620127Y306577D02*
X620127Y306577D01*
X616113Y308240D01*
X613040Y311313D01*
X611377Y315327D01*
X611377Y319673D01*
X613040Y323687D01*
X616113Y326760D01*
X620127Y328423D01*
X624473Y328423D01*
X628487Y326760D01*
X631560Y323687D01*
X633223Y319673D01*
X633223Y315327D01*
X631560Y311313D01*
X628487Y308240D01*
X624473Y306577D01*
X620127Y306577D01*
G37*
%LPD*%
%LPC*%
G36*
X543927Y154177D02*
X543927Y154177D01*
X539913Y155840D01*
X536840Y158913D01*
X535177Y162927D01*
X535177Y167273D01*
X536840Y171287D01*
X539913Y174360D01*
X543927Y176023D01*
X548273Y176023D01*
X552287Y174360D01*
X555360Y171287D01*
X557023Y167273D01*
X557023Y162927D01*
X555360Y158913D01*
X552287Y155840D01*
X548273Y154177D01*
X543927Y154177D01*
G37*
%LPD*%
%LPC*%
G36*
X670927Y154177D02*
X670927Y154177D01*
X666913Y155840D01*
X663840Y158913D01*
X662177Y162927D01*
X662177Y167273D01*
X663840Y171287D01*
X666913Y174360D01*
X670927Y176023D01*
X675273Y176023D01*
X679287Y174360D01*
X682360Y171287D01*
X684023Y167273D01*
X684023Y162927D01*
X682360Y158913D01*
X679287Y155840D01*
X675273Y154177D01*
X670927Y154177D01*
G37*
%LPD*%
%LPC*%
G36*
X569327Y154177D02*
X569327Y154177D01*
X565313Y155840D01*
X562240Y158913D01*
X560577Y162927D01*
X560577Y167273D01*
X562240Y171287D01*
X565313Y174360D01*
X569327Y176023D01*
X573673Y176023D01*
X577687Y174360D01*
X580760Y171287D01*
X582423Y167273D01*
X582423Y162927D01*
X580760Y158913D01*
X577687Y155840D01*
X573673Y154177D01*
X569327Y154177D01*
G37*
%LPD*%
%LPC*%
G36*
X493127Y154177D02*
X493127Y154177D01*
X489113Y155840D01*
X486040Y158913D01*
X484377Y162927D01*
X484377Y167273D01*
X486040Y171287D01*
X489113Y174360D01*
X493127Y176023D01*
X497473Y176023D01*
X501487Y174360D01*
X504560Y171287D01*
X506223Y167273D01*
X506223Y162927D01*
X504560Y158913D01*
X501487Y155840D01*
X497473Y154177D01*
X493127Y154177D01*
G37*
%LPD*%
%LPC*%
G36*
X518527Y154177D02*
X518527Y154177D01*
X514513Y155840D01*
X511440Y158913D01*
X509777Y162927D01*
X509777Y167273D01*
X511440Y171287D01*
X514513Y174360D01*
X518527Y176023D01*
X522873Y176023D01*
X526887Y174360D01*
X529960Y171287D01*
X531623Y167273D01*
X531623Y162927D01*
X529960Y158913D01*
X526887Y155840D01*
X522873Y154177D01*
X518527Y154177D01*
G37*
%LPD*%
%LPC*%
G36*
X721727Y154177D02*
X721727Y154177D01*
X717713Y155840D01*
X714640Y158913D01*
X712977Y162927D01*
X712977Y167273D01*
X714640Y171287D01*
X717713Y174360D01*
X721727Y176023D01*
X726073Y176023D01*
X730087Y174360D01*
X733160Y171287D01*
X734823Y167273D01*
X734823Y162927D01*
X733160Y158913D01*
X730087Y155840D01*
X726073Y154177D01*
X721727Y154177D01*
G37*
%LPD*%
%LPC*%
G36*
X696327Y306577D02*
X696327Y306577D01*
X692313Y308240D01*
X689240Y311313D01*
X687577Y315327D01*
X687577Y319673D01*
X689240Y323687D01*
X692313Y326760D01*
X696327Y328423D01*
X700673Y328423D01*
X704687Y326760D01*
X707760Y323687D01*
X709423Y319673D01*
X709423Y315327D01*
X707760Y311313D01*
X704687Y308240D01*
X700673Y306577D01*
X696327Y306577D01*
G37*
%LPD*%
%LPC*%
G36*
X369768Y229775D02*
X369768Y229775D01*
X368875Y230668D01*
X368875Y251932D01*
X369768Y252825D01*
X383032Y252825D01*
X383925Y251932D01*
X383925Y230668D01*
X383032Y229775D01*
X369768Y229775D01*
G37*
%LPD*%
%LPC*%
G36*
X269768Y229775D02*
X269768Y229775D01*
X268875Y230668D01*
X268875Y251932D01*
X269768Y252825D01*
X283032Y252825D01*
X283925Y251932D01*
X283925Y230668D01*
X283032Y229775D01*
X269768Y229775D01*
G37*
%LPD*%
%LPC*%
G36*
X349768Y229775D02*
X349768Y229775D01*
X348875Y230668D01*
X348875Y251932D01*
X349768Y252825D01*
X363032Y252825D01*
X363925Y251932D01*
X363925Y230668D01*
X363032Y229775D01*
X349768Y229775D01*
G37*
%LPD*%
%LPC*%
G36*
X329768Y229775D02*
X329768Y229775D01*
X328875Y230668D01*
X328875Y251932D01*
X329768Y252825D01*
X343032Y252825D01*
X343925Y251932D01*
X343925Y230668D01*
X343032Y229775D01*
X329768Y229775D01*
G37*
%LPD*%
%LPC*%
G36*
X309768Y229775D02*
X309768Y229775D01*
X308875Y230668D01*
X308875Y251932D01*
X309768Y252825D01*
X323032Y252825D01*
X323925Y251932D01*
X323925Y230668D01*
X323032Y229775D01*
X309768Y229775D01*
G37*
%LPD*%
%LPC*%
G36*
X289768Y229775D02*
X289768Y229775D01*
X288875Y230668D01*
X288875Y251932D01*
X289768Y252825D01*
X303032Y252825D01*
X303925Y251932D01*
X303925Y230668D01*
X303032Y229775D01*
X289768Y229775D01*
G37*
%LPD*%
%LPC*%
G36*
X85112Y155955D02*
X85112Y155955D01*
X79755Y161312D01*
X79755Y168888D01*
X85112Y174245D01*
X92688Y174245D01*
X98045Y168888D01*
X98045Y161312D01*
X92688Y155955D01*
X85112Y155955D01*
G37*
%LPD*%
%LPC*%
G36*
X110512Y155955D02*
X110512Y155955D01*
X105155Y161312D01*
X105155Y168888D01*
X110512Y174245D01*
X118088Y174245D01*
X123445Y168888D01*
X123445Y161312D01*
X118088Y155955D01*
X110512Y155955D01*
G37*
%LPD*%
%LPC*%
G36*
X85112Y181355D02*
X85112Y181355D01*
X79755Y186712D01*
X79755Y194288D01*
X85112Y199645D01*
X92688Y199645D01*
X98045Y194288D01*
X98045Y186712D01*
X92688Y181355D01*
X85112Y181355D01*
G37*
%LPD*%
%LPC*%
G36*
X85112Y206755D02*
X85112Y206755D01*
X79755Y212112D01*
X79755Y219688D01*
X85112Y225045D01*
X92688Y225045D01*
X98045Y219688D01*
X98045Y212112D01*
X92688Y206755D01*
X85112Y206755D01*
G37*
%LPD*%
%LPC*%
G36*
X110512Y181355D02*
X110512Y181355D01*
X105155Y186712D01*
X105155Y194288D01*
X110512Y199645D01*
X118088Y199645D01*
X123445Y194288D01*
X123445Y186712D01*
X118088Y181355D01*
X110512Y181355D01*
G37*
%LPD*%
%LPC*%
G36*
X110512Y206755D02*
X110512Y206755D01*
X105155Y212112D01*
X105155Y219688D01*
X110512Y225045D01*
X118088Y225045D01*
X123445Y219688D01*
X123445Y212112D01*
X118088Y206755D01*
X110512Y206755D01*
G37*
%LPD*%
%LPC*%
G36*
X85112Y232155D02*
X85112Y232155D01*
X79755Y237512D01*
X79755Y245088D01*
X85112Y250445D01*
X92688Y250445D01*
X98045Y245088D01*
X98045Y237512D01*
X92688Y232155D01*
X85112Y232155D01*
G37*
%LPD*%
%LPC*%
G36*
X110512Y232155D02*
X110512Y232155D01*
X105155Y237512D01*
X105155Y245088D01*
X110512Y250445D01*
X118088Y250445D01*
X123445Y245088D01*
X123445Y237512D01*
X118088Y232155D01*
X110512Y232155D01*
G37*
%LPD*%
%LPC*%
G36*
X691923Y382523D02*
X691923Y382523D01*
X691923Y405311D01*
X693552Y405053D01*
X695568Y404398D01*
X697456Y403436D01*
X699170Y402191D01*
X700669Y400692D01*
X701914Y398978D01*
X702876Y397090D01*
X703531Y395074D01*
X703863Y392982D01*
X703863Y382523D01*
X691923Y382523D01*
G37*
%LPD*%
%LPC*%
G36*
X691923Y379477D02*
X691923Y379477D01*
X703863Y379477D01*
X703863Y369018D01*
X703531Y366926D01*
X702876Y364910D01*
X701914Y363022D01*
X700669Y361308D01*
X699170Y359809D01*
X697456Y358564D01*
X695568Y357602D01*
X693552Y356947D01*
X691923Y356689D01*
X691923Y379477D01*
G37*
%LPD*%
%LPC*%
G36*
X676937Y382523D02*
X676937Y382523D01*
X676937Y392982D01*
X677269Y395074D01*
X677924Y397090D01*
X678886Y398978D01*
X680131Y400692D01*
X681630Y402191D01*
X683344Y403436D01*
X685232Y404398D01*
X687248Y405053D01*
X688877Y405311D01*
X688877Y382523D01*
X676937Y382523D01*
G37*
%LPD*%
%LPC*%
G36*
X687248Y356947D02*
X687248Y356947D01*
X685232Y357602D01*
X683344Y358564D01*
X681630Y359809D01*
X680131Y361308D01*
X678886Y363022D01*
X677924Y364910D01*
X677269Y366926D01*
X676937Y369018D01*
X676937Y379477D01*
X688877Y379477D01*
X688877Y356689D01*
X687248Y356947D01*
G37*
%LPD*%
%LPC*%
G36*
X562499Y415543D02*
X562499Y415543D01*
X562499Y423928D01*
X562783Y425722D01*
X563345Y427450D01*
X564169Y429069D01*
X565237Y430538D01*
X566522Y431823D01*
X567991Y432891D01*
X569610Y433715D01*
X571338Y434277D01*
X572517Y434463D01*
X572517Y415543D01*
X562499Y415543D01*
G37*
%LPD*%
%LPC*%
G36*
X488928Y55625D02*
X488928Y55625D01*
X488035Y56518D01*
X488035Y70990D01*
X488928Y71883D01*
X495272Y71883D01*
X496165Y70990D01*
X496165Y56518D01*
X495272Y55625D01*
X488928Y55625D01*
G37*
%LPD*%
%LPC*%
G36*
X90423Y39623D02*
X90423Y39623D01*
X90423Y55766D01*
X91279Y55631D01*
X92800Y55136D01*
X94225Y54410D01*
X95519Y53470D01*
X96650Y52339D01*
X97590Y51045D01*
X98316Y49620D01*
X98811Y48099D01*
X99061Y46520D01*
X99061Y39623D01*
X90423Y39623D01*
G37*
%LPD*%
%LPC*%
G36*
X90423Y395223D02*
X90423Y395223D01*
X90423Y403861D01*
X97320Y403861D01*
X98899Y403611D01*
X100420Y403116D01*
X101845Y402390D01*
X103139Y401450D01*
X104270Y400319D01*
X105210Y399025D01*
X105936Y397600D01*
X106431Y396079D01*
X106566Y395223D01*
X90423Y395223D01*
G37*
%LPD*%
%LPC*%
G36*
X71234Y395223D02*
X71234Y395223D01*
X71369Y396079D01*
X71864Y397600D01*
X72590Y399025D01*
X73530Y400319D01*
X74661Y401450D01*
X75955Y402390D01*
X77380Y403116D01*
X78901Y403611D01*
X80480Y403861D01*
X87377Y403861D01*
X87377Y395223D01*
X71234Y395223D01*
G37*
%LPD*%
%LPC*%
G36*
X90423Y36577D02*
X90423Y36577D01*
X99061Y36577D01*
X99061Y29680D01*
X98811Y28101D01*
X98316Y26580D01*
X97590Y25155D01*
X96650Y23861D01*
X95519Y22730D01*
X94225Y21790D01*
X92800Y21064D01*
X91279Y20569D01*
X90423Y20434D01*
X90423Y36577D01*
G37*
%LPD*%
%LPC*%
G36*
X78739Y39623D02*
X78739Y39623D01*
X78739Y46520D01*
X78989Y48099D01*
X79484Y49620D01*
X80210Y51045D01*
X81150Y52339D01*
X82281Y53470D01*
X83575Y54410D01*
X85000Y55136D01*
X86521Y55631D01*
X87377Y55766D01*
X87377Y39623D01*
X78739Y39623D01*
G37*
%LPD*%
%LPC*%
G36*
X86521Y20569D02*
X86521Y20569D01*
X85000Y21064D01*
X83575Y21790D01*
X82281Y22730D01*
X81150Y23861D01*
X80210Y25155D01*
X79484Y26580D01*
X78989Y28101D01*
X78739Y29680D01*
X78739Y36577D01*
X87377Y36577D01*
X87377Y20434D01*
X86521Y20569D01*
G37*
%LPD*%
%LPC*%
G36*
X700023Y166623D02*
X700023Y166623D01*
X700023Y176946D01*
X701296Y176745D01*
X703083Y176164D01*
X704757Y175311D01*
X706278Y174206D01*
X707606Y172878D01*
X708711Y171357D01*
X709564Y169683D01*
X710145Y167896D01*
X710346Y166623D01*
X700023Y166623D01*
G37*
%LPD*%
%LPC*%
G36*
X674623Y319023D02*
X674623Y319023D01*
X674623Y329346D01*
X675896Y329145D01*
X677683Y328564D01*
X679357Y327711D01*
X680878Y326606D01*
X682206Y325278D01*
X683311Y323757D01*
X684164Y322083D01*
X684745Y320296D01*
X684946Y319023D01*
X674623Y319023D01*
G37*
%LPD*%
%LPC*%
G36*
X649223Y319023D02*
X649223Y319023D01*
X649223Y329346D01*
X650496Y329145D01*
X652283Y328564D01*
X653957Y327711D01*
X655478Y326606D01*
X656806Y325278D01*
X657911Y323757D01*
X658764Y322083D01*
X659345Y320296D01*
X659546Y319023D01*
X649223Y319023D01*
G37*
%LPD*%
%LPC*%
G36*
X661254Y319023D02*
X661254Y319023D01*
X661455Y320296D01*
X662036Y322083D01*
X662889Y323757D01*
X663994Y325278D01*
X665322Y326606D01*
X666843Y327711D01*
X668517Y328564D01*
X670304Y329145D01*
X671577Y329346D01*
X671577Y319023D01*
X661254Y319023D01*
G37*
%LPD*%
%LPC*%
G36*
X649223Y315977D02*
X649223Y315977D01*
X659546Y315977D01*
X659345Y314704D01*
X658764Y312917D01*
X657911Y311243D01*
X656806Y309722D01*
X655478Y308394D01*
X653957Y307289D01*
X652283Y306436D01*
X650496Y305855D01*
X649223Y305654D01*
X649223Y315977D01*
G37*
%LPD*%
%LPC*%
G36*
X674623Y315977D02*
X674623Y315977D01*
X684946Y315977D01*
X684745Y314704D01*
X684164Y312917D01*
X683311Y311243D01*
X682206Y309722D01*
X680878Y308394D01*
X679357Y307289D01*
X677683Y306436D01*
X675896Y305855D01*
X674623Y305654D01*
X674623Y315977D01*
G37*
%LPD*%
%LPC*%
G36*
X635854Y319023D02*
X635854Y319023D01*
X636055Y320296D01*
X636636Y322083D01*
X637489Y323757D01*
X638594Y325278D01*
X639922Y326606D01*
X641443Y327711D01*
X643117Y328564D01*
X644904Y329145D01*
X646177Y329346D01*
X646177Y319023D01*
X635854Y319023D01*
G37*
%LPD*%
%LPC*%
G36*
X700023Y163577D02*
X700023Y163577D01*
X710346Y163577D01*
X710145Y162304D01*
X709564Y160517D01*
X708711Y158843D01*
X707606Y157322D01*
X706278Y155994D01*
X704757Y154889D01*
X703083Y154036D01*
X701296Y153455D01*
X700023Y153254D01*
X700023Y163577D01*
G37*
%LPD*%
%LPC*%
G36*
X686654Y166623D02*
X686654Y166623D01*
X686855Y167896D01*
X687436Y169683D01*
X688289Y171357D01*
X689394Y172878D01*
X690722Y174206D01*
X692243Y175311D01*
X693917Y176164D01*
X695704Y176745D01*
X696977Y176946D01*
X696977Y166623D01*
X686654Y166623D01*
G37*
%LPD*%
%LPC*%
G36*
X670304Y305855D02*
X670304Y305855D01*
X668517Y306436D01*
X666843Y307289D01*
X665322Y308394D01*
X663994Y309722D01*
X662889Y311243D01*
X662036Y312917D01*
X661455Y314704D01*
X661254Y315977D01*
X671577Y315977D01*
X671577Y305654D01*
X670304Y305855D01*
G37*
%LPD*%
%LPC*%
G36*
X644904Y305855D02*
X644904Y305855D01*
X643117Y306436D01*
X641443Y307289D01*
X639922Y308394D01*
X638594Y309722D01*
X637489Y311243D01*
X636636Y312917D01*
X636055Y314704D01*
X635854Y315977D01*
X646177Y315977D01*
X646177Y305654D01*
X644904Y305855D01*
G37*
%LPD*%
%LPC*%
G36*
X695704Y153455D02*
X695704Y153455D01*
X693917Y154036D01*
X692243Y154889D01*
X690722Y155994D01*
X689394Y157322D01*
X688289Y158843D01*
X687436Y160517D01*
X686855Y162304D01*
X686654Y163577D01*
X696977Y163577D01*
X696977Y153254D01*
X695704Y153455D01*
G37*
%LPD*%
%LPC*%
G36*
X245923Y222823D02*
X245923Y222823D01*
X245923Y229841D01*
X254734Y229841D01*
X255381Y229668D01*
X255960Y229333D01*
X256433Y228860D01*
X256768Y228281D01*
X256941Y227634D01*
X256941Y222823D01*
X245923Y222823D01*
G37*
%LPD*%
%LPC*%
G36*
X231859Y222823D02*
X231859Y222823D01*
X231859Y227634D01*
X232032Y228281D01*
X232367Y228860D01*
X232840Y229333D01*
X233419Y229668D01*
X234066Y229841D01*
X242877Y229841D01*
X242877Y222823D01*
X231859Y222823D01*
G37*
%LPD*%
%LPC*%
G36*
X245923Y212759D02*
X245923Y212759D01*
X245923Y219777D01*
X256941Y219777D01*
X256941Y214966D01*
X256768Y214319D01*
X256433Y213740D01*
X255960Y213267D01*
X255381Y212932D01*
X254734Y212759D01*
X245923Y212759D01*
G37*
%LPD*%
%LPC*%
G36*
X234066Y212759D02*
X234066Y212759D01*
X233419Y212932D01*
X232840Y213267D01*
X232367Y213740D01*
X232032Y214319D01*
X231859Y214966D01*
X231859Y219777D01*
X242877Y219777D01*
X242877Y212759D01*
X234066Y212759D01*
G37*
%LPD*%
%LPC*%
G36*
X522223Y30123D02*
X522223Y30123D01*
X522223Y37641D01*
X528534Y37641D01*
X529181Y37468D01*
X529760Y37133D01*
X530233Y36660D01*
X530568Y36081D01*
X530741Y35434D01*
X530741Y30123D01*
X522223Y30123D01*
G37*
%LPD*%
%LPC*%
G36*
X179323Y239623D02*
X179323Y239623D01*
X179323Y247141D01*
X185634Y247141D01*
X186281Y246968D01*
X186860Y246633D01*
X187333Y246160D01*
X187668Y245581D01*
X187841Y244934D01*
X187841Y239623D01*
X179323Y239623D01*
G37*
%LPD*%
%LPC*%
G36*
X433323Y30123D02*
X433323Y30123D01*
X433323Y37641D01*
X439634Y37641D01*
X440281Y37468D01*
X440860Y37133D01*
X441333Y36660D01*
X441668Y36081D01*
X441841Y35434D01*
X441841Y30123D01*
X433323Y30123D01*
G37*
%LPD*%
%LPC*%
G36*
X115823Y303123D02*
X115823Y303123D01*
X115823Y310641D01*
X122134Y310641D01*
X122781Y310468D01*
X123360Y310133D01*
X123833Y309660D01*
X124168Y309081D01*
X124341Y308434D01*
X124341Y303123D01*
X115823Y303123D01*
G37*
%LPD*%
%LPC*%
G36*
X242823Y303123D02*
X242823Y303123D01*
X242823Y310641D01*
X249134Y310641D01*
X249781Y310468D01*
X250360Y310133D01*
X250833Y309660D01*
X251168Y309081D01*
X251341Y308434D01*
X251341Y303123D01*
X242823Y303123D01*
G37*
%LPD*%
%LPC*%
G36*
X182523Y179323D02*
X182523Y179323D01*
X182523Y187841D01*
X187834Y187841D01*
X188481Y187668D01*
X189060Y187333D01*
X189533Y186860D01*
X189868Y186281D01*
X190041Y185634D01*
X190041Y179323D01*
X182523Y179323D01*
G37*
%LPD*%
%LPC*%
G36*
X231259Y303123D02*
X231259Y303123D01*
X231259Y308434D01*
X231432Y309081D01*
X231767Y309660D01*
X232240Y310133D01*
X232819Y310468D01*
X233466Y310641D01*
X239777Y310641D01*
X239777Y303123D01*
X231259Y303123D01*
G37*
%LPD*%
%LPC*%
G36*
X104259Y303123D02*
X104259Y303123D01*
X104259Y308434D01*
X104432Y309081D01*
X104767Y309660D01*
X105240Y310133D01*
X105819Y310468D01*
X106466Y310641D01*
X112777Y310641D01*
X112777Y303123D01*
X104259Y303123D01*
G37*
%LPD*%
%LPC*%
G36*
X167759Y239623D02*
X167759Y239623D01*
X167759Y244934D01*
X167932Y245581D01*
X168267Y246160D01*
X168740Y246633D01*
X169319Y246968D01*
X169966Y247141D01*
X176277Y247141D01*
X176277Y239623D01*
X167759Y239623D01*
G37*
%LPD*%
%LPC*%
G36*
X182523Y167759D02*
X182523Y167759D01*
X182523Y176277D01*
X190041Y176277D01*
X190041Y169966D01*
X189868Y169319D01*
X189533Y168740D01*
X189060Y168267D01*
X188481Y167932D01*
X187834Y167759D01*
X182523Y167759D01*
G37*
%LPD*%
%LPC*%
G36*
X171959Y179323D02*
X171959Y179323D01*
X171959Y185634D01*
X172132Y186281D01*
X172467Y186860D01*
X172940Y187333D01*
X173519Y187668D01*
X174166Y187841D01*
X179477Y187841D01*
X179477Y179323D01*
X171959Y179323D01*
G37*
%LPD*%
%LPC*%
G36*
X242823Y292559D02*
X242823Y292559D01*
X242823Y300077D01*
X251341Y300077D01*
X251341Y294766D01*
X251168Y294119D01*
X250833Y293540D01*
X250360Y293067D01*
X249781Y292732D01*
X249134Y292559D01*
X242823Y292559D01*
G37*
%LPD*%
%LPC*%
G36*
X179323Y229059D02*
X179323Y229059D01*
X179323Y236577D01*
X187841Y236577D01*
X187841Y231266D01*
X187668Y230619D01*
X187333Y230040D01*
X186860Y229567D01*
X186281Y229232D01*
X185634Y229059D01*
X179323Y229059D01*
G37*
%LPD*%
%LPC*%
G36*
X179323Y356059D02*
X179323Y356059D01*
X179323Y363577D01*
X187841Y363577D01*
X187841Y358266D01*
X187668Y357619D01*
X187333Y357040D01*
X186860Y356567D01*
X186281Y356232D01*
X185634Y356059D01*
X179323Y356059D01*
G37*
%LPD*%
%LPC*%
G36*
X522223Y19559D02*
X522223Y19559D01*
X522223Y27077D01*
X530741Y27077D01*
X530741Y21766D01*
X530568Y21119D01*
X530233Y20540D01*
X529760Y20067D01*
X529181Y19732D01*
X528534Y19559D01*
X522223Y19559D01*
G37*
%LPD*%
%LPC*%
G36*
X433323Y19559D02*
X433323Y19559D01*
X433323Y27077D01*
X441841Y27077D01*
X441841Y21766D01*
X441668Y21119D01*
X441333Y20540D01*
X440860Y20067D01*
X440281Y19732D01*
X439634Y19559D01*
X433323Y19559D01*
G37*
%LPD*%
%LPC*%
G36*
X115823Y292559D02*
X115823Y292559D01*
X115823Y300077D01*
X124341Y300077D01*
X124341Y294766D01*
X124168Y294119D01*
X123833Y293540D01*
X123360Y293067D01*
X122781Y292732D01*
X122134Y292559D01*
X115823Y292559D01*
G37*
%LPD*%
%LPC*%
G36*
X169966Y356059D02*
X169966Y356059D01*
X169319Y356232D01*
X168740Y356567D01*
X168267Y357040D01*
X167932Y357619D01*
X167759Y358266D01*
X167759Y363577D01*
X176277Y363577D01*
X176277Y356059D01*
X169966Y356059D01*
G37*
%LPD*%
%LPC*%
G36*
X106466Y292559D02*
X106466Y292559D01*
X105819Y292732D01*
X105240Y293067D01*
X104767Y293540D01*
X104432Y294119D01*
X104259Y294766D01*
X104259Y300077D01*
X112777Y300077D01*
X112777Y292559D01*
X106466Y292559D01*
G37*
%LPD*%
%LPC*%
G36*
X169966Y229059D02*
X169966Y229059D01*
X169319Y229232D01*
X168740Y229567D01*
X168267Y230040D01*
X167932Y230619D01*
X167759Y231266D01*
X167759Y236577D01*
X176277Y236577D01*
X176277Y229059D01*
X169966Y229059D01*
G37*
%LPD*%
%LPC*%
G36*
X512866Y19559D02*
X512866Y19559D01*
X512219Y19732D01*
X511640Y20067D01*
X511167Y20540D01*
X510832Y21119D01*
X510659Y21766D01*
X510659Y27077D01*
X519177Y27077D01*
X519177Y19559D01*
X512866Y19559D01*
G37*
%LPD*%
%LPC*%
G36*
X233466Y292559D02*
X233466Y292559D01*
X232819Y292732D01*
X232240Y293067D01*
X231767Y293540D01*
X231432Y294119D01*
X231259Y294766D01*
X231259Y300077D01*
X239777Y300077D01*
X239777Y292559D01*
X233466Y292559D01*
G37*
%LPD*%
%LPC*%
G36*
X174166Y167759D02*
X174166Y167759D01*
X173519Y167932D01*
X172940Y168267D01*
X172467Y168740D01*
X172132Y169319D01*
X171959Y169966D01*
X171959Y176277D01*
X179477Y176277D01*
X179477Y167759D01*
X174166Y167759D01*
G37*
%LPD*%
%LPC*%
G36*
X494283Y418083D02*
X494283Y418083D01*
X494283Y427102D01*
X497127Y427102D01*
X503302Y420927D01*
X503302Y418083D01*
X494283Y418083D01*
G37*
%LPD*%
%LPC*%
G36*
X494283Y406018D02*
X494283Y406018D01*
X494283Y415037D01*
X503302Y415037D01*
X503302Y412193D01*
X497127Y406018D01*
X494283Y406018D01*
G37*
%LPD*%
%LPC*%
G36*
X482218Y418083D02*
X482218Y418083D01*
X482218Y420927D01*
X488393Y427102D01*
X491237Y427102D01*
X491237Y418083D01*
X482218Y418083D01*
G37*
%LPD*%
%LPC*%
G36*
X488393Y406018D02*
X488393Y406018D01*
X482218Y412193D01*
X482218Y415037D01*
X491237Y415037D01*
X491237Y406018D01*
X488393Y406018D01*
G37*
%LPD*%
%LPC*%
G36*
X357123Y344423D02*
X357123Y344423D01*
X357123Y352045D01*
X359388Y352045D01*
X364745Y346688D01*
X364745Y344423D01*
X357123Y344423D01*
G37*
%LPD*%
%LPC*%
G36*
X407923Y344423D02*
X407923Y344423D01*
X407923Y352045D01*
X410188Y352045D01*
X415545Y346688D01*
X415545Y344423D01*
X407923Y344423D01*
G37*
%LPD*%
%LPC*%
G36*
X255523Y344423D02*
X255523Y344423D01*
X255523Y352045D01*
X257788Y352045D01*
X263145Y346688D01*
X263145Y344423D01*
X255523Y344423D01*
G37*
%LPD*%
%LPC*%
G36*
X306323Y344423D02*
X306323Y344423D01*
X306323Y352045D01*
X308588Y352045D01*
X313945Y346688D01*
X313945Y344423D01*
X306323Y344423D01*
G37*
%LPD*%
%LPC*%
G36*
X346455Y344423D02*
X346455Y344423D01*
X346455Y346688D01*
X351812Y352045D01*
X354077Y352045D01*
X354077Y344423D01*
X346455Y344423D01*
G37*
%LPD*%
%LPC*%
G36*
X397255Y344423D02*
X397255Y344423D01*
X397255Y346688D01*
X402612Y352045D01*
X404877Y352045D01*
X404877Y344423D01*
X397255Y344423D01*
G37*
%LPD*%
%LPC*%
G36*
X295655Y344423D02*
X295655Y344423D01*
X295655Y346688D01*
X301012Y352045D01*
X303277Y352045D01*
X303277Y344423D01*
X295655Y344423D01*
G37*
%LPD*%
%LPC*%
G36*
X244855Y344423D02*
X244855Y344423D01*
X244855Y346688D01*
X250212Y352045D01*
X252477Y352045D01*
X252477Y344423D01*
X244855Y344423D01*
G37*
%LPD*%
%LPC*%
G36*
X647699Y317499D02*
X647699Y317499D01*
X647699Y317501D01*
X647701Y317501D01*
X647701Y317499D01*
X647699Y317499D01*
G37*
%LPD*%
%LPC*%
G36*
X698499Y165099D02*
X698499Y165099D01*
X698499Y165101D01*
X698501Y165101D01*
X698501Y165099D01*
X698499Y165099D01*
G37*
%LPD*%
%LPC*%
G36*
X88899Y38099D02*
X88899Y38099D01*
X88899Y38101D01*
X88901Y38101D01*
X88901Y38099D01*
X88899Y38099D01*
G37*
%LPD*%
%LPC*%
G36*
X690399Y380999D02*
X690399Y380999D01*
X690399Y381001D01*
X690401Y381001D01*
X690401Y380999D01*
X690399Y380999D01*
G37*
%LPD*%
%LPC*%
G36*
X673099Y317499D02*
X673099Y317499D01*
X673099Y317501D01*
X673101Y317501D01*
X673101Y317499D01*
X673099Y317499D01*
G37*
%LPD*%
%LPC*%
G36*
X492759Y416559D02*
X492759Y416559D01*
X492759Y416561D01*
X492761Y416561D01*
X492761Y416559D01*
X492759Y416559D01*
G37*
%LPD*%
%LPC*%
G36*
X114299Y301599D02*
X114299Y301599D01*
X114299Y301601D01*
X114301Y301601D01*
X114301Y301599D01*
X114299Y301599D01*
G37*
%LPD*%
%LPC*%
G36*
X241299Y301599D02*
X241299Y301599D01*
X241299Y301601D01*
X241301Y301601D01*
X241301Y301599D01*
X241299Y301599D01*
G37*
%LPD*%
%LPC*%
G36*
X177799Y238099D02*
X177799Y238099D01*
X177799Y238101D01*
X177801Y238101D01*
X177801Y238099D01*
X177799Y238099D01*
G37*
%LPD*%
%LPC*%
G36*
X180999Y177799D02*
X180999Y177799D01*
X180999Y177801D01*
X181001Y177801D01*
X181001Y177799D01*
X180999Y177799D01*
G37*
%LPD*%
%LPC*%
G36*
X520699Y28599D02*
X520699Y28599D01*
X520699Y28601D01*
X520701Y28601D01*
X520701Y28599D01*
X520699Y28599D01*
G37*
%LPD*%
%LPC*%
G36*
X244399Y221299D02*
X244399Y221299D01*
X244399Y221301D01*
X244401Y221301D01*
X244401Y221299D01*
X244399Y221299D01*
G37*
%LPD*%
D10*
X723900Y317500D03*
X698500Y317500D03*
X673100Y317500D03*
X647700Y317500D03*
X622300Y317500D03*
X596900Y317500D03*
X571500Y317500D03*
X546100Y317500D03*
X520700Y317500D03*
X495300Y317500D03*
X469900Y317500D03*
X444500Y317500D03*
X444500Y165100D03*
X469900Y165100D03*
X495300Y165100D03*
X520700Y165100D03*
X546100Y165100D03*
X571500Y165100D03*
X596900Y165100D03*
X622300Y165100D03*
X647700Y165100D03*
X673100Y165100D03*
X698500Y165100D03*
X723900Y165100D03*
D11*
X88900Y165100D03*
X88900Y190500D03*
X88900Y215900D03*
X88900Y241300D03*
X114300Y165100D03*
X114300Y190500D03*
X114300Y215900D03*
X114300Y241300D03*
D12*
X139700Y281600D03*
X139700Y302600D03*
X203200Y218100D03*
X203200Y239100D03*
X203200Y345100D03*
X203200Y366100D03*
X266700Y281600D03*
X266700Y302600D03*
D13*
X114300Y282600D03*
X114300Y301600D03*
X177800Y219100D03*
X177800Y238100D03*
X177800Y346100D03*
X177800Y365100D03*
X241300Y282600D03*
X241300Y301600D03*
D14*
X649478Y429000D02*
X671322Y429000D01*
X690400Y391922D02*
X690400Y370078D01*
X630400Y370078D02*
X630400Y391922D01*
D15*
X96520Y342900D02*
X81280Y342900D01*
X81280Y368300D02*
X96520Y368300D01*
X96520Y393700D02*
X81280Y393700D01*
D13*
X393700Y314300D03*
X393700Y295300D03*
D16*
X492760Y416560D03*
D17*
X492760Y381000D03*
D18*
X599440Y405020D02*
X599440Y423020D01*
X574040Y423020D02*
X574040Y405020D01*
D19*
X473100Y37846D03*
X482600Y37846D03*
X492100Y37846D03*
X492100Y63754D03*
X473100Y63754D03*
D13*
X520700Y47600D03*
X520700Y28600D03*
X431800Y47600D03*
X431800Y28600D03*
D20*
X406400Y221300D03*
X406400Y201300D03*
X406400Y181300D03*
X406400Y161300D03*
X406400Y141300D03*
X406400Y121300D03*
X406400Y101300D03*
X406400Y81300D03*
X244400Y221300D03*
X244400Y201300D03*
X244400Y181300D03*
X244400Y161300D03*
X244400Y141300D03*
X244400Y121300D03*
X244400Y101300D03*
X244400Y81300D03*
D21*
X296400Y241300D03*
X376400Y241300D03*
X356400Y241300D03*
X276400Y241300D03*
X336400Y241300D03*
X316400Y241300D03*
D22*
X611886Y123825D03*
X611886Y104775D03*
X632714Y114300D03*
D13*
X673100Y123800D03*
X673100Y104800D03*
X571500Y123800D03*
X571500Y104800D03*
D23*
X181000Y177800D03*
X200000Y177800D03*
X479400Y127000D03*
X460400Y127000D03*
D13*
X723900Y123800D03*
X723900Y104800D03*
D22*
X611886Y47625D03*
X611886Y28575D03*
X632714Y38100D03*
D13*
X673100Y47600D03*
X673100Y28600D03*
X571500Y47600D03*
X571500Y28600D03*
X723900Y47600D03*
X723900Y28600D03*
D15*
X190500Y30480D02*
X190500Y45720D01*
X165100Y45720D02*
X165100Y30480D01*
X139700Y30480D02*
X139700Y45720D01*
X114300Y45720D02*
X114300Y30480D01*
X88900Y30480D02*
X88900Y45720D01*
D23*
X479400Y88900D03*
X460400Y88900D03*
X181000Y139700D03*
X200000Y139700D03*
D24*
X406400Y419100D03*
X406400Y342900D03*
X355600Y419100D03*
X355600Y342900D03*
X304800Y419100D03*
X304800Y342900D03*
X254000Y419100D03*
X254000Y342900D03*
D25*
X528576Y274576D02*
X571500Y317500D01*
X528576Y274576D02*
X304800Y274576D01*
X304800Y272318D01*
D26*
X304800Y272318D03*
X215900Y304800D03*
D25*
X141900Y304800D01*
X139700Y302600D01*
D27*
X539020Y317500D02*
X546100Y317500D01*
X539020Y317500D02*
X501176Y279656D01*
X292356Y279656D01*
X233944Y272044D02*
X215900Y254000D01*
X233944Y272044D02*
X284744Y272044D01*
X292356Y279656D01*
X215900Y254000D02*
X203200Y239100D01*
X513620Y317500D02*
X520700Y317500D01*
X212326Y366100D02*
X203200Y366100D01*
X498380Y332740D02*
X513620Y317500D01*
X498380Y332740D02*
X245686Y332740D01*
X212326Y366100D01*
X488220Y317500D02*
X495300Y317500D01*
X367371Y302600D02*
X266700Y302600D01*
X367371Y302600D02*
X384727Y285244D01*
X455964Y285244D02*
X488220Y317500D01*
X455964Y285244D02*
X384727Y285244D01*
D25*
X673100Y47600D02*
X723900Y47600D01*
X723900Y63500D01*
X736600Y76200D01*
X736600Y114300D01*
X673100Y123800D02*
X647700Y149200D01*
X647700Y165100D01*
D27*
X622300Y139700D01*
D26*
X622300Y139700D03*
D25*
X722300Y125400D02*
X723900Y123800D01*
X674700Y125400D02*
X673100Y123800D01*
X727100Y123800D02*
X736600Y114300D01*
X727100Y123800D02*
X723900Y123800D01*
X674700Y125400D02*
X673100Y123800D01*
X674700Y125400D02*
X722300Y125400D01*
D26*
X88900Y431800D03*
X114300Y419100D03*
X139700Y431800D03*
X571500Y88900D03*
X596900Y88900D03*
X139700Y114300D03*
X114300Y101600D03*
X88900Y114300D03*
X520700Y76200D03*
X457200Y25400D03*
X660400Y76200D03*
X698500Y88900D03*
X139700Y330200D03*
X165100Y406400D03*
D25*
X189985Y440944D02*
X381000Y440944D01*
X384556Y440944D02*
X406400Y419100D01*
X384556Y440944D02*
X381000Y440944D01*
X165100Y416059D02*
X165100Y406400D01*
X165100Y416059D02*
X189985Y440944D01*
D26*
X177800Y419100D03*
D25*
X195072Y436372D02*
X338328Y436372D01*
X195072Y436372D02*
X177800Y419100D01*
X338328Y436372D02*
X355600Y419100D01*
D26*
X190500Y406400D03*
D25*
X190500Y419100D01*
X203200Y431800D01*
X292100Y431800D01*
X304800Y419100D01*
D26*
X203200Y419100D03*
D25*
X254000Y419100D01*
D28*
X115300Y281600D02*
X114300Y282600D01*
X115300Y281600D02*
X139700Y281600D01*
X177800Y219100D02*
X178800Y218100D01*
X203200Y218100D01*
X178800Y345100D02*
X177800Y346100D01*
X178800Y345100D02*
X203200Y345100D01*
X241300Y282600D02*
X242300Y281600D01*
X266700Y281600D01*
D27*
X368300Y317500D02*
X393700Y295300D01*
X368300Y317500D02*
X127000Y317500D01*
X88900Y342900D01*
D29*
X599440Y411960D02*
X630400Y381000D01*
X599440Y411960D02*
X599440Y414020D01*
X597264Y411844D01*
X597264Y395400D01*
X582864Y381000D01*
X492760Y381000D01*
X480060Y368300D01*
X233116Y368300D01*
X146884Y368300D02*
X88900Y368300D01*
X215092Y386324D02*
X233116Y368300D01*
X215092Y386324D02*
X164908Y386324D01*
X146884Y368300D01*
D25*
X477012Y45713D02*
X478798Y47498D01*
X486403Y47498D01*
X488188Y45713D01*
X477012Y41758D02*
X473100Y37846D01*
X477012Y41758D02*
X477012Y45713D01*
X488188Y45713D02*
X488188Y41758D01*
X492100Y37846D01*
D26*
X546100Y50800D03*
D30*
X523900Y50800D01*
X520700Y47600D01*
X517500Y47600D01*
X507746Y37846D02*
X492100Y37846D01*
X507746Y37846D02*
X517500Y47600D01*
D25*
X571500Y123800D02*
X611861Y123800D01*
X611886Y123825D01*
X571500Y123800D02*
X568300Y127000D01*
X571500Y47600D02*
X611861Y47600D01*
X611886Y47625D01*
D30*
X447954Y63754D02*
X431800Y47600D01*
X447954Y63754D02*
X473100Y63754D01*
X479400Y70054D02*
X479400Y88900D01*
X479400Y70054D02*
X473100Y63754D01*
X479400Y88900D02*
X508000Y88900D01*
D26*
X508000Y88900D03*
D30*
X414812Y212888D02*
X406400Y221300D01*
X414812Y212888D02*
X418715Y212888D01*
X429514Y158893D02*
X438293Y150114D01*
X477586Y150114D01*
X429514Y202089D02*
X418715Y212888D01*
X429514Y202089D02*
X429514Y158893D01*
D26*
X508000Y127000D03*
D30*
X500700Y127000D02*
X477586Y150114D01*
X500700Y127000D02*
X508000Y127000D01*
D25*
X568300Y127000D01*
X508000Y127000D02*
X479400Y127000D01*
X533400Y88900D02*
X571500Y50800D01*
X571500Y47600D01*
X533400Y88900D02*
X508000Y88900D01*
X211648Y170348D02*
X181000Y139700D01*
X386400Y221300D02*
X406400Y221300D01*
X335448Y170348D02*
X211648Y170348D01*
X335448Y170348D02*
X386400Y221300D01*
X233700Y81300D02*
X190500Y38100D01*
X233700Y81300D02*
X244400Y81300D01*
X228300Y101300D02*
X165100Y38100D01*
X228300Y101300D02*
X244400Y101300D01*
X571500Y104800D02*
X611861Y104800D01*
X611886Y104775D01*
X571500Y104800D02*
X564048Y112252D01*
X370348Y112252D01*
X341300Y141300D02*
X244400Y141300D01*
X341300Y141300D02*
X370348Y112252D01*
X200000Y123800D02*
X114300Y38100D01*
X200000Y123800D02*
X200000Y139700D01*
X216440Y139700D02*
X244400Y161300D01*
X216440Y139700D02*
X200000Y139700D01*
X200000Y177800D02*
X223500Y201300D01*
X244400Y201300D01*
X412100Y127000D02*
X460400Y127000D01*
X412100Y127000D02*
X406400Y121300D01*
X392555Y81300D02*
X343507Y130348D01*
X231948Y130348D01*
X139700Y38100D01*
X392555Y81300D02*
X406400Y81300D01*
X452800Y81300D01*
X460400Y88900D01*
X673100Y28600D02*
X723900Y28600D01*
X642214Y28600D02*
X632714Y38100D01*
X642214Y28600D02*
X673100Y28600D01*
X609854Y164846D02*
X609600Y165100D01*
X632714Y100846D02*
X632714Y38100D01*
X632714Y100846D02*
X623316Y110244D01*
X623316Y129025D01*
X609854Y142487D01*
X609854Y164846D01*
X609600Y165100D02*
X609600Y304800D01*
X596900Y317500D01*
X673100Y104800D02*
X723900Y104800D01*
X642214Y104800D02*
X632714Y114300D01*
X642214Y104800D02*
X673100Y104800D01*
X632714Y114300D02*
X632714Y137414D01*
X635000Y139700D01*
D26*
X635000Y139700D03*
D27*
X444500Y317500D02*
X406400Y317500D01*
X393700Y314300D01*
D25*
X571500Y25400D02*
X558800Y11684D01*
X571500Y25400D02*
X571500Y28600D01*
X571525Y28575D02*
X611886Y28575D01*
X571525Y28575D02*
X571500Y28600D01*
X410348Y72252D02*
X395138Y72252D01*
X346090Y121300D01*
X421252Y61348D02*
X421252Y20838D01*
X430406Y11684D01*
X558800Y11684D01*
X421252Y61348D02*
X410348Y72252D01*
X346090Y121300D02*
X244400Y121300D01*
M02*
