M48
;GenerationSoftware,Autodesk,EAGLE,9.1.0*%
;CreationDate,2023-04-28T19:49:14Z*%
FMAT,2
ICI,OFF
METRIC,TZ,000.000
T7C0.350
T6C0.800
T5C0.813
T4C1.000
T3C1.016
T2C1.200
T1C3.404
%
G90
M71
T1
X46990Y24130
X69850Y24130
T2
X57404Y41402
X59944Y41402
T3
X8890Y34290
X13970Y3810
X11430Y24130
X11430Y21590
X11430Y19050
X11430Y16510
X49530Y16510
X8890Y24130
X8890Y21590
X8890Y19050
X8890Y16510
X72390Y16510
X69850Y16510
X67310Y16510
X64770Y16510
X62230Y16510
X59690Y16510
X57150Y16510
X54610Y16510
X52070Y16510
X8890Y39370
X8890Y36830
X72390Y31750
X69850Y31750
X67310Y31750
X64770Y31750
X62230Y31750
X59690Y31750
X57150Y31750
X54610Y31750
X52070Y31750
X49530Y31750
X46990Y31750
X44450Y31750
X44450Y16510
X46990Y16510
X19050Y3810
X16510Y3810
X11430Y3810
X8890Y3810
T4
X63040Y38100
T5
X25400Y34290
X49276Y41656
X49276Y38100
X40640Y41910
X40640Y34290
X35560Y41910
X35560Y34290
X30480Y41910
X30480Y34290
X25400Y41910
T6
X66040Y42900
X69040Y38100
T7
X13970Y11430
X59690Y8890
X57150Y8890
X13970Y43180
X11430Y41910
X8890Y43180
X20320Y41910
X19050Y40640
X17780Y41910
X21590Y30480
X30480Y27232
X63500Y13970
X50800Y12700
X8890Y11430
X50800Y8890
X54610Y5080
X16510Y40640
X13970Y33020
X69850Y8890
X66040Y7620
X45720Y2540
X52070Y7620
X11430Y10160
X62230Y13970
M30