G04 EAGLE Gerber X2 export*
%TF.Part,Single*%
%TF.FileFunction,Soldermask,Bot,1*%
%TF.FilePolarity,Negative*%
%TF.GenerationSoftware,Autodesk,EAGLE,9.1.0*%
%TF.CreationDate,2023-04-28T19:49:15Z*%
G75*
%MOMM*%
%FSLAX34Y34*%
%LPD*%
%AMOC8*
5,1,8,0,0,1.08239X$1,22.5*%
G01*
%ADD10C,3.606800*%
%ADD11C,2.082800*%
%ADD12P,1.869504X8X112.500000*%
%ADD13C,2.387600*%
%ADD14C,1.727200*%
%ADD15P,1.951982X8X112.500000*%
%ADD16C,1.803400*%
%ADD17C,2.003200*%
%ADD18P,1.649562X8X292.500000*%
%ADD19C,0.959600*%


D10*
X469900Y241300D03*
X698500Y241300D03*
D11*
X723900Y317500D03*
X698500Y317500D03*
X673100Y317500D03*
X647700Y317500D03*
X622300Y317500D03*
X596900Y317500D03*
X571500Y317500D03*
X546100Y317500D03*
X520700Y317500D03*
X495300Y317500D03*
X469900Y317500D03*
X444500Y317500D03*
X444500Y165100D03*
X469900Y165100D03*
X495300Y165100D03*
X520700Y165100D03*
X546100Y165100D03*
X571500Y165100D03*
X596900Y165100D03*
X622300Y165100D03*
X647700Y165100D03*
X673100Y165100D03*
X698500Y165100D03*
X723900Y165100D03*
D12*
X88900Y165100D03*
X88900Y190500D03*
X88900Y215900D03*
X88900Y241300D03*
X114300Y165100D03*
X114300Y190500D03*
X114300Y215900D03*
X114300Y241300D03*
D13*
X649478Y429000D02*
X671322Y429000D01*
X690400Y391922D02*
X690400Y370078D01*
X630400Y370078D02*
X630400Y391922D01*
D14*
X96520Y342900D02*
X81280Y342900D01*
X81280Y368300D02*
X96520Y368300D01*
X96520Y393700D02*
X81280Y393700D01*
D15*
X492760Y416560D03*
D16*
X492760Y381000D03*
D17*
X599440Y405020D02*
X599440Y423020D01*
X574040Y423020D02*
X574040Y405020D01*
D14*
X190500Y45720D02*
X190500Y30480D01*
X165100Y30480D02*
X165100Y45720D01*
X139700Y45720D02*
X139700Y30480D01*
X114300Y30480D02*
X114300Y45720D01*
X88900Y45720D02*
X88900Y30480D01*
D18*
X406400Y419100D03*
X406400Y342900D03*
X355600Y419100D03*
X355600Y342900D03*
X304800Y419100D03*
X304800Y342900D03*
X254000Y419100D03*
X254000Y342900D03*
D19*
X304800Y272318D03*
X215900Y304800D03*
X622300Y139700D03*
X88900Y431800D03*
X114300Y419100D03*
X139700Y431800D03*
X571500Y88900D03*
X596900Y88900D03*
X139700Y114300D03*
X114300Y101600D03*
X88900Y114300D03*
X520700Y76200D03*
X457200Y25400D03*
X660400Y76200D03*
X698500Y88900D03*
X139700Y330200D03*
X165100Y406400D03*
X177800Y419100D03*
X190500Y406400D03*
X203200Y419100D03*
X546100Y50800D03*
X508000Y88900D03*
X508000Y127000D03*
X635000Y139700D03*
M02*
