G04 EAGLE Gerber X2 export*
%TF.Part,Single*%
%TF.FileFunction,Soldermask,Top,1*%
%TF.FilePolarity,Negative*%
%TF.GenerationSoftware,Autodesk,EAGLE,9.1.0*%
%TF.CreationDate,2023-04-28T19:49:15Z*%
G75*
%MOMM*%
%FSLAX34Y34*%
%LPD*%
%AMOC8*
5,1,8,0,0,1.08239X$1,22.5*%
G01*
%ADD10C,3.606800*%
%ADD11C,2.082800*%
%ADD12P,1.869504X8X112.500000*%
%ADD13R,1.403200X1.403200*%
%ADD14R,1.703200X1.503200*%
%ADD15C,2.387600*%
%ADD16C,1.727200*%
%ADD17P,1.951982X8X112.500000*%
%ADD18C,1.803400*%
%ADD19C,2.003200*%
%ADD20R,0.711200X1.524000*%
%ADD21R,2.203200X1.403200*%
%ADD22R,1.403200X2.203200*%
%ADD23R,1.473200X0.762000*%
%ADD24R,1.503200X1.703200*%
%ADD25P,1.649562X8X292.500000*%
%ADD26C,0.959600*%


D10*
X469900Y241300D03*
X698500Y241300D03*
D11*
X723900Y317500D03*
X698500Y317500D03*
X673100Y317500D03*
X647700Y317500D03*
X622300Y317500D03*
X596900Y317500D03*
X571500Y317500D03*
X546100Y317500D03*
X520700Y317500D03*
X495300Y317500D03*
X469900Y317500D03*
X444500Y317500D03*
X444500Y165100D03*
X469900Y165100D03*
X495300Y165100D03*
X520700Y165100D03*
X546100Y165100D03*
X571500Y165100D03*
X596900Y165100D03*
X622300Y165100D03*
X647700Y165100D03*
X673100Y165100D03*
X698500Y165100D03*
X723900Y165100D03*
D12*
X88900Y165100D03*
X88900Y190500D03*
X88900Y215900D03*
X88900Y241300D03*
X114300Y165100D03*
X114300Y190500D03*
X114300Y215900D03*
X114300Y241300D03*
D13*
X139700Y281600D03*
X139700Y302600D03*
X203200Y218100D03*
X203200Y239100D03*
X203200Y345100D03*
X203200Y366100D03*
X266700Y281600D03*
X266700Y302600D03*
D14*
X114300Y282600D03*
X114300Y301600D03*
X177800Y219100D03*
X177800Y238100D03*
X177800Y346100D03*
X177800Y365100D03*
X241300Y282600D03*
X241300Y301600D03*
D15*
X649478Y429000D02*
X671322Y429000D01*
X690400Y391922D02*
X690400Y370078D01*
X630400Y370078D02*
X630400Y391922D01*
D16*
X96520Y342900D02*
X81280Y342900D01*
X81280Y368300D02*
X96520Y368300D01*
X96520Y393700D02*
X81280Y393700D01*
D14*
X393700Y314300D03*
X393700Y295300D03*
D17*
X492760Y416560D03*
D18*
X492760Y381000D03*
D19*
X599440Y405020D02*
X599440Y423020D01*
X574040Y423020D02*
X574040Y405020D01*
D20*
X473100Y37846D03*
X482600Y37846D03*
X492100Y37846D03*
X492100Y63754D03*
X473100Y63754D03*
D14*
X520700Y47600D03*
X520700Y28600D03*
X431800Y47600D03*
X431800Y28600D03*
D21*
X406400Y221300D03*
X406400Y201300D03*
X406400Y181300D03*
X406400Y161300D03*
X406400Y141300D03*
X406400Y121300D03*
X406400Y101300D03*
X406400Y81300D03*
X244400Y221300D03*
X244400Y201300D03*
X244400Y181300D03*
X244400Y161300D03*
X244400Y141300D03*
X244400Y121300D03*
X244400Y101300D03*
X244400Y81300D03*
D22*
X296400Y241300D03*
X376400Y241300D03*
X356400Y241300D03*
X276400Y241300D03*
X336400Y241300D03*
X316400Y241300D03*
D23*
X611886Y123825D03*
X611886Y104775D03*
X632714Y114300D03*
D14*
X673100Y123800D03*
X673100Y104800D03*
X571500Y123800D03*
X571500Y104800D03*
D24*
X181000Y177800D03*
X200000Y177800D03*
X479400Y127000D03*
X460400Y127000D03*
D14*
X723900Y123800D03*
X723900Y104800D03*
D23*
X611886Y47625D03*
X611886Y28575D03*
X632714Y38100D03*
D14*
X673100Y47600D03*
X673100Y28600D03*
X571500Y47600D03*
X571500Y28600D03*
X723900Y47600D03*
X723900Y28600D03*
D16*
X190500Y30480D02*
X190500Y45720D01*
X165100Y45720D02*
X165100Y30480D01*
X139700Y30480D02*
X139700Y45720D01*
X114300Y45720D02*
X114300Y30480D01*
X88900Y30480D02*
X88900Y45720D01*
D24*
X479400Y88900D03*
X460400Y88900D03*
X181000Y139700D03*
X200000Y139700D03*
D25*
X406400Y419100D03*
X406400Y342900D03*
X355600Y419100D03*
X355600Y342900D03*
X304800Y419100D03*
X304800Y342900D03*
X254000Y419100D03*
X254000Y342900D03*
D26*
X304800Y272318D03*
X215900Y304800D03*
X622300Y139700D03*
X88900Y431800D03*
X114300Y419100D03*
X139700Y431800D03*
X571500Y88900D03*
X596900Y88900D03*
X139700Y114300D03*
X114300Y101600D03*
X88900Y114300D03*
X520700Y76200D03*
X457200Y25400D03*
X660400Y76200D03*
X698500Y88900D03*
X139700Y330200D03*
X165100Y406400D03*
X177800Y419100D03*
X190500Y406400D03*
X203200Y419100D03*
X546100Y50800D03*
X508000Y88900D03*
X508000Y127000D03*
X635000Y139700D03*
M02*
